<svg width="136" height="136" viewBox="0 0 136 136" fill="none" xmlns="http://www.w3.org/2000/svg">
<path d="M50.4654 8.7454L49.6489 3.07063C49.6101 2.91516 49.6489 2.75969 49.7267 2.68195C49.8045 2.60422 49.8822 2.52648 49.9989 2.48761L52.0595 1.78798C52.1372 1.74911 52.2539 1.74911 52.3316 1.82685C52.4094 1.86572 52.4871 1.94345 52.526 2.02119C52.526 2.06006 52.5649 2.09893 52.5649 2.1378L53.9257 12.8266C53.9645 12.982 53.9257 13.1375 53.809 13.3319C53.6924 13.5262 53.5369 13.6428 53.3425 13.7205L52.0206 14.1481C51.8262 14.2258 51.6318 14.2258 51.4374 14.1481C51.243 14.0703 51.1263 13.9537 51.0097 13.8371L48.5992 10.6499L48.6381 14.6145C48.6381 14.77 48.5992 14.9643 48.4826 15.1198C48.4048 15.2753 48.2493 15.4307 48.016 15.4696L46.6941 15.8972C46.4997 15.9749 46.2664 15.9749 46.072 15.8972C45.8776 15.8194 45.761 15.7028 45.6832 15.5862L40.2401 6.25783C40.2013 6.21896 40.2013 6.18009 40.1624 6.14123C40.1235 6.06349 40.1235 5.94688 40.2013 5.86915C40.2401 5.79141 40.3179 5.71368 40.3957 5.67481L42.4563 4.97518C42.5729 4.93631 42.6895 4.93631 42.8062 4.97518C42.9228 5.01405 43.0394 5.09178 43.1172 5.24726L45.9554 10.2613L45.9165 7.07406C45.9165 6.99633 45.9165 6.87972 45.9554 6.72425C45.9943 6.56878 46.1109 6.49104 46.3053 6.4133L47.7827 5.90802C47.9771 5.83028 48.1326 5.86915 48.2493 5.94688C48.3659 6.02462 48.4437 6.10236 48.4826 6.18009L50.4654 8.7454Z" fill="white"/>
<path d="M61.3516 0.466419C61.5849 0.427551 61.7404 0.466419 61.8959 0.583024C62.0126 0.699628 62.1292 0.816233 62.1681 0.932838L67.028 10.9608C67.0669 11.0775 67.1058 11.1552 67.1058 11.1941C67.1058 11.3107 67.1058 11.3884 67.028 11.4661C66.9502 11.5439 66.8725 11.5827 66.7947 11.6216L64.6952 11.8548C64.462 11.8937 64.3065 11.8548 64.1898 11.7771C64.0732 11.6993 64.0343 11.6216 63.9954 11.505L63.3733 10.1835L58.9411 10.7276L58.6301 12.1658C58.6301 12.2435 58.5523 12.3601 58.4745 12.4767C58.3968 12.5933 58.2413 12.6322 58.008 12.671L55.9085 12.9043C55.7919 12.9043 55.7141 12.9043 55.6364 12.8265C55.5586 12.7488 55.5197 12.671 55.4808 12.5933C55.4808 12.5544 55.4808 12.4378 55.5197 12.3212L57.8914 1.43813C57.9302 1.32152 57.9691 1.16605 58.0858 1.04944C58.2024 0.932838 58.3579 0.816233 58.5523 0.816233L61.3516 0.466419ZM59.5243 8.04573L62.207 7.73478L60.3796 3.92569L59.5243 8.04573Z" fill="white"/>
<path d="M76.0481 0.466419C76.1647 0.466419 76.2814 0.505287 76.3591 0.621892C76.4369 0.699628 76.4758 0.816233 76.4758 0.932838L76.398 2.72078C76.398 2.83738 76.3591 2.95399 76.2425 3.03172C76.1647 3.10946 76.0481 3.14833 75.9314 3.14833L72.9766 2.99285L72.5489 11.5439C72.5489 11.6605 72.5101 11.7771 72.3934 11.8548C72.3157 11.9326 72.199 11.9714 72.0824 11.9714L69.9051 11.8548C69.7885 11.8548 69.6719 11.8159 69.5941 11.6993C69.5164 11.6216 69.4775 11.505 69.4775 11.3884L69.9051 2.83738L66.9503 2.68191C66.8337 2.68191 66.717 2.64304 66.6393 2.52644C66.5615 2.4487 66.5226 2.33209 66.5226 2.21549L66.6004 0.427551C66.6004 0.310946 66.6393 0.194341 66.7559 0.116605C66.8337 0.0388682 66.9503 0 67.067 0L76.0481 0.466419Z" fill="white"/>
<path d="M81.0245 5.86911C80.9857 6.02458 80.9079 6.21892 80.869 6.45213C80.7913 6.68534 80.7524 6.95742 80.6746 7.2295C80.5969 7.50157 80.558 7.77365 80.4802 8.00686C80.4414 8.27894 80.4025 8.47328 80.3636 8.58989C80.3247 8.86196 80.3247 9.09517 80.3247 9.32838C80.3247 9.56159 80.4025 9.7948 80.5191 10.028C80.6358 10.2224 80.8302 10.4167 81.0245 10.5722C81.2578 10.7276 81.53 10.8442 81.9188 10.9608C82.2687 11.0386 82.6186 11.0775 82.8519 11.0386C83.124 10.9997 83.3184 10.9608 83.5128 10.8442C83.7072 10.7665 83.8627 10.6499 83.9794 10.4944C84.096 10.3778 84.1738 10.2224 84.2515 10.1057C84.3293 9.95027 84.4459 9.83367 84.5237 9.7948C84.6015 9.75593 84.757 9.71706 84.9125 9.7948L87.0509 10.3001C87.1675 10.339 87.2064 10.3778 87.2841 10.4556C87.323 10.5333 87.3619 10.6499 87.323 10.7276C87.1675 11.2718 86.9342 11.7771 86.5454 12.2046C86.1566 12.6322 85.729 12.982 85.1846 13.2152C84.6403 13.4484 84.0571 13.6039 83.3962 13.6816C82.7352 13.7594 82.0354 13.6816 81.3356 13.5262C80.558 13.3318 79.8971 13.0597 79.3139 12.6711C78.7695 12.2824 78.303 11.8548 77.992 11.3495C77.642 10.8442 77.4476 10.3001 77.331 9.71706C77.2144 9.13404 77.2144 8.51215 77.331 7.92913C77.4088 7.46271 77.5254 6.99629 77.642 6.491C77.7587 5.98571 77.8753 5.48043 78.0308 5.05287C78.1864 4.46985 78.4585 3.9257 78.8473 3.45928C79.1972 2.99286 79.6638 2.60418 80.1692 2.29323C80.6746 1.98228 81.2967 1.78794 81.9577 1.71021C82.6186 1.63247 83.3573 1.67134 84.1349 1.86568C84.8347 2.02115 85.4957 2.29323 86.04 2.64304C86.5843 2.99286 87.0509 3.42041 87.4396 3.88683C87.8284 4.35325 88.0617 4.85853 88.2172 5.40269C88.3728 5.94684 88.3728 6.491 88.2561 7.07402C88.2172 7.19063 88.1784 7.2295 88.1006 7.30723C88.0228 7.3461 87.9062 7.38497 87.8284 7.3461L85.6901 6.84081C85.4957 6.80195 85.379 6.72421 85.3402 6.64647C85.3013 6.56874 85.2624 6.41326 85.2624 6.21892C85.2624 6.06345 85.2235 5.90798 85.1846 5.7525C85.1458 5.59703 85.068 5.40269 84.9514 5.24722C84.8347 5.09174 84.6403 4.93627 84.4459 4.7808C84.2127 4.62532 83.9405 4.50872 83.5517 4.43098C83.2018 4.35325 82.8519 4.31438 82.5797 4.35325C82.3076 4.39211 82.0743 4.46985 81.8799 4.62532C81.6855 4.74193 81.4911 4.93627 81.3745 5.13061C81.219 5.40269 81.1023 5.6359 81.0245 5.86911Z" fill="white"/>
<path d="M101.086 8.47331C101.203 8.51218 101.281 8.62878 101.32 8.74539C101.358 8.86199 101.358 8.9786 101.32 9.0952L96.7318 18.8511C96.693 18.9677 96.5763 19.0455 96.4597 19.0843C96.3431 19.1232 96.2264 19.1232 96.1098 19.0843L94.1269 18.1515C94.0103 18.1126 93.9325 17.996 93.8937 17.8794C93.8548 17.7628 93.8548 17.6462 93.8937 17.5296L95.6432 13.8371L92.2996 12.2435L90.55 15.936C90.5111 16.0526 90.3945 16.1304 90.2779 16.1692C90.1612 16.2081 90.0446 16.2081 89.928 16.1692L87.9451 15.2364C87.8285 15.1975 87.7507 15.1198 87.7118 15.0032C87.673 14.8866 87.673 14.77 87.7118 14.6534L92.2996 4.89743C92.3385 4.78083 92.4551 4.70309 92.5718 4.66422C92.6884 4.62535 92.805 4.62535 92.9217 4.66422L94.9045 5.59706C95.0212 5.63593 95.0989 5.75253 95.1378 5.86914C95.1767 5.98574 95.1767 6.10235 95.1378 6.21895L93.4271 9.87257L96.7707 11.4662L98.4814 7.81255C98.5203 7.69595 98.6369 7.61821 98.7536 7.57934C98.8702 7.54047 98.9868 7.54047 99.1035 7.57934L101.086 8.47331Z" fill="white"/>
<path d="M103.225 24.0983C102.875 23.8262 102.797 23.4764 102.953 23.01L106.996 12.7876C107.035 12.7099 107.035 12.671 107.074 12.6322C107.074 12.5933 107.113 12.5933 107.113 12.5933C107.19 12.5156 107.268 12.4767 107.346 12.4767C107.463 12.4767 107.54 12.4767 107.618 12.5544L109.251 13.9148C109.407 14.0703 109.523 14.1869 109.523 14.3424C109.523 14.459 109.523 14.5756 109.484 14.6533L106.568 21.7662L113.061 17.6073C113.139 17.5684 113.256 17.5296 113.372 17.4907C113.489 17.4907 113.644 17.5296 113.839 17.685L115.472 19.0454C115.55 19.1232 115.588 19.2009 115.588 19.2786C115.588 19.3952 115.588 19.473 115.511 19.5507L115.472 19.5896C115.472 19.5896 115.394 19.6284 115.355 19.6673L106.063 25.5364C105.674 25.7696 105.285 25.7696 104.935 25.4976L103.225 24.0983Z" fill="white"/>
<path d="M109.173 29.6176C109.095 29.5399 109.057 29.4233 109.057 29.3066C109.057 29.19 109.095 29.0734 109.212 28.9957L117.221 21.7662C117.299 21.6885 117.416 21.6496 117.532 21.6496C117.649 21.6496 117.766 21.6885 117.843 21.8051L119.321 23.4375C119.398 23.5153 119.437 23.6319 119.437 23.7485C119.437 23.8651 119.398 23.9817 119.282 24.0594L111.273 31.2889C111.195 31.3667 111.078 31.4055 110.962 31.4055C110.845 31.4055 110.728 31.3667 110.651 31.2501L109.173 29.6176Z" fill="white"/>
<path d="M124.764 30.5116C125.192 31.1335 125.464 31.7942 125.658 32.455C125.814 33.1158 125.852 33.7376 125.775 34.3595C125.697 34.9814 125.464 35.5645 125.153 36.0697C124.803 36.6139 124.375 37.0803 123.831 37.469C123.636 37.6245 123.481 37.7411 123.286 37.8577C123.131 37.9743 122.975 38.052 122.82 38.1686C122.664 38.2852 122.509 38.363 122.353 38.4796C122.198 38.5962 122.003 38.7128 121.848 38.7905C121.265 39.1403 120.643 39.3735 120.021 39.4901C119.399 39.6067 118.815 39.5679 118.193 39.4124C117.61 39.2569 117.027 38.9849 116.483 38.5962C115.938 38.2075 115.472 37.7022 115.044 37.0414L112.556 33.2712C112.478 33.1546 112.478 33.038 112.478 32.9214C112.517 32.8048 112.556 32.6882 112.672 32.6493L121.692 26.7025C121.809 26.6248 121.926 26.6248 122.042 26.6248C122.159 26.6636 122.276 26.7025 122.314 26.8191L124.764 30.5116ZM122.159 34.9037C123.17 34.1263 123.286 33.1546 122.509 31.9497L121.576 30.5116L116.288 34.0097L117.26 35.4867C118.038 36.6528 118.971 36.9248 120.059 36.2641C120.254 36.1475 120.448 36.0309 120.604 35.9143C120.759 35.7977 120.954 35.6811 121.109 35.5645C121.265 35.4478 121.42 35.3312 121.615 35.2535C121.809 35.1758 121.965 35.0203 122.159 34.9037Z" fill="white"/>
<path d="M124.22 49.4016C124.258 49.5182 124.258 49.6348 124.22 49.7514C124.181 49.868 124.103 49.9457 123.986 49.9846L122.353 50.6453C122.237 50.6842 122.12 50.6842 122.003 50.6453C121.887 50.6065 121.809 50.5287 121.77 50.4121L118.738 43.1049C118.699 42.9883 118.699 42.8717 118.738 42.7551C118.776 42.6385 118.854 42.5607 118.971 42.5219L128.963 38.4018C129.08 38.363 129.196 38.363 129.313 38.4018C129.429 38.4407 129.507 38.5184 129.546 38.635L132.54 45.8257C132.579 45.9423 132.579 46.0589 132.54 46.1755C132.501 46.2921 132.423 46.3698 132.306 46.4087L130.674 47.0695C130.557 47.1083 130.44 47.1083 130.324 47.0695C130.207 47.0306 130.129 46.9529 130.09 46.8362L128.108 42.0943L126.436 42.7939L128.263 47.2249C128.302 47.3415 128.302 47.4581 128.263 47.5747C128.224 47.6914 128.146 47.7691 128.03 47.808L126.397 48.4687C126.28 48.5076 126.164 48.5076 126.047 48.4687C125.93 48.4298 125.853 48.3521 125.814 48.2355L123.986 43.8045L122.276 44.5042L124.22 49.4016Z" fill="white"/>
<path d="M129.429 50.2178C130.051 50.14 130.635 50.14 131.257 50.2566C131.84 50.3732 132.384 50.6064 132.851 50.9563C133.356 51.3061 133.745 51.7725 134.134 52.3166C134.484 52.8997 134.756 53.5604 134.911 54.3766C135.067 55.154 135.106 55.8925 134.989 56.5921C134.873 57.2529 134.678 57.8359 134.367 58.3801C134.056 58.8854 133.667 59.3129 133.162 59.6627C132.656 60.0125 132.112 60.2457 131.529 60.4012C131.062 60.5178 130.557 60.6344 130.051 60.751C129.546 60.8676 129.041 60.9454 128.613 61.0231C127.991 61.1009 127.408 61.1008 126.786 60.9842C126.202 60.8676 125.658 60.6344 125.153 60.2846C124.647 59.9348 124.22 59.4684 123.87 58.8854C123.52 58.3023 123.248 57.6416 123.092 56.8253C122.937 56.0091 122.898 55.2706 123.014 54.6099C123.131 53.9491 123.325 53.3661 123.636 52.8608C123.947 52.3555 124.375 51.928 124.842 51.5781C125.347 51.2283 125.891 50.9951 126.475 50.8396C126.902 50.723 127.408 50.6064 127.913 50.5287C128.457 50.3732 128.924 50.2955 129.429 50.2178ZM128.069 57.9914C128.263 57.9525 128.496 57.9137 128.73 57.8748C128.963 57.8359 129.235 57.7971 129.468 57.7582C129.702 57.7193 129.974 57.6416 130.207 57.6027C130.44 57.525 130.635 57.4861 130.829 57.4472C131.101 57.3695 131.334 57.2529 131.529 57.1363C131.723 56.9808 131.918 56.8253 132.034 56.631C132.151 56.4367 132.268 56.2035 132.306 55.9314C132.345 55.6593 132.345 55.3484 132.268 54.9985C132.19 54.6487 132.073 54.3767 131.957 54.1434C131.801 53.9102 131.646 53.7159 131.412 53.5993C131.218 53.4827 130.985 53.3661 130.751 53.3272C130.518 53.2883 130.246 53.2883 129.974 53.3272C129.779 53.3272 129.585 53.3661 129.352 53.4049C129.118 53.4438 128.885 53.4827 128.613 53.5604C128.38 53.5993 128.107 53.677 127.874 53.7159C127.641 53.7548 127.408 53.8325 127.213 53.8714C126.669 54.0268 126.28 54.2989 125.969 54.7265C125.658 55.1151 125.58 55.6593 125.736 56.3589C125.891 57.0197 126.164 57.4861 126.591 57.7582C127.019 58.0303 127.485 58.0303 128.069 57.9914Z" fill="white"/>
<path d="M128.38 82.4784L133.706 84.6162C133.862 84.6939 133.978 84.7716 134.017 84.8882C134.056 85.0048 134.095 85.1214 134.056 85.2381L133.628 87.3758C133.628 87.4924 133.551 87.5701 133.473 87.609C133.395 87.6479 133.278 87.6867 133.201 87.6479C133.162 87.6479 133.123 87.609 133.084 87.609L123.131 83.4501C122.975 83.4112 122.859 83.2946 122.742 83.1003C122.625 82.906 122.625 82.7116 122.664 82.5173L122.937 81.1569C122.975 80.9237 123.092 80.7682 123.248 80.6516C123.403 80.535 123.559 80.4573 123.714 80.4573L127.68 79.952L124.22 78.0086C124.064 77.9308 123.947 77.8142 123.831 77.6199C123.714 77.4644 123.714 77.2701 123.753 77.0369L124.025 75.6765C124.064 75.4433 124.181 75.2878 124.336 75.1712C124.492 75.0546 124.647 74.9768 124.803 74.9768L135.572 74.8991C135.611 74.8991 135.689 74.8991 135.689 74.8991C135.806 74.938 135.883 74.9768 135.922 75.0546C135.961 75.1323 136 75.2489 135.961 75.3267L135.533 77.4644C135.495 77.581 135.456 77.6588 135.378 77.7754C135.3 77.892 135.184 77.892 134.989 77.892L129.235 77.8531L131.995 79.4078C132.073 79.4467 132.151 79.5244 132.268 79.6022C132.384 79.7188 132.423 79.8354 132.384 80.0297L132.073 81.5844C132.034 81.7788 131.957 81.8954 131.801 81.9731C131.684 82.012 131.568 82.0509 131.49 82.0509L128.38 82.4784Z" fill="white"/>
<path d="M130.129 96.0434C130.051 96.2378 129.935 96.3932 129.779 96.4321C129.624 96.5098 129.468 96.5098 129.352 96.5098L118.232 95.7325C118.116 95.7325 118.038 95.7325 117.96 95.6936C117.882 95.6547 117.804 95.577 117.766 95.4993C117.727 95.4215 117.727 95.3049 117.766 95.2272L118.582 93.2838C118.66 93.0894 118.776 92.934 118.893 92.8951C119.01 92.8562 119.126 92.8174 119.204 92.8562L120.682 92.9728L122.431 88.8917L121.343 87.92C121.265 87.8811 121.226 87.7645 121.148 87.6479C121.109 87.5313 121.109 87.3758 121.187 87.1426L122.003 85.1992C122.042 85.1215 122.12 85.0437 122.198 85.0049C122.276 84.966 122.392 84.966 122.47 85.0049C122.509 85.0437 122.587 85.0826 122.664 85.1603L130.907 92.6619C130.985 92.7396 131.101 92.8562 131.14 93.0117C131.218 93.1672 131.179 93.3615 131.101 93.5559L130.129 96.0434ZM124.492 90.6796L123.442 93.1672L127.68 93.4781L124.492 90.6796Z" fill="white"/>
<path d="M122.781 108.792C122.703 108.909 122.625 108.948 122.509 108.987C122.392 109.025 122.276 108.987 122.159 108.909L120.682 107.937C120.565 107.859 120.526 107.782 120.487 107.665C120.448 107.548 120.487 107.432 120.565 107.315L122.159 104.828L114.966 100.163C114.85 100.086 114.811 100.008 114.772 99.8914C114.733 99.7748 114.772 99.6582 114.85 99.5416L116.055 97.7148C116.133 97.5982 116.21 97.5593 116.327 97.5204C116.444 97.4816 116.56 97.5204 116.677 97.5982L123.87 102.262L125.464 99.7748C125.541 99.6582 125.619 99.6193 125.736 99.5805C125.852 99.5416 125.969 99.5805 126.086 99.6582L127.563 100.63C127.68 100.708 127.719 100.785 127.758 100.902C127.796 101.019 127.758 101.135 127.68 101.252L122.781 108.792Z" fill="white"/>
<path d="M115.588 110.347C115.472 110.23 115.355 110.114 115.161 109.919C114.966 109.725 114.772 109.57 114.578 109.375C114.383 109.181 114.189 108.987 113.994 108.831C113.8 108.637 113.644 108.52 113.528 108.442C113.333 108.287 113.1 108.131 112.906 108.054C112.672 107.937 112.439 107.898 112.206 107.898C111.973 107.898 111.7 107.937 111.467 108.054C111.195 108.17 110.962 108.365 110.69 108.637C110.417 108.909 110.262 109.181 110.145 109.414C110.029 109.647 109.99 109.881 109.951 110.075C109.951 110.269 109.951 110.464 110.029 110.619C110.068 110.775 110.145 110.93 110.223 111.047C110.301 111.202 110.379 111.358 110.379 111.435C110.379 111.552 110.34 111.668 110.184 111.785L108.668 113.379C108.59 113.456 108.512 113.495 108.396 113.495C108.279 113.495 108.201 113.456 108.124 113.379C107.735 112.99 107.424 112.524 107.229 111.979C107.035 111.435 106.996 110.891 107.035 110.269C107.074 109.647 107.268 109.064 107.54 108.481C107.813 107.859 108.201 107.315 108.707 106.771C109.251 106.188 109.834 105.761 110.456 105.45C111.078 105.139 111.662 104.983 112.284 104.944C112.906 104.905 113.489 104.983 114.033 105.177C114.577 105.372 115.122 105.683 115.588 106.071C115.938 106.382 116.288 106.693 116.677 107.043C117.066 107.393 117.416 107.743 117.727 108.093C118.154 108.52 118.504 109.025 118.699 109.57C118.932 110.114 119.049 110.697 119.049 111.319C119.049 111.941 118.893 112.524 118.66 113.145C118.388 113.767 117.999 114.389 117.455 114.972C116.949 115.516 116.405 115.944 115.822 116.216C115.238 116.527 114.655 116.721 114.033 116.799C113.45 116.877 112.867 116.838 112.323 116.721C111.778 116.566 111.273 116.294 110.884 115.905C110.806 115.827 110.767 115.75 110.767 115.633C110.767 115.516 110.806 115.439 110.884 115.361L112.4 113.767C112.517 113.612 112.634 113.573 112.75 113.573C112.867 113.573 112.983 113.612 113.139 113.69C113.256 113.767 113.411 113.806 113.606 113.845C113.761 113.884 113.955 113.884 114.15 113.884C114.344 113.845 114.577 113.806 114.811 113.69C115.044 113.573 115.277 113.379 115.549 113.107C115.822 112.835 115.977 112.562 116.094 112.29C116.21 112.018 116.249 111.785 116.21 111.552C116.21 111.319 116.133 111.085 116.016 110.852C115.899 110.775 115.783 110.541 115.588 110.347Z" fill="white"/>
<path d="M103.341 126.438C103.225 126.516 103.147 126.516 102.991 126.516C102.875 126.477 102.758 126.438 102.68 126.322L96.4986 117.46C96.4208 117.343 96.4208 117.266 96.4208 117.11C96.4597 116.993 96.4986 116.877 96.6152 116.799L98.4037 115.555C98.5203 115.478 98.5981 115.478 98.7536 115.478C98.9091 115.478 98.9869 115.555 99.0646 115.672L101.397 119.015L104.43 116.877L102.097 113.534C102.019 113.418 102.019 113.34 102.019 113.184C102.058 113.068 102.097 112.951 102.214 112.873L104.002 111.63C104.119 111.552 104.197 111.552 104.352 111.552C104.469 111.552 104.586 111.63 104.663 111.746L110.845 120.608C110.923 120.725 110.923 120.803 110.923 120.958C110.884 121.075 110.845 121.191 110.728 121.269L108.94 122.513C108.823 122.59 108.746 122.59 108.59 122.59C108.473 122.552 108.357 122.513 108.279 122.396L105.985 119.092L102.953 121.23L105.246 124.534C105.324 124.65 105.324 124.728 105.324 124.884C105.285 125 105.246 125.117 105.13 125.195L103.341 126.438Z" fill="white"/>
<path d="M88.7227 120.492C89.1115 120.336 89.5002 120.453 89.7724 120.803L96.6152 129.392C96.6541 129.47 96.6929 129.509 96.6929 129.509C96.6929 129.509 96.7318 129.548 96.7318 129.587C96.7707 129.664 96.7707 129.781 96.7318 129.859C96.6929 129.937 96.6152 130.014 96.5374 130.053L94.5546 130.792C94.3602 130.869 94.1658 130.869 94.0491 130.831C93.9325 130.792 93.8547 130.714 93.777 130.636L89.0337 124.573L89.4225 132.269C89.4225 132.346 89.4225 132.463 89.3447 132.58C89.3059 132.696 89.1503 132.813 88.9559 132.891L86.9731 133.629C86.8953 133.668 86.7787 133.668 86.7009 133.629C86.6232 133.59 86.5454 133.512 86.5065 133.435C86.5065 133.396 86.5065 133.396 86.5065 133.357C86.5065 133.318 86.5065 133.279 86.5065 133.201L86.0789 122.241C86.0789 121.774 86.2733 121.463 86.662 121.308L88.7227 120.492Z" fill="white"/>
<path d="M80.9857 122.901C81.1024 122.863 81.219 122.901 81.3356 122.979C81.4523 123.057 81.4912 123.135 81.53 123.251L83.7851 133.823C83.8239 133.94 83.7851 134.057 83.7073 134.173C83.6295 134.29 83.5518 134.329 83.4351 134.368L81.2968 134.834C81.1801 134.873 81.0635 134.834 80.9468 134.756C80.8302 134.679 80.7913 134.601 80.7524 134.484L78.4974 123.912C78.4585 123.795 78.4974 123.679 78.5752 123.562C78.653 123.446 78.7307 123.407 78.8473 123.368L80.9857 122.901Z" fill="white"/>
<path d="M72.3544 135.961C71.5768 136 70.877 135.922 70.2161 135.767C69.5551 135.572 69.0108 135.3 68.5054 134.912C67.9999 134.523 67.6111 134.057 67.339 133.512C67.028 132.968 66.8724 132.346 66.7947 131.647C66.7558 131.414 66.7558 131.219 66.7558 130.986C66.7558 130.753 66.7169 130.597 66.7169 130.442C66.7169 130.247 66.678 130.092 66.678 129.898C66.678 129.703 66.678 129.509 66.6392 129.276C66.6392 128.576 66.7169 127.954 66.9502 127.371C67.1835 126.788 67.4945 126.283 67.9222 125.855C68.3499 125.428 68.8553 125.078 69.4774 124.806C70.0994 124.534 70.7604 124.378 71.538 124.34L76.048 124.067C76.1646 124.067 76.2812 124.106 76.359 124.184C76.4368 124.262 76.5145 124.378 76.5145 124.495L77.1755 135.261C77.1755 135.378 77.1366 135.495 77.0588 135.572C76.9811 135.65 76.8644 135.728 76.7478 135.728L72.3544 135.961ZM69.905 131.491C70.0605 132.774 70.8381 133.357 72.2767 133.279L73.9874 133.163L73.5986 126.827L71.8101 126.944C70.4105 127.021 69.7106 127.721 69.7495 129.004C69.7495 129.237 69.7495 129.47 69.7884 129.664C69.7884 129.859 69.8273 130.053 69.8273 130.247C69.8273 130.442 69.8661 130.636 69.8661 130.831C69.8661 131.025 69.8661 131.258 69.905 131.491Z" fill="white"/>
<path d="M56.3362 126.011C56.2195 126.011 56.1029 125.933 56.0251 125.855C55.9474 125.739 55.9085 125.661 55.9474 125.506L56.1807 123.757C56.1807 123.64 56.2584 123.523 56.3362 123.446C56.4528 123.368 56.5306 123.329 56.6861 123.368L64.5397 124.378C64.6564 124.378 64.773 124.456 64.8508 124.534C64.9285 124.651 64.9674 124.728 64.9285 124.884L63.5289 135.573C63.5289 135.689 63.4511 135.806 63.3733 135.883C63.2567 135.961 63.1789 136 63.0234 135.961L55.2864 134.951C55.1698 134.951 55.0532 134.873 54.9754 134.795C54.8976 134.679 54.8588 134.601 54.8976 134.445L55.1309 132.696C55.1309 132.58 55.2087 132.463 55.2864 132.385C55.4031 132.308 55.4808 132.269 55.6363 132.308L60.7295 132.968L60.9628 131.18L56.2195 130.558C56.1029 130.558 55.9863 130.481 55.9085 130.403C55.8307 130.286 55.7919 130.209 55.8307 130.053L56.064 128.304C56.064 128.188 56.1418 128.071 56.2195 127.993C56.3362 127.915 56.4139 127.877 56.5695 127.915L61.3127 128.537L61.546 126.672L56.3362 126.011Z" fill="white"/>
<path d="M53.0315 130.131C52.7982 130.714 52.4872 131.219 52.0984 131.686C51.7096 132.152 51.243 132.463 50.6598 132.735C50.1155 132.968 49.4935 133.124 48.8325 133.163C48.1716 133.201 47.4328 133.085 46.6553 132.813C45.8777 132.541 45.2167 132.23 44.7113 131.802C44.167 131.375 43.7782 130.908 43.4671 130.364C43.195 129.859 43.0006 129.276 42.9617 128.693C42.9228 128.11 42.9617 127.488 43.1172 126.905C43.2339 126.438 43.3894 125.972 43.5449 125.467C43.7004 124.961 43.8559 124.495 44.0503 124.067C44.2836 123.484 44.5946 122.979 44.9834 122.513C45.3722 122.046 45.8777 121.696 46.422 121.463C46.9663 121.23 47.5884 121.075 48.2493 121.036C48.9103 120.997 49.649 121.113 50.4266 121.386C51.2041 121.658 51.8651 121.969 52.3705 122.396C52.876 122.824 53.3036 123.29 53.5758 123.834C53.8479 124.378 54.0423 124.923 54.0812 125.544C54.1201 126.127 54.0812 126.749 53.9257 127.332C53.8091 127.76 53.6535 128.226 53.498 128.732C53.3425 129.198 53.187 129.664 53.0315 130.131ZM46.9663 125.078C46.8885 125.272 46.8108 125.467 46.733 125.7C46.6553 125.933 46.5775 126.166 46.4609 126.4C46.3831 126.633 46.3053 126.866 46.2276 127.099C46.1498 127.332 46.1109 127.527 46.0721 127.721C45.9943 127.993 45.9943 128.265 45.9943 128.498C45.9943 128.732 46.0721 129.004 46.1887 129.198C46.3053 129.431 46.4609 129.626 46.6553 129.781C46.8497 129.975 47.1218 130.092 47.4717 130.209C47.7828 130.325 48.0938 130.364 48.3659 130.364C48.6381 130.364 48.8714 130.286 49.1047 130.17C49.3379 130.053 49.5323 129.898 49.6878 129.703C49.8434 129.509 49.9989 129.276 50.1155 129.043C50.1933 128.887 50.271 128.654 50.3488 128.46C50.4266 128.226 50.5043 127.993 50.5821 127.76C50.6598 127.527 50.7376 127.294 50.8153 127.06C50.8931 126.827 50.932 126.594 50.9709 126.4C51.0875 125.855 51.0486 125.35 50.8542 124.884C50.6598 124.417 50.2322 124.106 49.5712 123.873C48.9103 123.64 48.366 123.679 47.9383 123.912C47.5106 124.145 47.1996 124.573 46.9663 125.078Z" fill="white"/>
<path d="M25.5826 113.107L21.0726 116.644C20.956 116.76 20.8005 116.799 20.6838 116.76C20.5672 116.76 20.4506 116.682 20.3728 116.644L18.7399 115.205C18.6621 115.128 18.6232 115.05 18.6232 114.972C18.6232 114.856 18.6621 114.778 18.701 114.7C18.7399 114.661 18.7399 114.661 18.8176 114.622L27.41 108.093C27.5266 107.976 27.6821 107.937 27.9154 107.937C28.1098 107.937 28.3042 108.015 28.4597 108.17L29.5094 109.103C29.665 109.259 29.7816 109.414 29.7816 109.608C29.7816 109.803 29.7816 109.958 29.7038 110.114L28.1487 113.767L31.5701 111.746C31.7256 111.668 31.8811 111.63 32.0755 111.63C32.2699 111.63 32.4643 111.707 32.6198 111.824L33.6695 112.757C33.8251 112.912 33.9417 113.068 33.9806 113.301C34.0195 113.534 33.9806 113.69 33.9028 113.806L28.5763 123.173C28.5375 123.212 28.5375 123.251 28.4986 123.29C28.4208 123.368 28.3431 123.407 28.2653 123.407C28.1487 123.407 28.0709 123.368 27.9932 123.329L26.3602 121.891C26.2825 121.813 26.2047 121.735 26.2047 121.619C26.1658 121.502 26.2047 121.386 26.2825 121.23L29.1984 116.294L26.4769 117.926C26.3991 117.965 26.3213 118.004 26.1658 118.043C26.0103 118.082 25.8937 118.043 25.7381 117.887L24.5718 116.838C24.4163 116.721 24.3385 116.566 24.3774 116.41C24.4163 116.255 24.4163 116.177 24.4551 116.099L25.5826 113.107Z" fill="white"/>
<path d="M12.9468 107.859C12.8302 107.665 12.7524 107.51 12.7913 107.354C12.8302 107.199 12.8691 107.043 12.9468 106.927L19.1675 97.6759C19.2453 97.5593 19.2842 97.5205 19.323 97.4816C19.4008 97.4039 19.4786 97.4039 19.5952 97.4039C19.7118 97.4039 19.7896 97.4816 19.8285 97.5593L21.1115 99.2307C21.2281 99.425 21.3059 99.5805 21.267 99.6971C21.267 99.8137 21.2281 99.9303 21.1504 100.008L20.3339 101.213L23.0166 104.75L24.4162 104.284C24.494 104.245 24.6106 104.245 24.7273 104.245C24.8439 104.245 24.9994 104.361 25.1161 104.556L26.3991 106.227C26.4768 106.305 26.4768 106.382 26.4768 106.499C26.4768 106.616 26.3991 106.693 26.3213 106.732C26.2824 106.771 26.2047 106.81 26.088 106.849L15.474 110.269C15.3573 110.308 15.2018 110.308 15.0463 110.308C14.8908 110.269 14.7353 110.192 14.5798 109.997L12.9468 107.859ZM20.4117 105.644L18.7787 103.467L16.3682 106.965L20.4117 105.644Z" fill="white"/>
<path d="M5.55974 95.1106C5.52087 94.994 5.48199 94.8774 5.52087 94.7608C5.55974 94.6442 5.6375 94.5665 5.75414 94.4887L7.34819 93.6725C7.46483 93.6336 7.58147 93.5948 7.69811 93.6336C7.81475 93.6725 7.89251 93.7502 7.97026 93.8668L9.33104 96.471L16.9514 92.5453C17.068 92.5065 17.1847 92.4676 17.3013 92.5065C17.4179 92.5453 17.4957 92.6231 17.5735 92.7397L18.5843 94.6831C18.6232 94.7997 18.6621 94.9163 18.6232 95.0329C18.5843 95.1495 18.5066 95.2272 18.3899 95.305L10.7696 99.2307L12.1304 101.835C12.1692 101.951 12.2081 102.068 12.1692 102.185C12.1304 102.301 12.0526 102.379 11.936 102.457L10.3419 103.273C10.2253 103.312 10.1086 103.351 9.99199 103.312C9.87535 103.273 9.79759 103.195 9.71984 103.079L5.55974 95.1106Z" fill="white"/>
<path d="M7.77588 88.1143C7.93139 88.0754 8.12579 88.0366 8.35907 87.9588C8.59234 87.8811 8.8645 87.8034 9.13665 87.7256C9.40881 87.6479 9.64209 87.5702 9.91424 87.4924C10.1475 87.4147 10.3419 87.3369 10.4974 87.2981C10.7307 87.2203 10.964 87.1037 11.1584 86.9483C11.3528 86.7928 11.5083 86.6373 11.6638 86.4041C11.7805 86.2098 11.8582 85.9377 11.8971 85.6656C11.936 85.3935 11.8971 85.0826 11.7805 84.6939C11.6638 84.3441 11.5472 84.0331 11.3917 83.8388C11.2361 83.6445 11.0806 83.4501 10.9251 83.3724C10.7696 83.2558 10.5752 83.178 10.4197 83.1392C10.2642 83.1003 10.0698 83.1003 9.95312 83.0614C9.75872 83.0614 9.64209 83.0226 9.52545 82.9837C9.44769 82.9448 9.36993 82.8282 9.33105 82.6339L8.70898 80.535C8.6701 80.4573 8.70898 80.3407 8.74786 80.2629C8.78674 80.1852 8.8645 80.1074 8.98114 80.0686C9.52545 79.9131 10.0698 79.9131 10.6529 80.0297C11.1973 80.1463 11.7416 80.3795 12.2081 80.7293C12.6747 81.0792 13.1412 81.5067 13.53 82.0509C13.9188 82.595 14.2298 83.2169 14.4242 83.9165C14.6575 84.6939 14.7353 85.3935 14.6964 86.0932C14.6575 86.7539 14.502 87.3758 14.2298 87.92C13.9577 88.4641 13.6078 88.9305 13.1412 89.3192C12.6747 89.7079 12.1692 90.0189 11.5861 90.2132C11.1584 90.3687 10.6918 90.5241 10.1864 90.6796C9.68097 90.8351 9.21441 90.9517 8.74786 91.0683C8.16467 91.2238 7.5426 91.2626 6.95941 91.1849C6.37622 91.1072 5.79303 90.9128 5.2876 90.6019C4.78217 90.2909 4.31561 89.8634 3.88794 89.3192C3.46027 88.7751 3.14923 88.1143 2.91596 87.3369C2.72156 86.6373 2.60492 85.9377 2.6438 85.2769C2.68268 84.6162 2.79932 83.9943 3.0326 83.4501C3.26587 82.906 3.57691 82.4395 3.9657 82.012C4.35449 81.6233 4.85993 81.3124 5.40424 81.1569C5.48199 81.118 5.59863 81.1569 5.67639 81.1958C5.75415 81.2346 5.83191 81.3124 5.87079 81.429L6.49286 83.5279C6.53174 83.7222 6.53174 83.8388 6.49286 83.9165C6.45398 83.9943 6.33734 84.1109 6.18182 84.1886C6.06519 84.2664 5.94855 84.383 5.83191 84.4996C5.71527 84.6162 5.59863 84.7716 5.52087 84.966C5.44312 85.1603 5.40424 85.3935 5.36536 85.6267C5.36536 85.8988 5.40424 86.2098 5.52087 86.5596C5.63751 86.9094 5.75415 87.2203 5.94855 87.4147C6.14294 87.609 6.33734 87.8034 6.53174 87.92C6.76501 88.0366 6.99829 88.0754 7.23157 88.1143C7.27045 88.192 7.50372 88.1532 7.77588 88.1143Z" fill="white"/>
<path d="M0 69.4576C0 69.341 0.0388794 69.2244 0.116638 69.1467C0.194397 69.0689 0.311035 68.9912 0.427673 68.9912L11.1973 68.0583C11.3139 68.0583 11.4305 68.0972 11.5083 68.1749C11.5861 68.2527 11.6638 68.3693 11.6638 68.4859L11.8582 70.6625C11.8582 70.7791 11.8193 70.8957 11.7416 70.9735C11.6638 71.0512 11.5472 71.1289 11.4305 71.1289L7.3482 71.4788L7.65923 75.1712L11.7416 74.8214C11.8582 74.8214 11.9748 74.8603 12.0526 74.938C12.1304 75.0158 12.2081 75.1324 12.2081 75.249L12.4025 77.4256C12.4025 77.5422 12.3636 77.6588 12.2859 77.7366C12.2081 77.8143 12.0915 77.892 11.9748 77.892L1.20526 78.8249C1.08862 78.8249 0.971984 78.786 0.894225 78.7083C0.816467 78.6305 0.777587 78.5528 0.777587 78.4362L0.58319 76.2596C0.58319 76.143 0.62207 76.0264 0.699829 75.9486C0.777587 75.8709 0.894225 75.7931 1.01086 75.7931L5.01544 75.4433L4.7044 71.7508L0.699829 72.1007C0.58319 72.1007 0.466552 72.0618 0.388794 71.984C0.311035 71.9063 0.233276 71.7897 0.233276 71.6731L0 69.4576Z" fill="white"/>
<path d="M12.4414 59.7794C12.3636 60.207 12.0915 60.479 11.6249 60.5568L0.738708 62.1892C0.660949 62.1892 0.62207 62.1892 0.583191 62.1892C0.544311 62.1892 0.544311 62.1892 0.505432 62.1892C0.388794 62.1892 0.311035 62.1115 0.272156 62.0338C0.233276 61.956 0.194397 61.8783 0.194397 61.7617L0.544311 59.7017C0.583191 59.4685 0.660949 59.3519 0.777587 59.2741C0.894226 59.1964 0.971984 59.1575 1.08862 59.1575L8.70898 58.0692L1.82733 54.5711C1.74957 54.5322 1.67181 54.4545 1.59405 54.3378C1.55517 54.1824 1.55517 54.0269 1.59405 53.7937L1.94397 51.7337C1.94397 51.6171 2.02173 51.5393 2.09949 51.5005C2.17724 51.4227 2.255 51.4227 2.37164 51.4227C2.41052 51.4227 2.41052 51.4227 2.4494 51.4227C2.48828 51.4227 2.52716 51.4616 2.60492 51.5005L12.3248 56.5922C12.7524 56.8254 12.9079 57.1364 12.8302 57.5639L12.4414 59.7794Z" fill="white"/>
<path d="M14.2298 51.8503C14.191 51.9669 14.1132 52.0446 13.9966 52.1223C13.8799 52.1612 13.7633 52.2001 13.6466 52.1612L3.3825 48.8574C3.26586 48.8185 3.1881 48.7408 3.11034 48.6242C3.07146 48.5076 3.03258 48.391 3.07146 48.2744L3.73241 46.1755C3.77129 46.0589 3.84905 45.9812 3.96569 45.9034C4.08233 45.8645 4.19896 45.8257 4.3156 45.8645L14.5798 49.1684C14.6964 49.2072 14.7742 49.285 14.8519 49.4016C14.8908 49.5182 14.9297 49.6348 14.8908 49.7514L14.2298 51.8503Z" fill="white"/>
<path d="M7.23153 37.8965C7.58144 37.1969 7.97024 36.6139 8.47567 36.1475C8.9811 35.6811 9.48653 35.3312 10.0697 35.098C10.6529 34.8648 11.2361 34.7482 11.8971 34.7871C12.5191 34.826 13.1412 34.9426 13.7633 35.2146C13.9965 35.2924 14.1909 35.409 14.3465 35.4867C14.502 35.5645 14.6964 35.6422 14.8519 35.7199C15.0074 35.7977 15.1629 35.8754 15.3573 35.9531C15.5128 36.0309 15.7072 36.1475 15.9016 36.2252C16.5237 36.575 16.9902 36.9637 17.4179 37.469C17.8067 37.9354 18.0789 38.4796 18.2733 39.0626C18.4288 39.6456 18.5065 40.2675 18.4288 40.9283C18.351 41.589 18.1566 42.2498 17.8067 42.9494L15.785 46.9917C15.7461 47.1083 15.6295 47.1861 15.5128 47.2249C15.3962 47.2638 15.2796 47.2638 15.1629 47.1861L5.44308 42.4441C5.32644 42.4053 5.24868 42.2887 5.2098 42.1721C5.17092 42.0555 5.17092 41.9388 5.24868 41.8222L7.23153 37.8965ZM12.2858 37.9743C11.1195 37.469 10.1864 37.8577 9.56429 39.1403L8.7867 40.6562L14.4631 43.4936L15.2407 41.9C15.8627 40.6562 15.6295 39.7234 14.502 39.1015C14.3076 38.9849 14.1132 38.8683 13.9188 38.7905C13.7244 38.7128 13.5689 38.5962 13.3745 38.5184C13.219 38.4407 13.0246 38.363 12.8302 38.2464C12.6358 38.1298 12.5191 38.052 12.2858 37.9743Z" fill="white"/>
<path d="M23.8331 28.9568C23.9108 28.8402 23.9886 28.8014 24.1441 28.8014C24.2607 28.8014 24.3774 28.8014 24.494 28.8791L25.8937 29.9674C26.0103 30.0452 26.0492 30.1229 26.0492 30.2784C26.0492 30.395 26.0492 30.5116 25.9714 30.6282L21.1504 36.886C21.0726 37.0026 20.9949 37.0414 20.8393 37.0414C20.7227 37.0414 20.6061 37.0414 20.4894 36.9637L11.936 30.395C11.8193 30.3172 11.7805 30.2395 11.7805 30.084C11.7805 29.9674 11.7805 29.8508 11.8582 29.7342L16.6015 23.5542C16.6793 23.4375 16.757 23.3987 16.9125 23.3987C17.0292 23.3987 17.1458 23.3987 17.2624 23.4764L18.6621 24.5647C18.7787 24.6425 18.8176 24.7202 18.8176 24.8757C18.8176 24.9923 18.8176 25.1089 18.7399 25.2255L15.5906 29.3067L17.0292 30.395L19.9451 26.5859C20.0229 26.4693 20.1006 26.4304 20.2562 26.4304C20.3728 26.4304 20.4894 26.4304 20.6061 26.5081L22.0057 27.5965C22.1224 27.6742 22.1612 27.7519 22.1612 27.9074C22.1612 28.024 22.1612 28.1406 22.0835 28.2572L19.1675 32.0663L20.645 33.1935L23.8331 28.9568Z" fill="white"/>
<path d="M21.928 24.0594C21.5392 23.5541 21.267 23.0489 21.0726 22.4658C20.8782 21.8828 20.8394 21.2998 20.8782 20.7168C20.956 20.1337 21.1115 19.5118 21.4225 18.9288C21.7336 18.3458 22.2001 17.7628 22.8222 17.2186C23.4443 16.6745 24.0663 16.2858 24.6884 16.0526C25.3105 15.8194 25.9326 15.7028 26.5546 15.7028C27.1378 15.7028 27.721 15.8582 28.2653 16.0914C28.8096 16.3635 29.3151 16.6745 29.7427 17.1409C30.0926 17.4907 30.4037 17.8405 30.7536 18.2292C31.1035 18.6179 31.4145 19.0066 31.7256 19.3564C32.1144 19.8617 32.3865 20.3669 32.5809 20.95C32.7753 21.533 32.8531 22.116 32.7753 22.699C32.7364 23.2821 32.542 23.904 32.231 24.487C31.92 25.07 31.4534 25.653 30.8314 26.1972C30.2093 26.7413 29.5872 27.13 28.9651 27.4021C28.3431 27.6353 27.721 27.7519 27.1378 27.7519C26.5157 27.7519 25.9714 27.5964 25.4271 27.3632C24.8828 27.13 24.3774 26.7802 23.9497 26.3138C23.6387 26.0028 23.2888 25.6142 22.9388 25.2255C22.55 24.7979 22.239 24.4092 21.928 24.0594ZM29.3539 21.3387C29.2373 21.1832 29.0818 20.9888 28.9263 20.8334C28.7707 20.639 28.6152 20.4447 28.4208 20.2503C28.2653 20.056 28.0709 19.8617 27.9154 19.7062C27.7599 19.5507 27.6044 19.3952 27.4488 19.2398C27.2544 19.0454 27.0212 18.89 26.7879 18.7733C26.5546 18.6567 26.3213 18.6179 26.0881 18.579C25.8548 18.579 25.5826 18.6179 25.3494 18.6956C25.0772 18.7733 24.8439 18.9677 24.5718 19.2009C24.2996 19.4341 24.1052 19.6673 23.9886 19.9005C23.8719 20.1337 23.7942 20.4058 23.7942 20.639C23.7942 20.8722 23.8331 21.1054 23.9108 21.3775C23.9886 21.6107 24.1052 21.8439 24.2996 22.0772C24.4163 22.2326 24.5329 22.3881 24.6884 22.5824C24.8439 22.7768 24.9994 22.9711 25.1938 23.1266C25.3494 23.3209 25.5438 23.5153 25.6993 23.6707C25.8548 23.8651 26.0103 24.0206 26.1658 24.1372C26.5546 24.5259 27.0212 24.7591 27.5266 24.7979C28.032 24.8368 28.5375 24.6425 29.0429 24.176C29.5483 23.7096 29.8205 23.2432 29.8205 22.7379C29.8205 22.2715 29.665 21.7662 29.3539 21.3387Z" fill="white"/>
</svg>
