<svg width="1440" height="393" viewBox="0 0 1440 393" fill="none" xmlns="http://www.w3.org/2000/svg">
<path d="M-219 36.5877C-219 36.5877 -119.255 -1.14715 -47.5628 19.6243C24.1291 40.3959 27.9388 153.254 27.9388 153.254C27.9388 153.254 79.5432 111.711 123.874 122.097C153.659 129.021 147.772 157.409 142.577 176.103C152.967 186.489 254.79 217.992 275.57 224.916C296.351 231.84 298.429 243.957 308.126 254.342C317.823 264.728 373.238 277.537 410.296 276.845C447.354 276.152 497.573 285.846 545.367 286.884C593.162 287.923 657.581 290 657.581 290C657.581 290 510.041 295.539 453.242 290C396.442 284.461 346.916 285.846 273.146 279.961C199.376 274.075 55.6458 278.576 16.856 266.805C16.856 266.805 -54.4896 284.115 -126.181 279.961C-198.22 276.152 -219 271.998 -219 271.998V36.5877Z" fill="url(#paint0_linear_15_1757)"/>
<path d="M-219 127.29C-219 127.29 -166.357 119.674 -111.289 89.901C-56.5676 60.1285 -40.6361 39.7032 -40.6361 39.7032C-40.6361 39.7032 -32.6703 45.2423 -15.3534 52.1662C1.96349 59.09 4.38785 63.5905 4.38785 63.5905C4.38785 63.5905 -9.812 24.1246 -65.226 13.0465C-65.226 13.0465 -130.338 1.96834 -219 36.2413V127.29Z" fill="url(#paint1_linear_15_1757)"/>
<path d="M27.9389 152.908L10.9683 167.794L-20.8948 176.103C-20.8948 176.103 29.3242 184.411 61.1873 176.103C93.0503 167.794 111.406 136.291 111.406 136.291C111.406 136.291 123.874 121.058 139.113 130.059C139.113 129.713 93.0503 102.71 27.9389 152.908Z" fill="url(#paint2_linear_15_1757)"/>
<path d="M142.577 175.757L124.913 184.758L112.792 190.297C112.792 190.297 149.85 191.335 180.674 200.682C211.498 209.683 213.229 217.646 236.78 225.262C260.331 232.532 286.999 230.109 286.999 230.109C286.999 230.109 256.522 216.261 206.995 202.413C157.469 188.566 142.577 175.757 142.577 175.757Z" fill="url(#paint3_linear_15_1757)"/>
<path d="M-125.142 240.841C-125.142 240.841 -101.591 218.684 -76.6552 213.838C-51.7189 208.645 -4.61692 221.108 8.19757 240.841L16.856 255.727C16.856 255.727 -8.77298 256.419 -39.597 252.265C-70.4211 248.111 -74.9235 238.417 -87.3916 230.801C-100.206 223.185 -125.142 240.841 -125.142 240.841Z" fill="url(#paint4_linear_15_1757)"/>
<path d="M139.113 267.151C139.113 267.151 162.664 256.765 187.254 255.727C216.346 254.342 238.512 271.305 238.512 271.305C238.512 271.305 226.737 252.957 173.747 248.803C120.411 244.649 100.67 267.151 100.67 267.151C100.67 267.151 117.987 274.767 139.113 267.151Z" fill="url(#paint5_linear_15_1757)"/>
<path d="M2040.85 53.551C2040.85 53.551 1933.14 -16.726 1845.87 4.04554C1758.59 24.4709 1761.01 115.173 1761.01 115.173C1761.01 115.173 1712.18 108.249 1691.75 115.173C1671.31 122.097 1650.18 170.564 1651.92 175.757C1651.92 175.757 1570.87 208.299 1550.09 208.299C1528.97 208.299 1478.05 205.183 1455.2 216.261C1432.34 227.339 1398.74 238.764 1364.11 240.841C1329.48 242.918 1260.55 265.766 1208.95 267.151C1208.95 267.151 1385.58 255.035 1404.98 254.342C1424.37 253.304 1452.77 274.075 1502.99 276.845C1553.21 279.614 1606.55 279.268 1651.92 280.307C1696.94 281.345 1792.18 270.267 1892.27 267.151C1992.37 264.036 2040.85 242.572 2040.85 242.572V53.551Z" fill="url(#paint6_linear_15_1757)"/>
<path d="M1421.26 229.763C1421.26 229.763 1483.94 229.07 1493.99 229.763C1504.03 230.455 1516.15 221.454 1555.29 216.261C1594.42 211.068 1679.97 216.261 1679.97 216.261C1679.97 216.261 1600.31 209.683 1586.8 208.299C1573.64 206.914 1554.94 207.952 1554.94 207.952C1554.94 207.952 1514.77 204.491 1481.17 208.299C1447.58 212.107 1421.26 229.763 1421.26 229.763Z" fill="url(#paint7_linear_15_1757)"/>
<path d="M660.698 149.1C660.698 149.1 675.244 77.4383 718.882 76.3997C762.175 75.3611 788.15 122.443 788.15 122.443C788.15 122.443 825.554 108.942 838.369 100.633C851.183 92.3245 887.549 30.7024 903.134 24.8171C926.685 15.8161 1017.77 -3.22442 1072.84 36.2414L1067.64 70.8606C1067.64 70.8606 1149.38 63.9368 1216.92 67.3987C1216.92 67.3987 1270.25 75.0149 1269.91 132.137L1343.33 130.752C1343.33 130.752 1253.97 138.368 1197.17 149.446C1197.17 149.446 1114.05 173.68 930.495 190.297C791.267 203.106 723.731 182.334 656.195 190.643C578.269 198.259 531.167 193.759 531.167 193.759C531.167 193.759 595.933 190.643 607.362 185.796C607.362 185.796 620.176 165.717 627.103 162.948C634.376 160.178 660.698 149.1 660.698 149.1Z" fill="url(#paint8_linear_15_1757)"/>
<path d="M1067.99 70.8606C1067.99 70.8606 1058.64 90.2474 1047.9 96.1327C1047.9 96.1327 1114.75 87.1317 1128.6 84.3621C1142.45 81.5926 1141.41 75.7073 1148.69 71.2068C1155.96 66.7063 1199.6 67.0525 1199.6 67.0525C1199.6 67.0525 1111.98 63.5906 1067.99 70.8606Z" fill="url(#paint9_linear_15_1757)"/>
<path d="M788.15 122.443C788.15 122.443 846.681 111.019 854.993 106.518C854.993 106.518 901.403 106.172 905.559 103.056C909.715 100.287 935.69 48.0119 939.153 35.2028C942.617 22.7399 898.285 27.2404 898.285 27.2404C898.285 27.2404 870.578 57.3591 842.179 96.4788C842.179 97.1712 799.233 119.327 788.15 122.443Z" fill="url(#paint10_linear_15_1757)"/>
<path d="M623.64 165.371C623.64 165.371 665.2 167.448 712.302 159.832C712.302 159.832 677.322 153.947 660.698 149.1C660.698 149.1 628.488 160.524 623.64 165.371Z" fill="url(#paint11_linear_15_1757)"/>
<path d="M662.43 142.522C662.43 142.522 693.946 138.368 711.609 125.559C711.609 125.559 723.385 91.9783 732.39 86.4392C741.741 80.554 756.98 88.8626 756.98 88.8626C756.98 88.8626 732.736 67.7449 702.605 80.554C672.82 93.3631 662.43 142.522 662.43 142.522Z" fill="url(#paint12_linear_15_1757)"/>
<path d="M885.817 164.679C885.817 164.679 902.095 139.753 929.456 132.829C938.807 130.406 1014.66 132.829 1014.66 132.829C1014.66 132.829 973.441 136.291 967.899 136.637C962.358 136.983 944.348 165.371 944.348 165.371C944.348 165.371 911.446 178.526 885.817 164.679Z" fill="url(#paint13_linear_15_1757)"/>
<path d="M1370 126.598L1416.41 112.058C1416.41 112.058 1431.3 95.4403 1444.46 88.8627C1457.97 82.285 1483.94 79.8617 1494.33 81.2465C1504.72 82.285 1523.43 95.7865 1523.43 95.7865C1523.43 95.7865 1544.9 86.0931 1553.56 85.4008C1562.21 84.7084 1587.84 97.1713 1587.84 97.1713L1632.87 96.1327C1632.87 95.4403 1516.15 111.019 1370 126.598Z" fill="url(#paint14_linear_15_1757)"/>
<path d="M1416.41 112.057C1416.41 112.057 1446.88 110.326 1455.54 108.249C1455.54 108.249 1457.97 95.7864 1461.43 91.2859C1465.24 87.1316 1482.9 80.9002 1482.9 80.9002H1494.68C1494.68 80.9002 1463.51 79.1692 1446.54 88.1702C1428.87 96.825 1416.41 112.057 1416.41 112.057Z" fill="url(#paint15_linear_15_1757)"/>
<path d="M297.419 108.055C297.419 108.055 407.554 102.516 460.544 94.5538C513.534 86.9376 611.894 72.7437 611.894 72.7437L565.484 73.7823C565.484 73.7823 539.855 63.0503 517.343 63.7427C494.485 64.7813 484.441 76.898 484.441 76.898C484.441 76.898 460.198 44.356 439.071 40.2017C417.944 36.0474 376.038 55.0879 371.189 64.4351C366.34 73.4361 360.106 87.2838 360.106 87.2838C360.106 87.2838 343.482 80.0137 329.628 79.3213C316.121 78.2828 290.838 86.5914 290.146 89.3609C289.453 92.4766 289.799 97.6695 289.799 97.6695L233 108.748C233 108.401 272.483 110.479 297.419 108.055Z" fill="url(#paint16_linear_15_1757)"/>
<path d="M359.76 87.2836C359.76 87.2836 392.662 89.707 406.515 87.2836C406.515 87.2836 406.861 60.9731 412.403 55.434C417.944 49.8949 435.954 41.2401 445.305 42.2787C445.305 42.2787 439.417 37.432 420.715 39.5092C402.013 41.9325 375.691 55.434 371.535 60.6269C367.379 65.8198 359.76 87.2836 359.76 87.2836Z" fill="url(#paint17_linear_15_1757)"/>
<path d="M290.146 89.3608C290.146 89.3608 295.341 91.438 304.346 92.1304C313.697 93.1689 341.75 84.168 341.75 84.168L343.828 81.7446C343.828 81.7446 333.438 77.2441 320.97 79.6675C308.502 81.7446 290.492 85.8989 290.146 89.3608Z" fill="url(#paint18_linear_15_1757)"/>
<path d="M484.095 76.8978L468.51 87.976C468.51 87.976 505.221 80.7059 507.299 80.0135C509.378 79.3212 521.499 69.6278 524.616 68.5892C527.733 67.5506 550.245 68.5892 550.245 68.5892C550.245 68.5892 528.426 60.6268 509.377 63.3963C490.329 66.1659 484.095 76.8978 484.095 76.8978Z" fill="url(#paint19_linear_15_1757)"/>
<defs>
<linearGradient id="paint0_linear_15_1757" x1="219.345" y1="292.447" x2="219.345" y2="13.1679" gradientUnits="userSpaceOnUse">
<stop stop-color="#BED6FF"/>
<stop offset="0.4836" stop-color="#C5E1FF"/>
<stop offset="1" stop-color="#C7E5FF"/>
</linearGradient>
<linearGradient id="paint1_linear_15_1757" x1="-107.304" y1="127.369" x2="-107.304" y2="11.4883" gradientUnits="userSpaceOnUse">
<stop stop-color="#D6E5FF"/>
<stop offset="0.4226" stop-color="#DDEDFF"/>
<stop offset="1" stop-color="#E0F1FF"/>
</linearGradient>
<linearGradient id="paint2_linear_15_1757" x1="58.8817" y1="179.523" x2="58.8817" y2="122.376" gradientUnits="userSpaceOnUse">
<stop stop-color="#D6E5FF"/>
<stop offset="0.4226" stop-color="#DDEDFF"/>
<stop offset="1" stop-color="#E0F1FF"/>
</linearGradient>
<linearGradient id="paint3_linear_15_1757" x1="199.996" y1="230.571" x2="199.996" y2="175.877" gradientUnits="userSpaceOnUse">
<stop stop-color="#D6E5FF"/>
<stop offset="0.4226" stop-color="#DDEDFF"/>
<stop offset="1" stop-color="#E0F1FF"/>
</linearGradient>
<linearGradient id="paint4_linear_15_1757" x1="-54.1734" y1="255.626" x2="-54.1734" y2="212.446" gradientUnits="userSpaceOnUse">
<stop stop-color="#D6E5FF"/>
<stop offset="0.4226" stop-color="#DDEDFF"/>
<stop offset="1" stop-color="#E0F1FF"/>
</linearGradient>
<linearGradient id="paint5_linear_15_1757" x1="169.602" y1="271.196" x2="169.602" y2="248.171" gradientUnits="userSpaceOnUse">
<stop stop-color="#D6E5FF"/>
<stop offset="0.4226" stop-color="#DDEDFF"/>
<stop offset="1" stop-color="#E0F1FF"/>
</linearGradient>
<linearGradient id="paint6_linear_15_1757" x1="1624.88" y1="280.255" x2="1624.88" y2="0.124573" gradientUnits="userSpaceOnUse">
<stop stop-color="#BED6FF"/>
<stop offset="0.4836" stop-color="#C5E1FF"/>
<stop offset="1" stop-color="#C7E5FF"/>
</linearGradient>
<linearGradient id="paint7_linear_15_1757" x1="1550.68" y1="229.727" x2="1550.68" y2="206.463" gradientUnits="userSpaceOnUse">
<stop stop-color="#D6E5FF"/>
<stop offset="0.4226" stop-color="#DDEDFF"/>
<stop offset="1" stop-color="#E0F1FF"/>
</linearGradient>
<linearGradient id="paint8_linear_15_1757" x1="930.435" y1="232.829" x2="952.493" y2="8.04212" gradientUnits="userSpaceOnUse">
<stop stop-color="#BED6FF"/>
<stop offset="0.4836" stop-color="#C5E1FF"/>
<stop offset="1" stop-color="#C7E5FF"/>
</linearGradient>
<linearGradient id="paint9_linear_15_1757" x1="1121.34" y1="103.085" x2="1125.62" y2="59.4283" gradientUnits="userSpaceOnUse">
<stop stop-color="#D6E5FF"/>
<stop offset="0.4226" stop-color="#DDEDFF"/>
<stop offset="1" stop-color="#E0F1FF"/>
</linearGradient>
<linearGradient id="paint10_linear_15_1757" x1="858.622" y1="129.319" x2="869.18" y2="21.7296" gradientUnits="userSpaceOnUse">
<stop stop-color="#D6E5FF"/>
<stop offset="0.4226" stop-color="#DDEDFF"/>
<stop offset="1" stop-color="#E0F1FF"/>
</linearGradient>
<linearGradient id="paint11_linear_15_1757" x1="667.397" y1="169.738" x2="669.348" y2="149.858" gradientUnits="userSpaceOnUse">
<stop stop-color="#D6E5FF"/>
<stop offset="0.4226" stop-color="#DDEDFF"/>
<stop offset="1" stop-color="#E0F1FF"/>
</linearGradient>
<linearGradient id="paint12_linear_15_1757" x1="706.655" y1="146.918" x2="713.697" y2="75.1596" gradientUnits="userSpaceOnUse">
<stop stop-color="#D6E5FF"/>
<stop offset="0.4226" stop-color="#DDEDFF"/>
<stop offset="1" stop-color="#E0F1FF"/>
</linearGradient>
<linearGradient id="paint13_linear_15_1757" x1="947.675" y1="174.675" x2="952.401" y2="126.518" gradientUnits="userSpaceOnUse">
<stop stop-color="#D6E5FF"/>
<stop offset="0.4226" stop-color="#DDEDFF"/>
<stop offset="1" stop-color="#E0F1FF"/>
</linearGradient>
<linearGradient id="paint14_linear_15_1757" x1="1501.48" y1="126.571" x2="1501.48" y2="80.6687" gradientUnits="userSpaceOnUse">
<stop stop-color="#BED6FF"/>
<stop offset="0.4836" stop-color="#C5E1FF"/>
<stop offset="1" stop-color="#C7E5FF"/>
</linearGradient>
<linearGradient id="paint15_linear_15_1757" x1="1455.32" y1="111.96" x2="1455.32" y2="80.8102" gradientUnits="userSpaceOnUse">
<stop stop-color="#D6E5FF"/>
<stop offset="0.4226" stop-color="#DDEDFF"/>
<stop offset="1" stop-color="#E0F1FF"/>
</linearGradient>
<linearGradient id="paint16_linear_15_1757" x1="420.145" y1="122.367" x2="426.357" y2="39.0661" gradientUnits="userSpaceOnUse">
<stop stop-color="#BED6FF"/>
<stop offset="0.4836" stop-color="#C5E1FF"/>
<stop offset="1" stop-color="#C7E5FF"/>
</linearGradient>
<linearGradient id="paint17_linear_15_1757" x1="402.534" y1="88.2038" x2="402.534" y2="39.0138" gradientUnits="userSpaceOnUse">
<stop stop-color="#D6E5FF"/>
<stop offset="0.4226" stop-color="#DDEDFF"/>
<stop offset="1" stop-color="#E0F1FF"/>
</linearGradient>
<linearGradient id="paint18_linear_15_1757" x1="316.788" y1="92.1747" x2="316.788" y2="78.8276" gradientUnits="userSpaceOnUse">
<stop stop-color="#D6E5FF"/>
<stop offset="0.4226" stop-color="#DDEDFF"/>
<stop offset="1" stop-color="#E0F1FF"/>
</linearGradient>
<linearGradient id="paint19_linear_15_1757" x1="509.558" y1="88.2037" x2="509.558" y2="62.9743" gradientUnits="userSpaceOnUse">
<stop stop-color="#D6E5FF"/>
<stop offset="0.4226" stop-color="#DDEDFF"/>
<stop offset="1" stop-color="#E0F1FF"/>
</linearGradient>
</defs>
</svg>
