<svg width="1440" height="1037" viewBox="0 0 1440 1037" fill="none" xmlns="http://www.w3.org/2000/svg">
<g clip-path="url(#clip0_51_9)">
<path d="M969.53 881.854C969.53 881.854 984.076 810.192 1027.71 809.154C1071.01 808.115 1096.98 855.197 1096.98 855.197C1096.98 855.197 1134.39 841.696 1147.2 833.387C1160.02 825.079 1196.38 763.457 1211.97 757.571C1235.52 748.57 1326.6 729.53 1381.67 768.996L1376.48 803.615C1376.48 803.615 1458.21 796.691 1525.75 800.153C1525.75 800.153 1579.08 807.769 1578.74 864.891L1652.16 863.506C1652.16 863.506 1562.81 871.122 1506.01 882.2C1506.01 882.2 1422.89 906.434 1239.33 923.051C1100.1 935.86 1032.56 915.089 965.028 923.397C887.102 931.013 840 926.513 840 926.513C840 926.513 904.765 923.397 916.194 918.55C916.194 918.55 929.009 898.471 935.936 895.702C943.209 892.932 969.53 881.854 969.53 881.854Z" fill="url(#paint0_linear_51_9)"/>
<path d="M1376.82 803.615C1376.82 803.615 1367.47 823.002 1356.74 828.887C1356.74 828.887 1423.58 819.886 1437.43 817.116C1451.29 814.347 1450.25 808.461 1457.52 803.961C1464.79 799.46 1508.43 799.807 1508.43 799.807C1508.43 799.807 1420.81 796.345 1376.82 803.615Z" fill="url(#paint1_linear_51_9)"/>
<path d="M1096.98 855.197C1096.98 855.197 1155.51 843.773 1163.83 839.273C1163.83 839.273 1210.24 838.926 1214.39 835.811C1218.55 833.041 1244.52 780.766 1247.99 767.957C1251.45 755.494 1207.12 759.995 1207.12 759.995C1207.12 759.995 1179.41 790.113 1151.01 829.233C1151.01 829.925 1108.07 852.082 1096.98 855.197Z" fill="url(#paint2_linear_51_9)"/>
<path d="M932.472 898.125C932.472 898.125 974.033 900.202 1021.13 892.586C1021.13 892.586 986.155 886.701 969.53 881.854C969.53 881.854 937.321 893.278 932.472 898.125Z" fill="url(#paint3_linear_51_9)"/>
<path d="M971.262 875.276C971.262 875.276 1002.78 871.122 1020.44 858.313C1020.44 858.313 1032.22 824.732 1041.22 819.193C1050.57 813.308 1065.81 821.617 1065.81 821.617C1065.81 821.617 1041.57 800.499 1011.44 813.308C981.652 826.117 971.262 875.276 971.262 875.276Z" fill="url(#paint4_linear_51_9)"/>
<path d="M1194.65 897.433C1194.65 897.433 1210.93 872.507 1238.29 865.583C1247.64 863.16 1323.49 865.583 1323.49 865.583C1323.49 865.583 1282.27 869.045 1276.73 869.391C1271.19 869.737 1253.18 898.125 1253.18 898.125C1253.18 898.125 1220.28 911.28 1194.65 897.433Z" fill="url(#paint5_linear_51_9)"/>
<path d="M1865.95 603.071C1865.95 603.071 1780.4 575.376 1744.38 592.685C1744.38 592.685 1752.69 543.526 1702.48 548.373C1702.48 548.373 1637.02 569.49 1613.12 597.532C1613.12 597.532 1603.77 586.108 1596.84 586.454C1589.92 586.8 1587.49 593.031 1587.49 593.031C1587.49 593.031 1474.59 575.722 1382.46 605.494L1905.78 603.071C1905.43 602.725 1889.84 596.147 1865.95 603.071Z" fill="url(#paint6_linear_51_9)"/>
<path d="M-352 51.5877C-352 51.5877 -252.255 13.8528 -180.563 34.6243C-108.871 55.3958 -105.061 168.254 -105.061 168.254C-105.061 168.254 -53.4569 126.711 -9.12563 137.097C20.6594 144.021 14.7717 172.409 9.57661 191.103C19.9667 201.489 121.79 232.992 142.57 239.916C163.351 246.84 165.429 258.957 175.126 269.342C184.823 279.728 240.238 292.537 277.296 291.845C314.354 291.152 364.573 300.846 412.367 301.884C460.162 302.923 524.581 305 524.581 305C524.581 305 377.041 310.539 320.242 305C263.442 299.461 213.916 300.846 140.146 294.96C66.376 289.075 -77.3542 293.576 -116.144 281.805C-116.144 281.805 -187.49 299.115 -259.181 294.96C-331.22 291.152 -352 286.998 -352 286.998V51.5877Z" fill="url(#paint7_linear_51_9)"/>
<path d="M-105.061 167.908L-122.032 182.794L-153.895 191.103C-153.895 191.103 -103.676 199.411 -71.8128 191.103C-39.9497 182.794 -21.5938 151.291 -21.5938 151.291C-21.5938 151.291 -9.12563 136.058 6.11324 145.059C6.11324 144.713 -39.9497 117.71 -105.061 167.908Z" fill="url(#paint8_linear_51_9)"/>
<path d="M9.57655 190.757L-8.08667 199.758L-20.2085 205.297C-20.2085 205.297 16.8496 206.335 47.6737 215.682C78.4978 224.683 80.2295 232.646 103.78 240.262C127.331 247.532 153.999 245.109 153.999 245.109C153.999 245.109 123.522 231.261 73.9954 217.413C24.4691 203.566 9.57655 190.757 9.57655 190.757Z" fill="url(#paint9_linear_51_9)"/>
<path d="M6.11315 282.151C6.11315 282.151 29.6641 271.765 54.2541 270.727C83.3465 269.342 105.512 286.305 105.512 286.305C105.512 286.305 93.7366 267.957 40.7469 263.803C-12.5891 259.649 -32.3303 282.151 -32.3303 282.151C-32.3303 282.151 -15.0134 289.767 6.11315 282.151Z" fill="url(#paint10_linear_51_9)"/>
<path d="M1907.85 68.5509C1907.85 68.5509 1800.14 -1.72604 1712.87 19.0455C1625.59 39.4708 1628.01 130.173 1628.01 130.173C1628.01 130.173 1579.18 123.249 1558.75 130.173C1538.31 137.097 1517.18 185.564 1518.92 190.757C1518.92 190.757 1437.87 223.299 1417.09 223.299C1395.97 223.299 1345.05 220.183 1322.2 231.261C1299.34 242.339 1265.74 253.763 1231.11 255.841C1196.48 257.918 1127.55 280.766 1075.95 282.151C1075.95 282.151 1252.58 270.034 1271.98 269.342C1291.37 268.304 1319.77 289.075 1369.99 291.845C1420.21 294.614 1473.55 294.268 1518.92 295.306C1563.94 296.345 1659.18 285.267 1759.27 282.151C1859.37 279.035 1907.85 257.572 1907.85 257.572V68.5509Z" fill="url(#paint11_linear_51_9)"/>
<path d="M1288.26 244.762C1288.26 244.762 1350.94 244.07 1360.99 244.762C1371.03 245.455 1383.15 236.454 1422.29 231.261C1461.42 226.068 1546.97 231.261 1546.97 231.261C1546.97 231.261 1467.31 224.683 1453.8 223.299C1440.64 221.914 1421.94 222.952 1421.94 222.952C1421.94 222.952 1381.77 219.49 1348.17 223.299C1314.58 227.107 1288.26 244.762 1288.26 244.762Z" fill="url(#paint12_linear_51_9)"/>
<path d="M527.698 164.1C527.698 164.1 542.244 92.4381 585.882 91.3995C629.175 90.361 655.15 137.443 655.15 137.443C655.15 137.443 692.554 123.942 705.369 115.633C718.183 107.324 754.549 45.7022 770.134 39.817C793.685 30.816 884.772 11.7754 939.84 51.2413L934.645 85.8605C934.645 85.8605 1016.38 78.9366 1083.92 82.3985C1083.92 82.3985 1137.25 90.0148 1136.91 147.136L1210.33 145.752C1210.33 145.752 1120.97 153.368 1064.17 164.446C1064.17 164.446 981.054 188.679 797.495 205.297C658.267 218.106 590.731 197.334 523.195 205.643C445.269 213.259 398.167 208.759 398.167 208.759C398.167 208.759 462.933 205.643 474.362 200.796C474.362 200.796 487.176 180.717 494.103 177.947C501.376 175.178 527.698 164.1 527.698 164.1Z" fill="url(#paint13_linear_51_9)"/>
<path d="M934.991 85.8605C934.991 85.8605 925.64 105.247 914.903 111.132C914.903 111.132 981.747 102.131 995.6 99.3619C1009.45 96.5924 1008.41 90.7072 1015.69 86.2067C1022.96 81.7062 1066.6 82.0524 1066.6 82.0524C1066.6 82.0524 978.976 78.5904 934.991 85.8605Z" fill="url(#paint14_linear_51_9)"/>
<path d="M655.15 137.443C655.15 137.443 713.681 126.019 721.993 121.518C721.993 121.518 768.403 121.172 772.559 118.056C776.715 115.287 802.69 63.0118 806.153 50.2027C809.617 37.7398 765.285 42.2403 765.285 42.2403C765.285 42.2403 737.578 72.359 709.179 111.479C709.179 112.171 666.233 134.327 655.15 137.443Z" fill="url(#paint15_linear_51_9)"/>
<path d="M490.64 180.371C490.64 180.371 532.2 182.448 579.302 174.832C579.302 174.832 544.322 168.947 527.698 164.1C527.698 164.1 495.488 175.524 490.64 180.371Z" fill="url(#paint16_linear_51_9)"/>
<path d="M529.43 157.522C529.43 157.522 560.946 153.368 578.61 140.559C578.61 140.559 590.385 106.978 599.39 101.439C608.741 95.5538 623.98 103.862 623.98 103.862C623.98 103.862 599.736 82.7447 569.605 95.5538C539.82 108.363 529.43 157.522 529.43 157.522Z" fill="url(#paint17_linear_51_9)"/>
<path d="M752.817 179.678C752.817 179.678 769.095 154.753 796.456 147.829C805.807 145.405 881.655 147.829 881.655 147.829C881.655 147.829 840.441 151.291 834.899 151.637C829.358 151.983 811.348 180.371 811.348 180.371C811.348 180.371 778.446 193.526 752.817 179.678Z" fill="url(#paint18_linear_51_9)"/>
<path d="M1237 141.597L1283.41 127.057C1283.41 127.057 1298.3 110.44 1311.46 103.862C1324.97 97.2848 1350.94 94.8615 1361.33 96.2463C1371.72 97.2848 1390.43 110.786 1390.43 110.786C1390.43 110.786 1411.9 101.093 1420.56 100.401C1429.21 99.7082 1454.84 112.171 1454.84 112.171L1499.87 111.132C1499.87 110.44 1383.15 126.019 1237 141.597Z" fill="url(#paint19_linear_51_9)"/>
<path d="M1283.41 127.057C1283.41 127.057 1313.88 125.326 1322.54 123.249C1322.54 123.249 1324.97 110.786 1328.43 106.286C1332.24 102.132 1349.9 95.9001 1349.9 95.9001H1361.68C1361.68 95.9001 1330.51 94.1691 1313.54 103.17C1295.87 111.825 1283.41 127.057 1283.41 127.057Z" fill="url(#paint20_linear_51_9)"/>
<path d="M1390.08 110.44L1380.03 118.403C1380.03 118.403 1407.74 118.057 1414.32 114.595C1420.9 111.133 1420.21 100.055 1420.21 100.055C1420.21 100.055 1403.93 101.44 1390.08 110.44Z" fill="url(#paint21_linear_51_9)"/>
<path d="M164.419 123.055C164.419 123.055 274.554 117.516 327.544 109.554C380.534 101.937 478.894 87.7436 478.894 87.7436L432.484 88.7822C432.484 88.7822 406.855 78.0502 384.343 78.7426C361.485 79.7812 351.441 91.8979 351.441 91.8979C351.441 91.8979 327.198 59.3559 306.071 55.2016C284.944 51.0473 243.038 70.0878 238.189 79.435C233.34 88.436 227.106 102.284 227.106 102.284C227.106 102.284 210.482 95.0136 196.628 94.3212C183.121 93.2827 157.838 101.591 157.146 104.361C156.453 107.477 156.799 112.669 156.799 112.669L100 123.748C100 123.401 139.483 125.479 164.419 123.055Z" fill="url(#paint22_linear_51_9)"/>
<path d="M226.76 102.284C226.76 102.284 259.662 104.707 273.515 102.284C273.515 102.284 273.861 75.973 279.403 70.4339C284.944 64.8949 302.954 56.2401 312.305 57.2787C312.305 57.2787 306.417 52.432 287.715 54.5091C269.013 56.9325 242.691 70.4339 238.535 75.6268C234.379 80.8197 226.76 102.284 226.76 102.284Z" fill="url(#paint23_linear_51_9)"/>
<path d="M157.146 104.361C157.146 104.361 162.341 106.438 171.346 107.13C180.697 108.169 208.75 99.1679 208.75 99.1679L210.828 96.7445C210.828 96.7445 200.438 92.244 187.97 94.6674C175.502 96.7445 157.492 100.899 157.146 104.361Z" fill="url(#paint24_linear_51_9)"/>
<path d="M351.095 91.8979L335.51 102.976C335.51 102.976 372.221 95.706 374.299 95.0136C376.378 94.3212 388.499 84.6278 391.616 83.5893C394.733 82.5507 417.245 83.5893 417.245 83.5893C417.245 83.5893 395.426 75.6268 376.377 78.3964C357.329 81.1659 351.095 91.8979 351.095 91.8979Z" fill="url(#paint25_linear_51_9)"/>
<path d="M-149 861.249C-149 861.249 -49.2547 823.514 22.4372 844.286C94.1291 865.057 97.9388 977.916 97.9388 977.916C97.9388 977.916 149.543 936.373 193.874 946.758C223.659 953.682 217.772 982.07 212.577 1000.76C222.967 1011.15 324.79 1042.65 345.57 1049.58C366.351 1056.5 368.429 1068.62 378.126 1079C387.823 1089.39 443.238 1102.2 480.296 1101.51C517.354 1100.81 567.573 1110.51 615.367 1111.55C663.162 1112.58 727.581 1114.66 727.581 1114.66C727.581 1114.66 580.041 1120.2 523.242 1114.66C466.442 1109.12 416.916 1110.51 343.146 1104.62C269.376 1098.74 125.646 1103.24 86.856 1091.47C86.856 1091.47 15.5104 1108.78 -56.1815 1104.62C-128.22 1100.81 -149 1096.66 -149 1096.66V861.249Z" fill="url(#paint26_linear_51_9)"/>
<path d="M-149 951.951C-149 951.951 -96.3567 944.335 -41.289 914.562C13.4324 884.79 29.3639 864.365 29.3639 864.365C29.3639 864.365 37.3297 869.904 54.6466 876.828C71.9635 883.751 74.3878 888.252 74.3878 888.252C74.3878 888.252 60.188 848.786 4.77397 837.708C4.77397 837.708 -60.3375 826.63 -149 860.903V951.951Z" fill="url(#paint27_linear_51_9)"/>
<path d="M97.9389 977.569L80.9683 992.456L49.1052 1000.76C49.1052 1000.76 99.3242 1009.07 131.187 1000.76C163.05 992.456 181.406 960.952 181.406 960.952C181.406 960.952 193.874 945.72 209.113 954.721C209.113 954.374 163.05 927.371 97.9389 977.569Z" fill="url(#paint28_linear_51_9)"/>
<path d="M212.577 1000.42L194.913 1009.42L182.792 1014.96C182.792 1014.96 219.85 1016 250.674 1025.34C281.498 1034.34 283.229 1042.31 306.78 1049.92C330.331 1057.19 356.999 1054.77 356.999 1054.77C356.999 1054.77 326.522 1040.92 276.995 1027.07C227.469 1013.23 212.577 1000.42 212.577 1000.42Z" fill="url(#paint29_linear_51_9)"/>
<path d="M-55.1425 1065.5C-55.1425 1065.5 -31.5915 1043.35 -6.65518 1038.5C18.2811 1033.31 65.3831 1045.77 78.1976 1065.5L86.856 1080.39C86.856 1080.39 61.227 1081.08 30.403 1076.93C-0.421095 1072.77 -4.92348 1063.08 -17.3916 1055.46C-30.2061 1047.85 -55.1425 1065.5 -55.1425 1065.5Z" fill="url(#paint30_linear_51_9)"/>
</g>
<defs>
<linearGradient id="paint0_linear_51_9" x1="1239.27" y1="965.583" x2="1261.33" y2="740.796" gradientUnits="userSpaceOnUse">
<stop stop-color="#BED6FF"/>
<stop offset="0.4836" stop-color="#C5E1FF"/>
<stop offset="1" stop-color="#C7E5FF"/>
</linearGradient>
<linearGradient id="paint1_linear_51_9" x1="1430.17" y1="835.839" x2="1434.45" y2="792.182" gradientUnits="userSpaceOnUse">
<stop stop-color="#D6E5FF"/>
<stop offset="0.4226" stop-color="#DDEDFF"/>
<stop offset="1" stop-color="#E0F1FF"/>
</linearGradient>
<linearGradient id="paint2_linear_51_9" x1="1167.45" y1="862.074" x2="1178.01" y2="754.484" gradientUnits="userSpaceOnUse">
<stop stop-color="#D6E5FF"/>
<stop offset="0.4226" stop-color="#DDEDFF"/>
<stop offset="1" stop-color="#E0F1FF"/>
</linearGradient>
<linearGradient id="paint3_linear_51_9" x1="976.23" y1="902.492" x2="978.181" y2="882.612" gradientUnits="userSpaceOnUse">
<stop stop-color="#D6E5FF"/>
<stop offset="0.4226" stop-color="#DDEDFF"/>
<stop offset="1" stop-color="#E0F1FF"/>
</linearGradient>
<linearGradient id="paint4_linear_51_9" x1="1015.49" y1="879.672" x2="1022.53" y2="807.914" gradientUnits="userSpaceOnUse">
<stop stop-color="#D6E5FF"/>
<stop offset="0.4226" stop-color="#DDEDFF"/>
<stop offset="1" stop-color="#E0F1FF"/>
</linearGradient>
<linearGradient id="paint5_linear_51_9" x1="1256.51" y1="907.429" x2="1261.23" y2="859.272" gradientUnits="userSpaceOnUse">
<stop stop-color="#D6E5FF"/>
<stop offset="0.4226" stop-color="#DDEDFF"/>
<stop offset="1" stop-color="#E0F1FF"/>
</linearGradient>
<linearGradient id="paint6_linear_51_9" x1="1643.61" y1="605.223" x2="1643.61" y2="548.092" gradientUnits="userSpaceOnUse">
<stop stop-color="#BED6FF"/>
<stop offset="0.4836" stop-color="#C5E1FF"/>
<stop offset="1" stop-color="#C7E5FF"/>
</linearGradient>
<linearGradient id="paint7_linear_51_9" x1="86.3448" y1="307.447" x2="86.3448" y2="28.1678" gradientUnits="userSpaceOnUse">
<stop stop-color="#BED6FF"/>
<stop offset="0.4836" stop-color="#C5E1FF"/>
<stop offset="1" stop-color="#C7E5FF"/>
</linearGradient>
<linearGradient id="paint8_linear_51_9" x1="-74.1183" y1="194.523" x2="-74.1183" y2="137.376" gradientUnits="userSpaceOnUse">
<stop stop-color="#D6E5FF"/>
<stop offset="0.4226" stop-color="#DDEDFF"/>
<stop offset="1" stop-color="#E0F1FF"/>
</linearGradient>
<linearGradient id="paint9_linear_51_9" x1="66.9963" y1="245.571" x2="66.9963" y2="190.877" gradientUnits="userSpaceOnUse">
<stop stop-color="#D6E5FF"/>
<stop offset="0.4226" stop-color="#DDEDFF"/>
<stop offset="1" stop-color="#E0F1FF"/>
</linearGradient>
<linearGradient id="paint10_linear_51_9" x1="36.6016" y1="286.196" x2="36.6016" y2="263.171" gradientUnits="userSpaceOnUse">
<stop stop-color="#D6E5FF"/>
<stop offset="0.4226" stop-color="#DDEDFF"/>
<stop offset="1" stop-color="#E0F1FF"/>
</linearGradient>
<linearGradient id="paint11_linear_51_9" x1="1491.88" y1="295.255" x2="1491.88" y2="15.1245" gradientUnits="userSpaceOnUse">
<stop stop-color="#BED6FF"/>
<stop offset="0.4836" stop-color="#C5E1FF"/>
<stop offset="1" stop-color="#C7E5FF"/>
</linearGradient>
<linearGradient id="paint12_linear_51_9" x1="1417.68" y1="244.726" x2="1417.68" y2="221.463" gradientUnits="userSpaceOnUse">
<stop stop-color="#D6E5FF"/>
<stop offset="0.4226" stop-color="#DDEDFF"/>
<stop offset="1" stop-color="#E0F1FF"/>
</linearGradient>
<linearGradient id="paint13_linear_51_9" x1="797.435" y1="247.829" x2="819.493" y2="23.042" gradientUnits="userSpaceOnUse">
<stop stop-color="#BED6FF"/>
<stop offset="0.4836" stop-color="#C5E1FF"/>
<stop offset="1" stop-color="#C7E5FF"/>
</linearGradient>
<linearGradient id="paint14_linear_51_9" x1="988.337" y1="118.085" x2="992.621" y2="74.4282" gradientUnits="userSpaceOnUse">
<stop stop-color="#D6E5FF"/>
<stop offset="0.4226" stop-color="#DDEDFF"/>
<stop offset="1" stop-color="#E0F1FF"/>
</linearGradient>
<linearGradient id="paint15_linear_51_9" x1="725.622" y1="144.319" x2="736.18" y2="36.7295" gradientUnits="userSpaceOnUse">
<stop stop-color="#D6E5FF"/>
<stop offset="0.4226" stop-color="#DDEDFF"/>
<stop offset="1" stop-color="#E0F1FF"/>
</linearGradient>
<linearGradient id="paint16_linear_51_9" x1="534.398" y1="184.738" x2="536.348" y2="164.858" gradientUnits="userSpaceOnUse">
<stop stop-color="#D6E5FF"/>
<stop offset="0.4226" stop-color="#DDEDFF"/>
<stop offset="1" stop-color="#E0F1FF"/>
</linearGradient>
<linearGradient id="paint17_linear_51_9" x1="573.655" y1="161.917" x2="580.697" y2="90.1594" gradientUnits="userSpaceOnUse">
<stop stop-color="#D6E5FF"/>
<stop offset="0.4226" stop-color="#DDEDFF"/>
<stop offset="1" stop-color="#E0F1FF"/>
</linearGradient>
<linearGradient id="paint18_linear_51_9" x1="814.675" y1="189.674" x2="819.401" y2="141.518" gradientUnits="userSpaceOnUse">
<stop stop-color="#D6E5FF"/>
<stop offset="0.4226" stop-color="#DDEDFF"/>
<stop offset="1" stop-color="#E0F1FF"/>
</linearGradient>
<linearGradient id="paint19_linear_51_9" x1="1368.48" y1="141.571" x2="1368.48" y2="95.6685" gradientUnits="userSpaceOnUse">
<stop stop-color="#BED6FF"/>
<stop offset="0.4836" stop-color="#C5E1FF"/>
<stop offset="1" stop-color="#C7E5FF"/>
</linearGradient>
<linearGradient id="paint20_linear_51_9" x1="1322.32" y1="126.96" x2="1322.32" y2="95.81" gradientUnits="userSpaceOnUse">
<stop stop-color="#D6E5FF"/>
<stop offset="0.4226" stop-color="#DDEDFF"/>
<stop offset="1" stop-color="#E0F1FF"/>
</linearGradient>
<linearGradient id="paint21_linear_51_9" x1="1400.41" y1="118.324" x2="1400.41" y2="99.9124" gradientUnits="userSpaceOnUse">
<stop stop-color="#D6E5FF"/>
<stop offset="0.4226" stop-color="#DDEDFF"/>
<stop offset="1" stop-color="#E0F1FF"/>
</linearGradient>
<linearGradient id="paint22_linear_51_9" x1="287.145" y1="137.366" x2="293.357" y2="54.066" gradientUnits="userSpaceOnUse">
<stop stop-color="#BED6FF"/>
<stop offset="0.4836" stop-color="#C5E1FF"/>
<stop offset="1" stop-color="#C7E5FF"/>
</linearGradient>
<linearGradient id="paint23_linear_51_9" x1="269.534" y1="103.204" x2="269.534" y2="54.0137" gradientUnits="userSpaceOnUse">
<stop stop-color="#D6E5FF"/>
<stop offset="0.4226" stop-color="#DDEDFF"/>
<stop offset="1" stop-color="#E0F1FF"/>
</linearGradient>
<linearGradient id="paint24_linear_51_9" x1="183.788" y1="107.175" x2="183.788" y2="93.8275" gradientUnits="userSpaceOnUse">
<stop stop-color="#D6E5FF"/>
<stop offset="0.4226" stop-color="#DDEDFF"/>
<stop offset="1" stop-color="#E0F1FF"/>
</linearGradient>
<linearGradient id="paint25_linear_51_9" x1="376.558" y1="103.204" x2="376.558" y2="77.9744" gradientUnits="userSpaceOnUse">
<stop stop-color="#D6E5FF"/>
<stop offset="0.4226" stop-color="#DDEDFF"/>
<stop offset="1" stop-color="#E0F1FF"/>
</linearGradient>
<linearGradient id="paint26_linear_51_9" x1="289.345" y1="1117.11" x2="289.345" y2="837.829" gradientUnits="userSpaceOnUse">
<stop stop-color="#BED6FF"/>
<stop offset="0.4836" stop-color="#C5E1FF"/>
<stop offset="1" stop-color="#C7E5FF"/>
</linearGradient>
<linearGradient id="paint27_linear_51_9" x1="-37.3043" y1="952.031" x2="-37.3043" y2="836.15" gradientUnits="userSpaceOnUse">
<stop stop-color="#D6E5FF"/>
<stop offset="0.4226" stop-color="#DDEDFF"/>
<stop offset="1" stop-color="#E0F1FF"/>
</linearGradient>
<linearGradient id="paint28_linear_51_9" x1="128.882" y1="1004.18" x2="128.882" y2="947.038" gradientUnits="userSpaceOnUse">
<stop stop-color="#D6E5FF"/>
<stop offset="0.4226" stop-color="#DDEDFF"/>
<stop offset="1" stop-color="#E0F1FF"/>
</linearGradient>
<linearGradient id="paint29_linear_51_9" x1="269.996" y1="1055.23" x2="269.996" y2="1000.54" gradientUnits="userSpaceOnUse">
<stop stop-color="#D6E5FF"/>
<stop offset="0.4226" stop-color="#DDEDFF"/>
<stop offset="1" stop-color="#E0F1FF"/>
</linearGradient>
<linearGradient id="paint30_linear_51_9" x1="15.8266" y1="1080.29" x2="15.8266" y2="1037.11" gradientUnits="userSpaceOnUse">
<stop stop-color="#D6E5FF"/>
<stop offset="0.4226" stop-color="#DDEDFF"/>
<stop offset="1" stop-color="#E0F1FF"/>
</linearGradient>
<clipPath id="clip0_51_9">
<rect width="1440" height="1037" fill="white"/>
</clipPath>
</defs>
</svg>
