<svg width="360" height="975" viewBox="0 0 360 975" fill="none" xmlns="http://www.w3.org/2000/svg">
<path d="M1464.01 -39.8198H-209V693.44H1464.01V-39.8198Z" fill="url(#paint0_linear_41_62)"/>
<g opacity="0.4">
<path opacity="0.4" d="M1490.12 945.834C931.319 945.834 372.294 945.834 -187.176 945.834C-187.176 598.699 -187.176 260.774 -187.176 -86.3618C-172.007 -90.0897 -157.061 -94.4755 -141.446 -94.9141C-95.9387 -96.4491 -60.6929 -77.3709 -33.924 -41.6267C-17.8626 -20.1363 -4.92432 3.32769 9.35245 25.9145C18.4985 40.8262 31.2137 51.7907 48.8366 55.9572C67.7979 60.5623 87.6515 60.5623 106.613 57.7115C151.897 51.1328 188.481 63.8516 216.589 99.8151C232.204 119.77 250.05 135.559 277.934 136.656C292.434 137.314 306.934 137.533 321.433 137.972C369.394 138.849 411.555 151.567 443.678 189.943C467.101 217.793 494.316 242.573 521.977 266.475C548.746 289.72 578.638 300.904 614.107 287.088C621.915 284.018 629.722 280.071 637.084 275.905C668.983 257.265 702.221 247.178 740.144 253.756C761.336 257.484 782.082 251.564 801.266 241.915C827.589 228.538 848.781 209.241 867.743 187.531C890.719 161.435 907.45 131.174 925.296 101.569C946.265 66.7024 973.703 37.9754 1008.95 16.7043C1029.69 4.20483 1051.78 1.79266 1075.2 5.30129C1115.36 11.4414 1154.84 11.0028 1193.65 -2.59314C1215.74 -10.4876 1235.15 -23.6449 1255.67 -34.6094C1290.91 -53.249 1327.05 -70.1343 1367.88 -74.5201C1408.7 -78.9059 1444.17 -63.7749 1478.3 -44.0389C1487.22 -38.9952 1490.57 -32.6358 1490.57 -22.1099C1490.12 303.535 1490.12 620.189 1490.12 945.834Z" fill="url(#paint1_linear_41_62)"/>
</g>
<g opacity="0.4">
<path opacity="0.4" d="M-187.176 52.4484C-179.592 60.3429 -171.561 68.018 -164.422 76.1317C-145.684 97.1835 -121.146 104.42 -93.7079 104.859C-73.8543 105.297 -54.6699 107.929 -37.9393 120.209C-24.1087 130.296 -16.9703 144.331 -10.7243 159.462C-5.59354 171.961 -0.239746 184.242 10.914 193.232C32.9983 210.776 56.1981 212.968 81.4055 200.908C98.3591 193.013 113.528 180.952 132.043 175.908C178.666 163.19 220.827 173.496 258.75 202.004C281.726 219.109 302.249 239.283 317.864 262.747C342.402 299.588 375.641 326.122 413.786 347.832C464.87 376.997 518.408 401.119 573.284 422.39C617.899 439.495 656.714 430.065 691.96 400.242C704.006 389.935 716.498 380.286 728.767 369.98C758.213 345.2 793.682 338.841 829.374 345.639C888.712 356.822 938.903 339.279 987.087 308.14C1016.09 289.281 1042.41 267.572 1066.06 242.134C1079.44 227.88 1093.94 214.723 1110.45 203.758C1145.92 180.514 1183.17 178.54 1223.1 191.259C1267.49 205.513 1306.31 195.425 1338.65 161.874C1368.1 131.612 1404.68 115.385 1447.07 111.876C1460.23 110.779 1472.72 114.288 1484.99 119.112C1488.34 120.428 1490.57 122.402 1490.12 126.349C1489.9 128.981 1490.12 131.393 1490.12 134.024C1490.12 262.528 1490.12 391.032 1490.12 519.535C1490.12 523.483 1490.12 527.43 1490.12 533.131C930.65 533.131 371.625 533.131 -187.176 533.131C-187.176 373.269 -187.176 212.749 -187.176 52.4484Z" fill="url(#paint2_linear_41_62)"/>
</g>
<path d="M1490.12 573.919C1446.62 567.341 1404.24 560.543 1361.41 557.253C1335.53 555.28 1309.65 552.867 1283.78 550.455C1277.75 549.797 1272.4 547.605 1267.05 544.754C1217.97 517.343 1169.34 489.274 1119.59 463.178C1082.56 443.881 1044.86 425.68 1010.51 401.558C996.457 391.69 981.957 389.497 964.557 394.54C913.027 409.452 859.935 417.566 807.736 429.627C787.882 434.232 773.605 422.171 759.552 412.084C689.06 362.085 617.007 314.28 547.185 263.186C538.931 257.046 529.785 252.002 521.085 246.301C512.832 241.038 503.462 241.915 495.209 243.888C487.624 245.643 483.386 243.231 478.255 239.064C431.632 201.127 385.679 162.532 336.603 127.665L300.242 179.198H343.518L128.474 382.699L310.057 273.054L115.09 493.879L225.289 454.406L127.136 589.05L456.617 444.977L78.5058 742.334V974.781C549.416 974.781 1019.66 974.781 1490.12 974.781C1490.12 841.233 1490.12 707.686 1490.12 573.919Z" fill="#FF8C39"/>
<path d="M456.394 444.977L126.913 589.05L225.066 454.406L114.867 493.879L309.834 273.054L128.251 382.699L343.295 179.198H300.242L336.603 127.665C335.264 126.788 334.149 125.911 332.81 124.814C321.211 116.481 317.418 116.262 308.272 126.568C286.857 150.91 268.788 177.663 248.935 203.32C238.227 217.135 227.296 231.389 218.15 246.301C209.004 260.993 193.612 267.352 180.005 275.905C136.951 303.097 93.0056 328.754 48.1676 353.314C43.9292 355.726 39.4677 358.138 34.7832 355.068C5.56044 335.551 -16.0778 344.323 -40.839 367.129C-85.2308 408.136 -135.869 441.907 -187.399 474.143C-187.399 641.022 -187.399 808.121 -187.399 975C-98.8383 975 -10.2778 975 78.2827 975V742.553L456.394 444.977Z" fill="#FF9C54"/>
<path d="M1361.41 557.253C1335.53 555.28 1309.65 552.867 1283.78 550.455C1277.75 549.797 1272.4 547.605 1267.05 544.754C1217.97 517.343 1169.34 489.274 1119.59 463.178C1082.56 443.881 1044.86 425.68 1010.51 401.558C996.457 391.69 981.957 389.497 964.557 394.54C913.027 409.452 859.935 417.566 807.736 429.627C787.882 434.232 773.605 422.171 759.552 412.084C689.06 362.086 617.007 314.28 547.185 263.186C538.931 257.046 529.785 252.002 521.085 246.301C512.832 241.038 503.462 241.915 495.209 243.888C487.624 245.643 483.386 243.231 478.255 239.064C431.632 201.127 385.679 162.532 336.603 127.665C335.264 126.788 334.149 125.911 332.811 124.814C321.211 116.481 317.418 116.262 308.272 126.568C286.857 150.91 268.788 177.663 248.935 203.32C238.227 217.135 227.296 231.389 218.15 246.301C209.004 260.993 193.612 267.352 180.005 275.905C136.951 303.097 93.0056 328.754 48.1677 353.314C43.9292 355.726 39.4678 358.138 34.7832 355.068C5.56046 335.551 -16.0778 344.323 -40.839 367.129C-85.2308 408.136 -135.869 441.907 -187.399 474.143C-187.399 641.022 -187.399 808.121 -187.399 975C-98.8383 975 -10.2778 975 78.2827 975C549.193 975 1019.43 975 1489.9 975C1489.9 841.453 1489.9 707.905 1489.9 574.139C1446.62 567.341 1404.24 560.543 1361.41 557.253Z" fill="url(#paint3_linear_41_62)"/>
<path d="M1365.2 265.817C1364.98 265.817 1364.75 265.817 1364.53 265.817L1363.41 265.379C1362.3 264.94 1361.63 263.625 1361.85 262.528C1362.3 261.432 1363.64 260.774 1364.75 260.993L1365.87 261.432C1366.98 261.87 1367.88 263.186 1367.43 264.282C1367.21 265.16 1366.31 265.817 1365.2 265.817ZM663.63 285.773C663.407 285.773 663.184 285.773 662.961 285.773L661.845 285.334C660.73 284.896 659.837 283.58 660.284 282.483C660.73 281.168 662.068 280.51 663.184 280.948L664.299 281.387C665.637 281.826 666.307 283.141 665.861 284.238C665.414 285.115 664.522 285.773 663.63 285.773ZM917.488 285.334C916.596 285.334 915.704 284.676 915.258 283.799C914.811 282.703 915.481 281.387 916.596 280.729L917.711 280.291C918.827 279.852 920.165 280.51 920.834 281.606C921.281 282.703 920.611 284.018 919.496 284.676L918.381 285.115C917.934 285.334 917.711 285.334 917.488 285.334ZM1321.25 293.229C1320.36 293.229 1319.47 292.571 1319.02 291.694C1318.58 290.597 1319.25 289.281 1320.36 288.843L1321.48 288.404C1322.59 287.966 1323.93 288.624 1324.6 289.72C1325.05 290.816 1324.38 292.132 1323.26 292.79L1322.15 293.229C1321.92 293.229 1321.7 293.229 1321.25 293.229ZM129.59 273.054C128.698 273.054 127.805 272.396 127.359 271.519C126.913 270.423 127.582 269.107 128.697 268.668L129.813 268.23C130.928 267.791 132.267 268.449 132.713 269.545C133.159 270.642 132.49 271.958 131.374 272.615L130.259 273.054C130.036 273.054 129.813 273.054 129.59 273.054ZM1392.64 288.404C1392.41 288.404 1392.19 288.404 1391.97 288.185L1390.85 287.746C1389.51 287.308 1388.84 285.992 1389.29 284.896C1389.74 283.799 1391.08 282.922 1392.19 283.361L1393.31 283.799C1394.42 284.238 1395.09 285.553 1394.87 286.65C1394.42 287.746 1393.53 288.404 1392.64 288.404ZM-103.523 323.71C-104.861 323.71 -105.754 322.613 -105.754 321.517V320.859C-105.754 319.543 -104.638 318.447 -103.523 318.447C-102.408 318.447 -101.292 319.324 -101.292 320.421V321.517C-101.292 322.833 -102.184 323.71 -103.523 323.71ZM1044.86 164.067C1043.97 164.067 1043.08 163.409 1042.63 162.532C1042.19 161.436 1042.86 160.12 1043.97 159.681L1045.09 159.243C1046.2 158.804 1047.54 159.462 1047.99 160.558C1048.43 161.655 1047.76 162.971 1046.65 163.409L1045.53 163.848C1045.31 163.848 1045.09 164.067 1044.86 164.067ZM1304.08 126.569C1303.63 126.569 1303.18 126.349 1302.74 126.13L1301.85 125.472C1300.73 124.814 1300.51 123.279 1301.4 122.183C1302.07 121.086 1303.63 120.867 1304.75 121.525L1305.64 122.183C1306.75 122.841 1306.98 124.376 1306.08 125.472C1305.64 126.349 1304.97 126.569 1304.08 126.569ZM1220.42 -10.2682C1219.98 -10.2682 1219.53 -10.4875 1219.08 -10.7068L1218.19 -11.3647C1217.08 -12.0225 1216.85 -13.5576 1217.75 -14.654C1218.42 -15.7505 1219.98 -15.9697 1221.09 -15.3119L1221.98 -14.654C1223.1 -13.9961 1223.32 -12.4611 1222.43 -11.3647C1221.76 -10.4875 1221.09 -10.2682 1220.42 -10.2682ZM478.032 119.771C477.586 119.771 477.363 119.771 476.917 119.551L475.801 119.113C474.686 118.674 474.017 117.139 474.686 116.043C475.132 114.946 476.694 114.288 477.809 114.946L478.924 115.385C480.04 116.043 480.486 117.358 480.04 118.455C479.816 119.113 478.924 119.771 478.032 119.771ZM487.847 81.6141C486.732 81.6141 485.84 80.9563 485.616 79.8598L485.393 78.7634C485.17 77.4476 486.063 76.3512 487.178 76.1319C488.516 75.9126 489.632 76.7898 489.855 77.8862L490.078 78.9827C490.301 80.2984 489.409 81.3949 488.293 81.6141C488.07 81.6141 488.07 81.6141 487.847 81.6141ZM-127.392 98.2802C-128.284 98.2802 -129.176 97.8416 -129.623 96.9644L-130.069 95.868C-130.515 94.7715 -130.069 93.4558 -128.73 92.7979C-127.615 92.3593 -126.276 92.7979 -125.607 94.1137L-125.161 95.2101C-124.715 96.3065 -125.161 97.6223 -126.276 98.2802C-126.946 98.2802 -127.169 98.2802 -127.392 98.2802ZM-71.4002 288.185H-71.6233C-72.9617 287.966 -73.854 286.869 -73.6309 285.553L-73.4079 284.457C-73.1848 283.141 -72.0694 282.264 -70.9541 282.483C-69.6156 282.703 -68.7233 283.799 -68.9464 284.896L-69.1695 285.992C-69.3925 287.527 -70.2848 288.185 -71.4002 288.185ZM277.042 76.1319C276.373 76.1319 275.48 75.6933 275.034 75.0354C274.365 73.939 274.588 72.6233 275.703 71.9654L276.373 71.5268C277.488 70.869 279.05 71.0882 279.719 72.1847C280.388 73.2811 280.388 74.5969 279.273 75.2547L278.38 75.9126C277.934 75.9126 277.488 76.1319 277.042 76.1319ZM967.68 -42.5038C966.565 -42.5038 965.449 -43.3809 965.449 -44.4774L965.226 -45.5738C965.003 -46.8896 965.895 -47.986 967.234 -48.2053C968.572 -48.4246 969.688 -47.5474 969.911 -46.2317L970.134 -45.1353C970.357 -43.8195 969.465 -42.7231 968.126 -42.5038C967.903 -42.5038 967.903 -42.5038 967.68 -42.5038ZM851.458 61.8781C850.12 61.8781 849.228 60.7816 849.228 59.6852V58.5887C849.228 57.273 850.343 56.3958 851.458 56.3958C852.797 56.3958 853.689 57.4923 853.689 58.808V59.9045C853.912 60.7816 852.797 61.8781 851.458 61.8781ZM1072.3 6.83638C1071.41 6.83638 1070.29 6.17852 1070.07 5.30136L1069.63 4.20492C1069.4 2.88918 1070.07 1.79272 1071.19 1.35414C1072.53 0.915558 1073.64 1.79272 1074.09 2.88917L1074.31 3.98562C1074.76 5.30136 1074.09 6.3978 1072.75 6.83638C1072.75 6.83638 1072.53 6.83638 1072.3 6.83638ZM-37.0467 -44.916C-38.1621 -44.916 -39.0544 -45.5738 -39.2775 -46.6703C-39.7236 -47.986 -38.8313 -49.0825 -37.716 -49.521L-36.6006 -49.7403C-35.2622 -50.1789 -34.1468 -49.3018 -33.7006 -48.2053C-33.2545 -46.8896 -34.1468 -45.7931 -35.2622 -45.3545L-36.3775 -45.1353C-36.6006 -45.1353 -36.8237 -44.916 -37.0467 -44.916ZM219.489 -61.3627C219.266 -61.3627 219.266 -61.3627 219.043 -61.3627L217.927 -61.582C216.589 -61.8013 215.696 -62.8977 215.92 -64.2134C216.143 -65.5292 217.258 -66.4063 218.596 -66.1871L219.712 -65.9678C221.05 -65.7485 221.943 -64.652 221.719 -63.3363C221.496 -62.2398 220.604 -61.3627 219.489 -61.3627Z" fill="#F9F2ED"/>
<defs>
<linearGradient id="paint0_linear_41_62" x1="627.504" y1="-39.8198" x2="627.504" y2="693.44" gradientUnits="userSpaceOnUse">
<stop stop-color="#FFD8B1"/>
<stop offset="1" stop-color="#FFB66E"/>
</linearGradient>
<linearGradient id="paint1_linear_41_62" x1="651.628" y1="-94.9559" x2="651.628" y2="945.876" gradientUnits="userSpaceOnUse">
<stop stop-color="white" stop-opacity="0"/>
<stop offset="1" stop-color="white"/>
</linearGradient>
<linearGradient id="paint2_linear_41_62" x1="651.535" y1="52.4405" x2="651.535" y2="533.571" gradientUnits="userSpaceOnUse">
<stop stop-color="white"/>
<stop offset="0.0990956" stop-color="white" stop-opacity="0.8679"/>
<stop offset="0.75" stop-color="white" stop-opacity="0"/>
</linearGradient>
<linearGradient id="paint3_linear_41_62" x1="651.501" y1="974.773" x2="651.501" y2="118.708" gradientUnits="userSpaceOnUse">
<stop stop-color="white"/>
<stop offset="0.6883" stop-color="white" stop-opacity="0"/>
</linearGradient>
</defs>
</svg>
