<svg width="23" height="32" viewBox="0 0 23 32" fill="none" xmlns="http://www.w3.org/2000/svg">
<path fill-rule="evenodd" clip-rule="evenodd" d="M22.8619 10.4638C22.6037 9.88846 22.0432 9.53168 21.3991 9.53168H14.406L17.9465 2.22309C18.1817 1.73763 18.1461 1.17725 17.8509 0.723785C17.5563 0.27032 17.0525 0 16.5026 0H9.04044C8.04591 0 7.12954 0.567135 6.70521 1.44479L0.153905 14.9964C-0.0812946 15.4818 -0.044979 16.0422 0.249542 16.4957C0.543362 16.9491 1.04796 17.2194 1.59791 17.2194H8.70753L2.64057 29.7694C2.2958 30.4823 2.52265 31.2872 3.19265 31.727C3.47181 31.9102 3.78099 32 4.08877 32C4.52008 32 4.94647 31.8223 5.27519 31.4737L22.5743 12.1456C23.0105 11.6833 23.1208 11.0391 22.8619 10.4638Z" fill="url(#paint0_linear_28_411)"/>
<defs>
<linearGradient id="paint0_linear_28_411" x1="3.41892" y1="1.2437e-05" x2="22.3433" y2="0.265249" gradientUnits="userSpaceOnUse">
<stop stop-color="#FF8126"/>
<stop offset="1" stop-color="#FFA463"/>
</linearGradient>
</defs>
</svg>
