<svg width="28" height="28" viewBox="0 0 28 28" fill="none" xmlns="http://www.w3.org/2000/svg">
<path d="M0.000160907 27.334V25.8173C0.000494414 24.902 0.27427 24.0073 0.786904 23.2462C1.29954 22.4852 2.02803 21.8919 2.88036 21.5414C2.31711 21.1621 1.89131 20.6136 1.6655 19.9765C1.43968 19.3394 1.42575 18.6472 1.62575 18.0017C1.82574 17.3561 2.22913 16.7912 2.77666 16.3899C3.32419 15.9885 3.98701 15.772 4.66776 15.772C5.34852 15.772 6.01134 15.9885 6.55887 16.3899C7.1064 16.7912 7.50978 17.3561 7.70978 18.0017C7.90978 18.6472 7.89584 19.3394 7.67003 19.9765C7.44421 20.6136 7.01841 21.1621 6.45517 21.5414C7.1079 21.8121 7.69023 22.2261 8.15829 22.7524C8.46922 21.9779 8.93302 21.2729 9.52246 20.6787C10.1119 20.0845 10.8151 19.6132 11.5907 19.2924C10.8318 18.7809 10.2582 18.0415 9.95418 17.1827C9.65011 16.324 9.63158 15.3912 9.90131 14.5212C10.171 13.6512 10.7148 12.89 11.4528 12.3492C12.1907 11.8084 13.084 11.5166 14.0015 11.5166C14.919 11.5166 15.8123 11.8084 16.5503 12.3492C17.2882 12.89 17.832 13.6512 18.1017 14.5212C18.3714 15.3912 18.3529 16.324 18.0489 17.1827C17.7448 18.0415 17.1712 18.7809 16.4123 19.2924C17.188 19.6132 17.8911 20.0845 18.4806 20.6787C19.07 21.2729 19.5338 21.9779 19.8447 22.7524C20.3137 22.2198 20.8993 21.8007 21.5566 21.527C20.9937 21.1475 20.5682 20.5989 20.3427 19.9618C20.1172 19.3247 20.1035 18.6327 20.3037 17.9874C20.5038 17.342 20.9072 16.7773 21.4547 16.3762C22.0022 15.975 22.6648 15.7586 23.3454 15.7586C24.026 15.7586 24.6887 15.975 25.2362 16.3762C25.7837 16.7773 26.1871 17.342 26.3872 17.9874C26.5873 18.6327 26.5736 19.3247 26.3481 19.9618C26.1226 20.5989 25.6972 21.1475 25.1343 21.527C25.9862 21.8807 26.7132 22.4771 27.2233 23.2408C27.7334 24.0045 28.0037 24.9012 28 25.8173V27.3484C28 27.5212 27.9308 27.6869 27.8076 27.8091C27.6844 27.9313 27.5173 28 27.3431 28H0.65409C0.566842 27.9996 0.48054 27.982 0.400225 27.9482C0.319909 27.9144 0.24719 27.8651 0.186312 27.803C0.125435 27.741 0.0776192 27.6676 0.0456579 27.5871C0.0136965 27.5065 -0.00177015 27.4205 0.000160907 27.334V27.334ZM13.2241 9.09421H14.7761C14.9788 9.09421 15.1732 9.01432 15.3165 8.87211C15.4599 8.7299 15.5404 8.53702 15.5404 8.3359V4.12629H16.0781C16.1934 4.12671 16.3066 4.09546 16.4051 4.03601C16.5037 3.97655 16.5837 3.89121 16.6363 3.78942C16.689 3.68764 16.7122 3.57338 16.7035 3.45931C16.6947 3.34523 16.6543 3.23578 16.5867 3.14308L14.5087 0.259785C14.4509 0.179437 14.3746 0.113946 14.2861 0.0687597C14.1976 0.0235737 14.0996 0 14.0001 0C13.9006 0 13.8025 0.0235737 13.714 0.0687597C13.6256 0.113946 13.5493 0.179437 13.4915 0.259785L11.4134 3.14308C11.3458 3.23578 11.3054 3.34523 11.2967 3.45931C11.2879 3.57338 11.3111 3.68764 11.3638 3.78942C11.4164 3.89121 11.4965 3.97655 11.595 4.03601C11.6935 4.09546 11.8067 4.12671 11.922 4.12629H12.4597V8.3359C12.4597 8.53702 12.5402 8.7299 12.6836 8.87211C12.8269 9.01432 13.0213 9.09421 13.2241 9.09421V9.09421ZM19.1356 10.5849L20.2342 11.6748C20.3052 11.7452 20.3894 11.8011 20.4822 11.8392C20.575 11.8773 20.6744 11.897 20.7748 11.897C20.8752 11.897 20.9746 11.8773 21.0673 11.8392C21.1601 11.8011 21.2444 11.7452 21.3154 11.6748L24.3147 8.69632L24.6954 9.07403C24.7766 9.15532 24.8788 9.21274 24.9909 9.23993C25.1029 9.26713 25.2203 9.26304 25.3301 9.22811C25.44 9.19319 25.5379 9.12879 25.6131 9.04206C25.6883 8.95532 25.7379 8.84963 25.7563 8.73668L26.3375 5.24501C26.3539 5.14823 26.3468 5.04897 26.317 4.95542C26.2871 4.86186 26.2353 4.77668 26.1658 4.70687C26.0963 4.63705 26.011 4.58461 25.9171 4.55386C25.8232 4.5231 25.7232 4.51491 25.6255 4.52995L22.103 5.10661C21.9891 5.12486 21.8826 5.17402 21.7952 5.24863C21.7077 5.32324 21.6428 5.4204 21.6076 5.52935C21.5724 5.6383 21.5683 5.7548 21.5957 5.86593C21.6231 5.97706 21.681 6.0785 21.7629 6.15901L22.1378 6.53384L19.1327 9.51229C19.0617 9.58271 19.0053 9.66631 18.9669 9.75833C18.9285 9.85035 18.9087 9.94898 18.9087 10.0486C18.9087 10.1482 18.9285 10.2468 18.9669 10.3388C19.0053 10.4309 19.0617 10.5145 19.1327 10.5849H19.1356ZM6.39995 5.52757C6.36502 5.41858 6.30038 5.32131 6.21318 5.24651C6.12598 5.1717 6.01962 5.12229 5.90587 5.10373L2.37465 4.52995C2.27647 4.51387 2.17584 4.52129 2.08113 4.55159C1.98642 4.58188 1.90037 4.63418 1.83015 4.70413C1.75993 4.77408 1.70756 4.85965 1.67741 4.95373C1.64725 5.04781 1.64018 5.14767 1.65678 5.24501L2.23805 8.73668C2.25645 8.84963 2.306 8.95532 2.38121 9.04206C2.45642 9.12879 2.55435 9.19319 2.66418 9.22811C2.774 9.26304 2.89142 9.26713 3.00344 9.23993C3.11546 9.21274 3.21771 9.15532 3.29887 9.07403L3.6796 8.69632L6.68768 11.6748C6.75866 11.7452 6.84293 11.8011 6.93569 11.8392C7.02844 11.8773 7.12786 11.897 7.22826 11.897C7.32866 11.897 7.42808 11.8773 7.52083 11.8392C7.61358 11.8011 7.69786 11.7452 7.76884 11.6748L8.86744 10.5849C8.93845 10.5145 8.99477 10.4309 9.0332 10.3388C9.07163 10.2468 9.09141 10.1482 9.09141 10.0486C9.09141 9.94898 9.07163 9.85035 9.0332 9.75833C8.99477 9.66631 8.93845 9.58271 8.86744 9.51229L5.86227 6.53384L6.24301 6.15613C6.32502 6.07589 6.38309 5.97472 6.41078 5.8638C6.43848 5.75287 6.43473 5.63651 6.39995 5.52757V5.52757Z" fill="url(#paint0_linear_28_405)"/>
<defs>
<linearGradient id="paint0_linear_28_405" x1="4.16216" y1="1.08824e-05" x2="27.1963" y2="0.449176" gradientUnits="userSpaceOnUse">
<stop stop-color="#FF8126"/>
<stop offset="1" stop-color="#FFA463"/>
</linearGradient>
</defs>
</svg>
