<svg width="29" height="29" viewBox="0 0 29 29" fill="none" xmlns="http://www.w3.org/2000/svg">
<path d="M28.4167 25.5802C28.0492 25.2128 27.6001 25.0087 27.1509 25.0087C27.0693 25.0087 26.9876 24.9679 26.906 24.8862C26.3752 24.1106 25.6811 23.2532 24.8645 22.4367C23.8846 21.457 22.8638 20.6405 21.9655 20.1097C21.8431 20.0281 21.8431 19.9056 21.9247 19.824L24.3337 17.4153C24.8645 16.8846 24.9053 15.9456 24.4562 15.3741C23.9662 14.8025 23.1496 14.7209 22.6188 15.2924L20.5365 17.3745C20.4548 17.4561 20.3324 17.4561 20.2507 17.3745L18.25 15.0883C18.1275 14.925 18.1275 14.7209 18.2909 14.5984L25.9261 7.944C25.9669 7.90318 26.0077 7.82153 26.0485 7.7807L28.9475 0.636393C29.1108 0.268971 28.7433 -0.0984503 28.335 0.0240236L21.2306 2.9634C21.149 3.00422 21.1081 3.04505 21.0673 3.08587L14.7795 10.3935C14.6162 10.5568 14.3712 10.5568 14.2487 10.3935L7.92006 3.08587C7.87923 3.04505 7.79757 3.00422 7.75674 2.9634L0.611506 0.0648482C0.244037 -0.0984503 -0.123433 0.268971 0.039887 0.636393L2.93881 7.73988C2.97964 7.82153 3.02047 7.86235 3.0613 7.90318L10.7373 14.5168C10.9006 14.6392 10.9006 14.8842 10.7782 15.0067L8.77749 17.3337C8.69583 17.4153 8.57334 17.4153 8.49168 17.3337L6.40935 15.2516C5.87856 14.7209 5.06197 14.7617 4.57201 15.3333C4.08205 15.9048 4.16371 16.8438 4.6945 17.3745L7.10346 19.7831C7.18512 19.8648 7.18512 19.9873 7.06263 20.0689C6.16437 20.5996 5.14363 21.4161 4.16371 22.3959C3.34711 23.2124 2.653 24.0697 2.12221 24.8454C2.08138 24.927 1.99972 24.9679 1.87723 24.9679C1.4281 25.0087 0.938145 25.2128 0.611506 25.5394C-0.286752 26.4376 -0.164263 27.9481 0.938145 28.6829C1.63225 29.132 2.53051 29.0912 3.18379 28.6421C3.71458 28.2747 4.00039 27.7031 4.04122 27.1316C4.04122 27.0499 4.08205 26.9683 4.16371 26.8866C4.93948 26.3559 5.7969 25.6619 6.6135 24.8454C7.59342 23.8656 8.41002 22.845 8.94081 21.9469C8.98164 21.8652 9.14496 21.8244 9.22662 21.906L11.6764 24.3555C12.2072 24.8862 13.0646 24.9679 13.5954 24.478C14.167 23.9473 14.2079 23.0491 13.6362 22.4776L11.6356 20.518C11.5539 20.4363 11.5539 20.3139 11.6356 20.2322L14.2487 17.9869C14.3712 17.8644 14.5753 17.8644 14.7387 17.9869L17.3518 20.2322C17.4334 20.3139 17.4334 20.4363 17.3518 20.518L15.4328 22.4367C14.902 22.9675 14.8203 23.8248 15.3103 24.3555C15.8411 24.927 16.7393 24.9679 17.3109 24.3963L19.8424 21.8652C19.9241 21.7836 20.0465 21.7836 20.1282 21.906C20.659 22.8042 21.4756 23.8248 22.4555 24.8046C23.2721 25.6211 24.1295 26.3151 24.9053 26.8458C24.987 26.8866 25.0278 26.9683 25.0278 27.0908C25.0686 27.6623 25.3544 28.2338 25.8852 28.6013C26.5385 29.0912 27.4776 29.0912 28.1309 28.6421C29.1924 27.9481 29.2741 26.4376 28.4167 25.5802Z" fill="url(#paint0_linear_28_400)"/>
<defs>
<linearGradient id="paint0_linear_28_400" x1="4.31081" y1="1.12711e-05" x2="28.1676" y2="0.465218" gradientUnits="userSpaceOnUse">
<stop stop-color="#FF8126"/>
<stop offset="1" stop-color="#FFA463"/>
</linearGradient>
</defs>
</svg>
