<svg width="1440" height="820" viewBox="0 0 1440 820" fill="none" xmlns="http://www.w3.org/2000/svg">
<g clip-path="url(#clip0_28_728)">
<path fill-rule="evenodd" clip-rule="evenodd" d="M-59 576V-305H1675V497.948L-59 576Z" fill="url(#paint0_linear_28_728)"/>
<path d="M695.901 452.951C742.122 406.709 742.122 331.736 695.901 285.493C649.68 239.251 574.741 239.251 528.52 285.493C482.299 331.735 482.299 406.709 528.52 452.951C574.741 499.193 649.68 499.193 695.901 452.951Z" fill="white"/>
<path opacity="0.72" fill-rule="evenodd" clip-rule="evenodd" d="M462.202 -38C462.202 -38 664.245 -19.157 1576.43 199.251L1570.01 226.873C1570.01 226.873 781.318 18.3149 462.202 -38Z" fill="url(#paint1_linear_28_728)"/>
<path fill-rule="evenodd" clip-rule="evenodd" d="M1447.64 250.414C1447.64 250.414 1449.57 131.361 1381.51 111.447C1328.64 96.0302 1295.47 208.874 1295.47 208.874C1295.47 208.874 1280.92 185.535 1261.23 183.179C1241.54 180.824 1237.9 211.444 1237.9 211.444C1237.9 211.444 1216.49 154.272 1174.12 152.987C1131.52 151.489 1120.4 264.333 1120.4 264.333L1447.64 250.414Z" fill="#CFD9FD"/>
<path fill-rule="evenodd" clip-rule="evenodd" d="M1538.82 269.258C1538.82 269.258 1491.31 143.994 1427.31 139.926C1363.53 135.857 1369.1 251.699 1369.1 251.699C1369.1 251.699 1354.97 241.635 1346.2 251.699C1346.2 251.699 1342.77 195.17 1309.38 183.179C1280.27 172.901 1260.8 223.221 1260.8 223.221C1260.8 223.221 1264.44 205.234 1243.25 200.523C1222.27 195.813 1224.41 247.631 1224.41 247.631C1224.41 247.631 1151.86 198.81 1143.72 258.98C1143.72 258.98 1106.27 255.768 1093 265.832L1718.82 280.178L1596.39 270.971C1596.39 270.971 1584.41 242.278 1538.82 269.258Z" fill="#E1E8FD"/>
<path fill-rule="evenodd" clip-rule="evenodd" d="M1460.06 152.559C1477.61 166.263 1477.18 217.653 1454.28 238.423C1431.38 259.194 1374.45 258.551 1369.1 248.059C1363.75 237.567 1376.8 165.835 1399.27 150.632C1421.75 135.429 1450 144.637 1460.06 152.559Z" fill="white"/>
<path fill-rule="evenodd" clip-rule="evenodd" d="M1374.88 258.979C1374.88 258.979 1364.82 248.059 1355.4 249.986C1345.98 251.913 1341.06 264.333 1341.06 264.333C1341.06 264.333 1366.31 266.046 1374.88 258.979Z" fill="white"/>
<path fill-rule="evenodd" clip-rule="evenodd" d="M1529.62 268.401C1529.62 268.401 1512.28 247.203 1477.18 246.774C1441.87 246.56 1416.18 268.401 1416.18 268.401C1416.18 268.401 1460.49 275.467 1529.62 268.401Z" fill="white"/>
<path fill-rule="evenodd" clip-rule="evenodd" d="M1341.27 227.289C1341.27 227.289 1323.29 259.622 1292.9 264.333C1262.51 269.043 1252.02 255.125 1252.02 255.125C1252.02 255.125 1266.15 188.532 1296.75 184.678C1326.93 181.038 1341.27 227.289 1341.27 227.289Z" fill="white"/>
<path fill-rule="evenodd" clip-rule="evenodd" d="M1258.87 220.223C1258.87 220.223 1243.89 256.624 1227.2 258.98C1227.2 258.98 1219.28 202.879 1239.61 201.808C1260.16 200.523 1258.87 220.223 1258.87 220.223Z" fill="white"/>
<path fill-rule="evenodd" clip-rule="evenodd" d="M1220.99 249.772C1220.99 249.772 1192.52 227.289 1168.98 230.501C1145.44 233.713 1144.15 263.048 1144.15 263.048C1144.15 263.048 1198.73 271.827 1220.99 249.772Z" fill="white"/>
<path fill-rule="evenodd" clip-rule="evenodd" d="M1408.48 132.646C1408.48 132.646 1392.85 108.235 1360.54 115.087C1328.22 121.939 1311.74 175.685 1311.74 175.685C1311.74 175.685 1328 187.248 1352.4 176.97C1372.09 168.833 1408.48 132.646 1408.48 132.646Z" fill="white"/>
<path fill-rule="evenodd" clip-rule="evenodd" d="M1270.22 188.318C1270.22 188.318 1268.29 196.241 1260.8 198.81C1253.31 201.38 1246.03 194.742 1246.03 194.742C1246.03 194.742 1249.24 174.4 1270.22 188.318Z" fill="white"/>
<path fill-rule="evenodd" clip-rule="evenodd" d="M1212.21 176.755C1212.21 176.755 1210.07 208.874 1191.88 218.724C1170.05 230.715 1127.24 230.501 1127.24 230.501C1127.24 230.501 1140.94 154.058 1171.98 154.058C1201.73 153.844 1212.21 176.755 1212.21 176.755Z" fill="white"/>
<path opacity="0.9" fill-rule="evenodd" clip-rule="evenodd" d="M1121.04 258.765C1124.03 236.067 1137.3 151.916 1174.12 153.201C1206.22 154.271 1226.34 187.033 1234.04 203.092C1235.97 201.379 1238.11 200.308 1240.68 200.308C1243.68 191.743 1249.67 181.894 1261.23 183.392C1268.5 184.249 1274.92 188.103 1280.49 192.386C1287.34 185.534 1295.68 180.823 1305.32 182.322C1318.8 149.989 1345.55 101.168 1381.51 111.66C1397.99 116.371 1410.19 126.863 1419.61 140.139C1422.18 139.925 1424.74 139.925 1427.53 139.925C1437.37 140.567 1446.79 143.993 1455.78 149.561C1457.49 150.631 1458.99 151.488 1460.27 152.558C1506.93 185.105 1539.03 269.257 1539.03 269.257C1584.62 242.063 1596.61 270.97 1596.61 270.97L1719.03 280.177L1093 265.831C1099.21 261.12 1110.55 259.407 1121.04 258.765Z" fill="url(#paint2_linear_28_728)"/>
<path fill-rule="evenodd" clip-rule="evenodd" d="M1718.82 280.178C1718.82 280.178 1264.01 253.84 1093 265.832L1718.82 280.178Z" fill="#FFC782"/>
<path fill-rule="evenodd" clip-rule="evenodd" d="M1250.9 313.808C1250.9 313.808 1195.68 264.987 1147.73 313.594C1147.73 313.594 1129.76 298.177 1114.77 318.733C1114.77 318.733 989.782 264.987 868.642 322.801L708.763 332.865L1250.9 313.808Z" fill="url(#paint3_linear_28_728)"/>
<path fill-rule="evenodd" clip-rule="evenodd" d="M1250.9 313.808C1250.9 313.808 873.137 320.66 708.978 332.865L1250.9 313.808Z" fill="#FFE582"/>
<path fill-rule="evenodd" clip-rule="evenodd" d="M1180.27 399.458L982.719 402.884L1077.32 397.959C1077.32 397.959 1120.98 359.202 1155.23 398.816C1155.44 398.816 1173.42 384.469 1180.27 399.458Z" fill="url(#paint4_linear_28_728)"/>
<path fill-rule="evenodd" clip-rule="evenodd" d="M-48.04 449.992V597.31L1677.45 574.612L1692.01 456.844L1250.47 451.705L-48.04 449.992Z" fill="url(#paint5_linear_28_728)"/>
<path opacity="0.5" fill-rule="evenodd" clip-rule="evenodd" d="M-48.04 449.992V472.261C-36.9106 473.545 -24.711 471.404 -13.3675 470.333C46.5603 464.766 106.916 462.197 167.272 463.481C167.272 463.267 167.272 462.839 167.486 462.625C169.198 458.771 176.261 458.342 181.826 458.771C231.267 462.197 280.493 465.409 329.934 468.835C305.962 472.046 281.991 475.472 257.806 478.684C270.648 481.04 283.489 482.753 296.545 484.252C327.365 487.678 358.827 488.962 390.075 487.678C389.861 487.249 389.647 486.821 389.861 486.179C390.075 485.75 390.289 485.322 390.717 484.894C392.858 482.967 397.138 482.539 400.563 482.539C504.58 482.539 608.598 482.539 712.402 482.753C711.117 481.896 710.475 480.397 711.117 479.327C712.83 475.901 718.823 474.83 723.959 474.616C775.754 470.762 828.619 473.974 878.701 484.68C860.937 486.179 843.173 487.678 825.408 489.176C808.286 490.675 791.378 491.96 774.256 493.459C725.457 497.527 676.445 501.596 627.647 505.878C855.158 515.514 1082.88 518.94 1310.61 516.156C1257.32 511.66 1203.81 507.163 1150.52 502.666C1160.58 496.885 1174.27 494.315 1186.9 496.028C1181.34 495.172 1175.77 494.315 1169.99 493.459C1167.43 493.031 1164.86 492.602 1162.29 492.174C1139.17 488.534 1116.06 484.894 1092.73 481.254C1098.51 481.896 1103.43 477.4 1103.43 473.331C1159.51 471.19 1216.01 472.261 1271.87 476.329C1262.88 479.755 1253.89 483.395 1244.9 486.821C1387.45 493.673 1530.63 495.172 1673.39 491.104C1678.95 490.889 1684.95 490.675 1689.44 488.32C1697.79 484.037 1697.14 474.188 1691.15 468.192C1690.08 467.122 1688.8 452.561 1687.51 451.49L-48.04 449.992Z" fill="url(#paint6_linear_28_728)"/>
<path opacity="0.4" fill-rule="evenodd" clip-rule="evenodd" d="M-48.04 481.254V493.459H956.608L857.727 492.174H857.513L605.602 489.176H605.388L280.279 485.108L209.864 484.252L-48.04 481.254Z" fill="url(#paint7_linear_28_728)"/>
<path opacity="0.4" fill-rule="evenodd" clip-rule="evenodd" d="M1032.59 542.065H-32.8438L13.8144 546.776H991.708L1032.59 542.065Z" fill="url(#paint8_linear_28_728)"/>
<path opacity="0.4" fill-rule="evenodd" clip-rule="evenodd" d="M-48.04 499.883L631.713 505.022L1144.1 499.883C1144.1 499.883 765.481 518.726 631.713 516.799C498.16 514.872 -48.04 499.883 -48.04 499.883Z" fill="url(#paint9_linear_28_728)"/>
<path opacity="0.44" fill-rule="evenodd" clip-rule="evenodd" d="M601.963 504.808C601.963 504.808 447.435 511.445 334.214 510.161C220.993 508.876 194.667 501.81 194.667 501.81L601.963 504.808Z" fill="url(#paint10_linear_28_728)"/>
<path opacity="0.6" fill-rule="evenodd" clip-rule="evenodd" d="M1032.59 542.065C1032.59 542.065 864.79 542.065 566.221 542.065C566.221 542.065 847.454 563.05 1032.59 542.065Z" fill="url(#paint11_linear_28_728)"/>
<path opacity="0.44" fill-rule="evenodd" clip-rule="evenodd" d="M351.55 488.32C351.55 488.32 238.757 493.459 168.342 493.459C97.927 493.459 36.501 482.11 36.501 482.11L351.55 488.32Z" fill="url(#paint12_linear_28_728)"/>
<path fill-rule="evenodd" clip-rule="evenodd" d="M750.07 501.167C750.07 501.167 557.231 509.09 467.553 504.379L750.07 501.167Z" fill="#FFF7FF"/>
<path fill-rule="evenodd" clip-rule="evenodd" d="M713.686 530.503C713.686 530.503 604.317 534.143 493.237 529.646L713.686 530.503Z" fill="#FFF7FF"/>
<path fill-rule="evenodd" clip-rule="evenodd" d="M719.251 451.276C719.251 451.276 624.008 457.914 521.061 449.992L719.251 451.276Z" fill="#FFF7FF"/>
<path fill-rule="evenodd" clip-rule="evenodd" d="M637.92 545.706L560.441 546.134C560.441 546.134 591.69 549.132 637.92 545.706Z" fill="#FFF7FF"/>
<path fill-rule="evenodd" clip-rule="evenodd" d="M484.89 467.978L583.771 471.19L397.994 478.684H758.203L420.039 482.539C420.039 482.539 507.148 496.671 725.671 496.671L478.041 501.167C478.041 501.167 639.418 506.092 736.373 496.671C736.373 496.671 569.645 492.817 537.54 488.32L811.068 480.397L759.06 477.614L720.749 473.117L765.48 470.119L484.89 467.978Z" fill="#FFF7FF"/>
<path fill-rule="evenodd" clip-rule="evenodd" d="M486.816 527.505C486.816 527.505 472.69 525.149 458.136 527.505H486.816Z" fill="#FFF7FF"/>
<path fill-rule="evenodd" clip-rule="evenodd" d="M648.621 457.272C648.621 457.272 634.495 454.916 619.941 457.272H648.621Z" fill="#FFF7FF"/>
<path fill-rule="evenodd" clip-rule="evenodd" d="M555.519 545.706C555.519 545.706 548.884 542.708 541.821 545.706H555.519Z" fill="#FFF7FF"/>
<path fill-rule="evenodd" clip-rule="evenodd" d="M645.625 515.3C645.625 515.3 527.053 513.587 519.99 516.584L645.625 515.3Z" fill="#FFF7FF"/>
<path fill-rule="evenodd" clip-rule="evenodd" d="M615.661 465.409C615.661 465.409 609.026 462.411 601.963 465.409H615.661Z" fill="#FFF7FF"/>
<path fill-rule="evenodd" clip-rule="evenodd" d="M757.347 542.28C757.347 542.28 765.266 538.639 775.754 541.637C775.754 541.637 764.838 544.849 757.347 542.28Z" fill="#FFF7FF"/>
<path fill-rule="evenodd" clip-rule="evenodd" d="M673.662 466.051C673.662 466.051 641.558 463.267 623.794 466.051C623.794 466.051 637.064 468.834 673.662 466.051Z" fill="#FFF7FF"/>
<path fill-rule="evenodd" clip-rule="evenodd" d="M463.059 504.593C463.059 504.593 441.87 503.309 434.807 504.808C434.807 504.808 439.73 506.092 463.059 504.593Z" fill="#FFF7FF"/>
<path d="M1286.21 584.676L1302.9 535.213L1309.75 531.787L1340.79 428.793L1381.24 402.67L1398.58 491.532L1393.65 584.89L1286.21 584.676Z" fill="url(#paint13_linear_28_728)"/>
<path opacity="0.5" d="M1381.24 402.67L1378.24 488.962L1364.33 549.346L1341.22 557.054L1330.09 579.966L1394.29 584.89L1398.58 491.532L1381.24 402.67Z" fill="#B17B9D"/>
<path d="M1340.79 428.793L1378.24 488.962L1381.24 402.67L1340.79 428.793Z" fill="#E7B08D"/>
<path d="M1302.9 535.213L1341.22 557.054L1364.33 549.346L1309.75 531.787L1302.9 535.213Z" fill="#E7B08D"/>
<path opacity="0.5" fill-rule="evenodd" clip-rule="evenodd" d="M1304.4 578.467L1312.96 540.995L1325.16 536.712L1335.01 479.112L1338.22 477.828L1329.02 532.216L1330.51 532.43L1334.79 508.876L1350.85 513.373L1344.85 543.136L1322.81 546.776L1314.89 578.895L1304.4 578.467Z" fill="#EAB081"/>
<path opacity="0.5" fill-rule="evenodd" clip-rule="evenodd" d="M1353.63 545.92L1363.26 464.98L1379.31 455.773L1392.37 490.675L1384.24 584.676L1380.81 583.82L1389.37 490.247L1379.1 460.698L1366.9 467.121L1358.34 547.418L1353.63 545.92Z" fill="#EAB081"/>
<path opacity="0.3" fill-rule="evenodd" clip-rule="evenodd" d="M1381.02 583.82L1384.24 584.676V584.034L1394.29 584.89L1398.58 491.532L1381.24 402.67L1340.79 428.793L1309.75 531.787L1302.9 535.213L1286.21 584.676L1304.4 565.833V578.467L1314.89 578.895V578.681L1330.51 579.966L1381.02 583.82Z" fill="url(#paint14_linear_28_728)"/>
<path d="M1396.01 578.896L1457.43 463.482L1478.62 457.701L1549.04 206.104L1583.92 175.698L1598.91 178.053L1587.35 154.071L1668.25 17.4595V570.117L1396.01 578.896Z" fill="url(#paint15_linear_28_728)"/>
<path opacity="0.5" d="M1587.35 154.07L1644.71 151.073L1668.25 17.4585V570.116L1425.54 577.824L1524 569.688L1546.9 473.117L1625.87 460.055L1617.74 417.445L1661.83 188.33L1583.92 175.697L1598.91 178.052L1587.35 154.07Z" fill="#B17B9D"/>
<path opacity="0.5" fill-rule="evenodd" clip-rule="evenodd" d="M1418.27 577.824L1467.92 466.479L1507.73 457.7L1499.17 451.704L1532.13 320.874H1541.55L1518.43 438.643L1532.13 435.431L1541.55 398.387L1546.9 394.533L1541.55 430.72H1546.9L1583.92 200.75L1598.91 178.052H1605.54L1587.56 199.679L1552.25 436.502L1576 460.055L1514.58 469.477L1490.82 545.491L1480.12 548.489L1499.81 473.331L1490.82 473.117L1443.31 576.325L1418.27 577.824Z" fill="#EAB081"/>
<path opacity="0.3" fill-rule="evenodd" clip-rule="evenodd" d="M1587.35 153.642L1593.13 165.633L1598.91 177.624L1583.92 175.269L1549.04 205.675L1478.62 457.272L1457.43 463.053L1396.01 578.253L1581.78 572.471L1581.57 573.542L1668.25 569.688V525.15V359.202V187.902V99.6826V85.3362V17.0302L1587.35 153.642Z" fill="url(#paint16_linear_28_728)"/>
<g opacity="0.8">
<path opacity="0.8" fill-rule="evenodd" clip-rule="evenodd" d="M1398.58 491.532L1381.24 402.67L1340.79 428.793L1309.75 531.787L1302.9 535.213L1286.21 584.676L1393.22 584.89H1394.29L1398.58 491.532Z" fill="url(#paint17_linear_28_728)"/>
<path opacity="0.8" fill-rule="evenodd" clip-rule="evenodd" d="M1587.35 153.642L1587.56 153.856L1587.35 154.07L1593.13 166.061L1598.48 177.624L1583.92 175.269L1549.04 205.675L1478.62 457.272L1457.43 463.053L1396.01 578.253H1396.22L1396.01 578.895L1581.78 572.899L1581.57 573.542H1581.78L1581.57 573.97L1668.25 570.116V569.688V525.578V525.15V359.631V359.202V188.33V187.902V100.325V99.6826V85.7644V85.3362V17.4585V17.0302L1587.35 153.642Z" fill="url(#paint18_linear_28_728)"/>
</g>
<path fill-rule="evenodd" clip-rule="evenodd" d="M1664.18 563.264H738.941L582.915 567.76L512.714 563.264L-48.04 545.491V820H1664.18V563.264Z" fill="url(#paint19_linear_28_728)"/>
<path fill-rule="evenodd" clip-rule="evenodd" d="M-48.04 545.491V558.553L156.785 565.191L-22.7847 577.182L227.628 585.533L495.591 562.193L-48.04 545.491Z" fill="#FFDB43"/>
<path fill-rule="evenodd" clip-rule="evenodd" d="M1694.58 555.341V568.617L1489.75 575.255L1669.54 587.246L1418.91 595.597L867.358 563.264L1694.58 555.341Z" fill="#FFDB43"/>
<path fill-rule="evenodd" clip-rule="evenodd" d="M91.9346 820H1622.45L849.594 672.039L731.664 619.15L894.54 584.462L738.941 563.264L582.915 567.76L619.3 575.255L371.455 610.371L197.664 655.123L185.251 733.707L91.9346 820Z" fill="url(#paint20_linear_28_728)"/>
<path fill-rule="evenodd" clip-rule="evenodd" d="M30.5082 820L103.278 805.654L54.6934 803.512L-18.7183 796.446L110.983 698.591L91.9342 670.755L111.839 646.558L250.957 620.863L365.034 601.592L541.607 583.606L584.199 572.471L571.357 567.118L585.911 568.403L619.299 575.255L373.595 609.729L282.205 652.982L210.078 682.746L185.25 733.707L109.699 820H30.5082Z" fill="url(#paint21_linear_28_728)"/>
<path fill-rule="evenodd" clip-rule="evenodd" d="M615.019 771.393L572.428 773.749L598.325 820H661.891L615.019 771.393Z" fill="url(#paint22_linear_28_728)"/>
<path fill-rule="evenodd" clip-rule="evenodd" d="M529.408 641.848L530.692 648.914L541.393 652.982L531.334 651.269L546.958 727.926L572.213 773.106L611.808 767.967L567.077 721.716L558.088 687.028L551.239 686.386L557.017 683.388L546.958 645.06L645.625 602.02L712.402 585.533L696.992 574.398L670.452 565.191H667.456L696.35 575.469L706.195 584.676L637.92 599.023L529.408 641.848Z" fill="url(#paint23_linear_28_728)"/>
<path fill-rule="evenodd" clip-rule="evenodd" d="M159.567 820L239.185 682.746L380.658 617.866L537.968 591.742L620.797 575.469L586.767 567.546H588.693L606.243 571.4L625.078 575.897L548.67 592.171L531.762 597.31L385.581 620.863L290.124 673.966L261.872 691.739L219.495 767.539L202.373 820H159.567Z" fill="url(#paint24_linear_28_728)"/>
<path fill-rule="evenodd" clip-rule="evenodd" d="M1424.47 820L1278.08 776.532L938.63 706.514L806.146 678.035L712.402 617.866L731.664 613.369L731.878 616.153L722.675 618.936L812.139 670.755L1245.33 755.334L1549.25 820H1424.47Z" fill="url(#paint25_linear_28_728)"/>
<path opacity="0.2" fill-rule="evenodd" clip-rule="evenodd" d="M1225.64 738.418L723.103 758.332L773.185 793.234H988.926L420.681 809.294L407.839 820H1622.45L1225.64 738.418Z" fill="#A7A7C7"/>
<path opacity="0.2" fill-rule="evenodd" clip-rule="evenodd" d="M1151.8 729.853L1090.59 720.003L271.504 737.776L294.405 724.072L498.588 724.286L494.521 720.003L252.241 716.577L266.581 702.659L398.637 700.304L438.874 664.973L271.932 659.192L210.078 682.746L185.251 733.707L139.663 779.744L1151.8 729.853Z" fill="#A7A7C7"/>
<path opacity="0.2" fill-rule="evenodd" clip-rule="evenodd" d="M766.979 634.996L282.205 652.982L294.191 647.415L653.544 637.351L763.34 632.426L766.979 634.996Z" fill="#A7A7C7"/>
<path opacity="0.3" fill-rule="evenodd" clip-rule="evenodd" d="M352.192 620.007L742.151 623.861L731.664 619.15L489.812 617.223L496.233 613.369L764.41 612.298L772.543 610.585L514.853 606.945L373.595 609.729L352.192 620.007Z" fill="#EAB081"/>
<path opacity="0.1" fill-rule="evenodd" clip-rule="evenodd" d="M407.839 709.297L450.003 669.256L723.103 665.83L802.293 700.304L407.839 709.297Z" fill="#EAB081"/>
<path opacity="0.33" fill-rule="evenodd" clip-rule="evenodd" d="M731.664 619.15L705.553 620.007L756.278 632.426L677.943 636.28H731.664L750.285 650.841L695.28 652.982L702.128 659.192L759.916 657.051L803.578 687.67L873.779 706.514L975.87 696.45L843.387 669.256L731.664 619.15Z" fill="#A7A7C7"/>
<path fill-rule="evenodd" clip-rule="evenodd" d="M562.368 774.391L572.427 773.749L572.213 773.106L562.368 774.391Z" fill="#887B9F"/>
<path opacity="0.37" fill-rule="evenodd" clip-rule="evenodd" d="M109.699 820L101.352 811.435L112.695 803.941L121.042 801.371L127.035 790.451L137.094 782.528V767.111L144.157 749.553L139.663 744.414L149.508 747.197L156.785 751.908L168.556 749.767L175.833 744.414V729.639L182.682 727.284L194.882 713.794L203.015 682.746L200.661 678.249L205.155 669.042L216.713 671.611V673.966L231.053 672.039L240.47 664.331H247.319L268.079 652.982L282.205 647.415L343.845 623.861L282.205 652.982L210.078 682.746L185.251 733.707L109.699 820Z" fill="#A7A7C7"/>
<path fill-rule="evenodd" clip-rule="evenodd" d="M149.508 747.197L166.844 744.414L174.121 735.206L172.195 727.926L139.663 737.562V744.414L149.508 747.197Z" fill="#FFE5D1"/>
<path fill-rule="evenodd" clip-rule="evenodd" d="M185.892 712.081L189.531 706.514H183.752L176.689 709.083L178.829 712.081H185.892Z" fill="#FFE5D1"/>
<path fill-rule="evenodd" clip-rule="evenodd" d="M118.902 779.102L111.197 788.095H89.7939V783.599L99.8533 779.102H118.902Z" fill="#FFE5D1"/>
<path fill-rule="evenodd" clip-rule="evenodd" d="M137.094 774.177L124.467 779.102L116.333 786.382L120.828 793.234L127.035 790.451L137.094 782.528V774.177Z" fill="#FFE5D1"/>
<path fill-rule="evenodd" clip-rule="evenodd" d="M185.892 700.09L178.401 702.873H169.198L159.567 700.09L165.346 696.664L181.826 697.734L185.892 700.09Z" fill="#FFE5D1"/>
<path opacity="0.79" fill-rule="evenodd" clip-rule="evenodd" d="M159.567 811.435L144.799 820H109.699L130.459 803.726L159.567 811.435Z" fill="#887B9F"/>
<path opacity="0.79" fill-rule="evenodd" clip-rule="evenodd" d="M159.139 779.958L137.094 788.738L143.515 779.102L159.139 779.958Z" fill="#887B9F"/>
<path opacity="0.5" fill-rule="evenodd" clip-rule="evenodd" d="M225.273 692.167L217.568 699.661L204.299 702.873L202.586 697.949L218.853 691.739L225.273 692.167Z" fill="#887B9F"/>
<path opacity="0.5" fill-rule="evenodd" clip-rule="evenodd" d="M205.797 713.366L189.103 721.931V713.794L205.797 713.366Z" fill="#887B9F"/>
<path fill-rule="evenodd" clip-rule="evenodd" d="M172.837 706.514V709.297H163.42L161.065 706.514H172.837Z" fill="#FFE5D1"/>
<path fill-rule="evenodd" clip-rule="evenodd" d="M137.094 744.414L132.385 737.562L110.34 743.343L98.5688 760.045L137.094 756.405V744.414Z" fill="#FFE5D1"/>
<path fill-rule="evenodd" clip-rule="evenodd" d="M255.452 647.415L242.61 645.06L241.326 648.486L250.957 650.627L258.662 647.843L255.452 647.415Z" fill="#FFF5E5"/>
<path fill-rule="evenodd" clip-rule="evenodd" d="M241.326 650.627L235.547 649.556L228.27 650.627L222.492 652.982L241.326 654.481L244.751 652.126L241.326 650.627Z" fill="#FFF5E5"/>
<path fill-rule="evenodd" clip-rule="evenodd" d="M292.907 630.927L285.63 629.857L281.349 632.426L288.626 632.64L292.907 630.927Z" fill="#FFF5E5"/>
<path fill-rule="evenodd" clip-rule="evenodd" d="M205.797 713.366L202.373 707.37L189.959 709.725L189.103 713.794L192.956 717.006L205.797 713.366Z" fill="#FFBDBD"/>
<path fill-rule="evenodd" clip-rule="evenodd" d="M225.274 692.167L222.705 689.812L214.786 687.028L211.362 689.812L210.078 697.949H219.067L225.274 692.167Z" fill="#FFBDBD"/>
<path fill-rule="evenodd" clip-rule="evenodd" d="M161.065 767.325L156.57 765.184L143.515 772.464V782.956L159.139 779.959L161.065 767.325Z" fill="#FFBDBD"/>
<path fill-rule="evenodd" clip-rule="evenodd" d="M156.785 796.232L143.087 793.234L132.814 800.515L122.969 814.433H144.8L159.568 811.435L156.785 796.232Z" fill="#FFBDBD"/>
<path fill-rule="evenodd" clip-rule="evenodd" d="M156.785 796.232L146.725 803.726L132.813 800.515L143.087 793.234L156.785 796.232Z" fill="#FFE5D1"/>
<path fill-rule="evenodd" clip-rule="evenodd" d="M161.065 767.325L152.29 775.462L143.515 772.464L156.57 765.184L161.065 767.325Z" fill="#FFE5D1"/>
<path fill-rule="evenodd" clip-rule="evenodd" d="M222.705 689.812L216.927 692.595L214.358 693.452L211.362 689.812L214.786 687.028L222.705 689.812Z" fill="#FFE5D1"/>
<path fill-rule="evenodd" clip-rule="evenodd" d="M280.279 654.267L278.352 652.126L271.932 649.984L269.149 652.126L268.079 658.978H275.356L280.279 654.267Z" fill="#FFBDBD"/>
<path fill-rule="evenodd" clip-rule="evenodd" d="M278.353 652.126L273.644 654.481L271.504 655.123L269.149 652.126L271.932 649.984L278.353 652.126Z" fill="#FFE5D1"/>
<path fill-rule="evenodd" clip-rule="evenodd" d="M202.373 707.37L204.299 710.796L193.811 712.081L189.959 709.725L202.373 707.37Z" fill="#FFE5D1"/>
<path fill-rule="evenodd" clip-rule="evenodd" d="M293.335 651.697L290.552 647.843L281.349 648.914L280.707 651.483L283.917 653.625L293.335 651.697Z" fill="#FFBDBD"/>
<path fill-rule="evenodd" clip-rule="evenodd" d="M290.552 647.843L292.051 649.984L284.346 650.413L281.349 648.914L290.552 647.843Z" fill="#FFE5D1"/>
<path fill-rule="evenodd" clip-rule="evenodd" d="M584.199 572.471L841.675 577.182L738.941 563.264L582.915 567.76L571.357 567.118L584.199 572.471Z" fill="#FEB081"/>
<path opacity="0.79" d="M-48.04 793.234L-29.8477 779.744L116.334 744.414L127.035 734.35L0.758362 754.049L85.5134 693.452L238.115 659.834L242.396 657.265L127.035 673.967L211.576 645.06L279.423 626.859L332.288 620.863L334.642 619.365L288.626 623.433L371.455 604.376L396.924 602.877L398.422 602.02L374.879 603.519L430.099 597.31L439.944 598.166L442.084 597.738L429.671 596.881L462.203 593.241L474.616 591.742H475.687L464.985 592.171H457.28L354.333 603.305L210.292 633.925L58.974 678.249L-48.04 728.354V793.234Z" fill="url(#paint26_linear_28_728)"/>
<path fill-rule="evenodd" clip-rule="evenodd" d="M1.40058 679.105L26.4419 820H15.9545L-14.4375 687.885L1.40058 679.105Z" fill="url(#paint27_linear_28_728)"/>
<path fill-rule="evenodd" clip-rule="evenodd" d="M1.18641 820L-29.8477 696.45L-14.4376 687.885L15.9543 820H1.18641Z" fill="url(#paint28_linear_28_728)"/>
<path fill-rule="evenodd" clip-rule="evenodd" d="M114.407 603.305L127.035 734.35L116.334 744.414L98.5693 612.298L114.407 603.305Z" fill="url(#paint29_linear_28_728)"/>
<path fill-rule="evenodd" clip-rule="evenodd" d="M104.99 744.414L83.1587 620.649L98.5687 612.298L116.333 744.414H104.99Z" fill="url(#paint30_linear_28_728)"/>
<path fill-rule="evenodd" clip-rule="evenodd" d="M243.252 589.601L242.396 657.265L238.115 659.834L235.333 594.098L243.252 589.601Z" fill="url(#paint31_linear_28_728)"/>
<path fill-rule="evenodd" clip-rule="evenodd" d="M232.551 659.834L227.628 598.166L235.333 594.098L238.115 659.834H232.551Z" fill="url(#paint32_linear_28_728)"/>
<path fill-rule="evenodd" clip-rule="evenodd" d="M335.07 581.036L334.642 619.365L332.287 620.863L330.575 583.392L335.07 581.036Z" fill="url(#paint33_linear_28_728)"/>
<path fill-rule="evenodd" clip-rule="evenodd" d="M329.077 620.863L326.295 585.747L330.575 583.392L332.288 620.863H329.077Z" fill="url(#paint34_linear_28_728)"/>
<path fill-rule="evenodd" clip-rule="evenodd" d="M398.637 579.109L398.423 602.02L396.924 602.877L396.068 580.608L398.637 579.109Z" fill="url(#paint35_linear_28_728)"/>
<path fill-rule="evenodd" clip-rule="evenodd" d="M394.998 602.877L393.5 581.893L396.068 580.608L396.924 602.877H394.998Z" fill="url(#paint36_linear_28_728)"/>
<path fill-rule="evenodd" clip-rule="evenodd" d="M442.085 583.606V597.738L441.014 598.166L440.586 584.462L442.085 583.606Z" fill="url(#paint37_linear_28_728)"/>
<path fill-rule="evenodd" clip-rule="evenodd" d="M439.945 598.166L438.874 585.533L440.587 584.462L441.015 598.166H439.945Z" fill="url(#paint38_linear_28_728)"/>
<path fill-rule="evenodd" clip-rule="evenodd" d="M476.758 577.182L476.543 591.314L475.687 591.742L475.044 578.252L476.758 577.182Z" fill="url(#paint39_linear_28_728)"/>
<path fill-rule="evenodd" clip-rule="evenodd" d="M474.617 591.742L473.546 579.109L475.045 578.252L475.688 591.742H474.617Z" fill="url(#paint40_linear_28_728)"/>
<path fill-rule="evenodd" clip-rule="evenodd" d="M510.36 574.612V587.674L509.504 588.316L508.861 575.469L510.36 574.612Z" fill="url(#paint41_linear_28_728)"/>
<path fill-rule="evenodd" clip-rule="evenodd" d="M508.433 588.316L507.363 576.325L508.862 575.469L509.504 588.316H508.433Z" fill="url(#paint42_linear_28_728)"/>
<path fill-rule="evenodd" clip-rule="evenodd" d="M-48.04 597.31L91.9343 573.113L437.804 567.118L546.958 559.409L571.571 558.553V561.765L569.645 563.692L571.999 565.191V568.189L548.456 570.544L452.144 584.462L113.979 616.795L-48.04 706.514V597.31Z" fill="url(#paint43_linear_28_728)"/>
<path fill-rule="evenodd" clip-rule="evenodd" d="M-48.04 590.886L63.2546 573.756L87.2257 568.831L437.804 565.833L544.176 559.195L546.958 559.409L437.804 567.118L91.9343 573.113L36.7151 582.749L-48.04 597.31V590.886Z" fill="white"/>
<path opacity="0.5" fill-rule="evenodd" clip-rule="evenodd" d="M-48.04 623.005L88.2958 587.032L435.021 575.041L571.571 561.765L569.645 563.692L571.999 565.191L489.812 572.685L436.733 580.394L100.709 603.305L-48.04 673.966V623.005Z" fill="url(#paint44_linear_28_728)"/>
<path opacity="0.79" fill-rule="evenodd" clip-rule="evenodd" d="M-48.04 623.005V645.06L91.9343 597.31L379.802 580.394L433.309 578.252L569.645 563.692L571.571 561.765L435.021 575.041L88.2958 587.032L-48.04 623.005Z" fill="url(#paint45_linear_28_728)"/>
<path opacity="0.79" fill-rule="evenodd" clip-rule="evenodd" d="M117.189 632.426L103.064 645.06L93.4322 678.249L85.5132 632.426L101.351 623.647L113.979 616.795L116.333 616.581L117.189 632.426Z" fill="#A7A7C7"/>
<path opacity="0.79" fill-rule="evenodd" clip-rule="evenodd" d="M4.82487 697.734L-10.1571 706.514L-19.1463 739.061L-29.8477 696.45L1.40043 679.105L4.82487 697.734Z" fill="#A7A7C7"/>
<path opacity="0.79" fill-rule="evenodd" clip-rule="evenodd" d="M242.824 604.376V612.512H236.618L229.341 617.866L228.271 605.875L242.824 604.376Z" fill="#A7A7C7"/>
<path opacity="0.79" fill-rule="evenodd" clip-rule="evenodd" d="M334.856 599.237L330.789 599.879L327.579 602.02L327.151 596.453L334.856 595.597V599.237Z" fill="#A7A7C7"/>
<path opacity="0.3" fill-rule="evenodd" clip-rule="evenodd" d="M398.423 591.742L396.496 591.314L394.142 592.171V590.029L398.423 589.601V591.742Z" fill="#A7A7C7"/>
<path opacity="0.3" fill-rule="evenodd" clip-rule="evenodd" d="M442.084 586.603L440.586 586.817L439.302 589.173L438.874 585.747L442.084 585.533V586.603Z" fill="#A7A7C7"/>
<path opacity="0.2" fill-rule="evenodd" clip-rule="evenodd" d="M91.9339 587.246V597.31L-7.80322 631.356V612.298L91.9339 587.246Z" fill="#A7A7C7"/>
<path opacity="0.2" fill-rule="evenodd" clip-rule="evenodd" d="M261.873 587.46V581.893L336.14 578.467L332.074 582.963L261.873 587.46Z" fill="#A7A7C7"/>
<path fill-rule="evenodd" clip-rule="evenodd" d="M857.084 589.601L764.624 572.043L725.671 563.692H723.103L794.802 579.751L847.025 591.1L857.084 589.601Z" fill="white"/>
<path fill-rule="evenodd" clip-rule="evenodd" d="M1622.45 820L849.593 672.039L731.664 619.15V606.945L749.214 615.51L857.298 652.982L1223.93 713.58L1664.18 776.533V820H1622.45Z" fill="url(#paint46_linear_28_728)"/>
<path fill-rule="evenodd" clip-rule="evenodd" d="M1664.18 776.533L1223.93 713.58L857.298 652.982L749.214 615.51L731.664 606.945L758.203 603.305L894.539 584.462L750.284 563.264L816.847 562.193L1047.78 594.526L1010.97 605.446L973.943 619.793L1664.18 682.746V776.533Z" fill="url(#paint47_linear_28_728)"/>
<path fill-rule="evenodd" clip-rule="evenodd" d="M750.284 563.264V567.118L879.343 586.603L894.539 584.462L750.284 563.264Z" fill="url(#paint48_linear_28_728)"/>
<path opacity="0.79" fill-rule="evenodd" clip-rule="evenodd" d="M1664.18 820L1452.72 787.453L1376.32 769.038L1318.96 757.475L852.161 669.256L769.333 636.066L731.664 613.369V619.15L849.593 672.039L1622.45 820H1664.18Z" fill="url(#paint49_linear_28_728)"/>
<path opacity="0.2" fill-rule="evenodd" clip-rule="evenodd" d="M857.298 652.982L851.305 672.468L1622.45 820H1664.18V776.533L857.298 652.982Z" fill="#B05C61"/>
<path fill-rule="evenodd" clip-rule="evenodd" d="M1296.7 757.69L1291.13 723.001L1664.18 713.58L1592.27 718.29L1297.13 724.286L1296.7 757.69Z" fill="#B05C61"/>
<path fill-rule="evenodd" clip-rule="evenodd" d="M1085.67 713.58V691.739L1406.49 659.192L1234.2 675.037L1079.46 689.384L1085.67 713.58Z" fill="#B05C61"/>
<path fill-rule="evenodd" clip-rule="evenodd" d="M1065.55 628.144L808.072 635.852L807.001 652.982L804.433 634.782L909.307 631.356L1065.55 628.144Z" fill="#B05C61"/>
<path fill-rule="evenodd" clip-rule="evenodd" d="M756.919 630.499L755.849 617.866L975.87 620.007L754.351 617.223L756.919 630.499Z" fill="#B05C61"/>
<path fill-rule="evenodd" clip-rule="evenodd" d="M953.183 581.25L892.613 584.248L887.904 583.606L953.183 581.25Z" fill="#B05C61"/>
<path fill-rule="evenodd" clip-rule="evenodd" d="M1421.69 660.691L1377.6 662.19L1391.94 657.907L1421.69 660.691Z" fill="#B05C61"/>
<path fill-rule="evenodd" clip-rule="evenodd" d="M1317.67 723.215L1307.4 725.999L1297.13 732.209L1291.13 723.001L1317.67 723.215Z" fill="#B05C61"/>
<path fill-rule="evenodd" clip-rule="evenodd" d="M1085.88 630.071L1023.6 629L1065.55 628.144L1085.88 630.071Z" fill="#B05C61"/>
<path fill-rule="evenodd" clip-rule="evenodd" d="M1296.7 757.69L1297.13 732.209L1305.04 725.142L1326.66 721.931L1291.13 723.001L1296.7 757.69Z" fill="#6F2C2C"/>
<path fill-rule="evenodd" clip-rule="evenodd" d="M1101.5 687.242L1095.51 690.668L1085.67 691.739V713.58L1079.46 689.384L1101.5 687.242Z" fill="#6F2C2C"/>
<path fill-rule="evenodd" clip-rule="evenodd" d="M821.127 634.139L816.205 635.638L808.072 635.852L807.002 652.982L804.861 636.923L802.293 633.925L821.127 634.139Z" fill="#767283"/>
<path fill-rule="evenodd" clip-rule="evenodd" d="M868.427 654.695L851.305 650.841L855.372 659.192L868.427 654.695Z" fill="#B05C61"/>
<path fill-rule="evenodd" clip-rule="evenodd" d="M1299.05 722.787L1291.77 727.498L1283.86 721.931L1299.05 722.787Z" fill="#B05C61"/>
<path fill-rule="evenodd" clip-rule="evenodd" d="M894.325 633.283L896.68 606.945L895.609 606.089L893.041 632.426L891.757 626.859V591.1H889.403V629L887.904 591.1H885.336V632.426L879.343 619.15L857.084 609.729L854.73 610.371L878.059 619.15L882.34 633.711L894.325 633.283Z" fill="url(#paint50_linear_28_728)"/>
<path d="M1446.95 670.326L1409.49 628.144L1333.51 606.945L1250.68 626.859L1223.29 670.326L1348.49 686.386L1446.95 670.326Z" fill="url(#paint51_linear_28_728)"/>
<path opacity="0.5" d="M1409.49 628.144L1299.05 640.135L1250.68 626.859L1223.29 670.326L1348.49 686.386L1446.95 670.326L1409.49 628.144Z" fill="#B17B9D"/>
<path opacity="0.5" d="M1299.05 640.135L1348.49 686.386L1446.94 670.326L1409.49 628.144L1299.05 640.135Z" fill="#B17B9D"/>
<path fill-rule="evenodd" clip-rule="evenodd" d="M1313.39 638.636L1291.35 637.994L1305.26 643.989L1313.39 638.636Z" fill="#A67E74"/>
<path d="M1370.54 617.223L1276.36 633.925V676.964L1254.96 674.395L1257.53 629L1357.27 613.369L1370.54 617.223Z" fill="#AE8181"/>
<path d="M1195.89 665.616L1183.26 652.982L1155.44 626.859H1128.26L1122.05 640.563L1135.54 665.616L1168.28 669.256L1195.89 665.616Z" fill="url(#paint52_linear_28_728)"/>
<path opacity="0.5" d="M1155.44 626.859L1137.03 637.994L1122.05 640.563L1135.54 665.616L1165.93 669.256L1195.89 665.616L1155.44 626.859Z" fill="#B17B9D"/>
<path opacity="0.5" d="M1155.44 626.859L1137.03 637.994L1165.93 669.256L1195.89 665.616L1155.44 626.859Z" fill="#B17B9D"/>
<path opacity="0.5" d="M1446.95 670.326L1409.49 628.144L1370.54 617.223L1357.27 613.369H1356.84L1333.51 606.945L1250.68 626.859L1223.29 670.326L1254.96 674.395L1276.37 676.964L1348.49 686.386L1446.95 670.326Z" fill="url(#paint53_linear_28_728)"/>
<path opacity="0.5" d="M1155.44 626.859H1128.26L1122.05 640.563L1135.54 665.616L1165.93 669.256H1167H1168.28L1195.89 665.616L1183.26 652.982L1155.44 626.859Z" fill="url(#paint54_linear_28_728)"/>
<path opacity="0.79" d="M841.46 764.541L824.338 769.895L822.84 771.608L840.39 774.605L865.646 767.325L841.46 764.541Z" fill="#887B9F"/>
<path opacity="0.79" d="M940.769 763.685L926.215 766.897L923.219 769.895L933.064 772.678L952.113 767.111L940.769 763.685Z" fill="#887B9F"/>
<path opacity="0.79" d="M918.725 740.345L899.034 745.484L903.101 754.049L931.352 759.617L949.973 760.901L973.516 749.767L979.723 744.628L918.725 740.345Z" fill="#887B9F"/>
<path d="M979.722 744.628L964.098 724.072L926.215 724.5L918.724 740.345L949.116 744.842L979.722 744.628Z" fill="url(#paint55_linear_28_728)"/>
<path d="M868.428 763.899L864.362 753.407L852.376 752.55L838.892 759.617L842.103 765.612L865.646 767.325L868.428 763.899Z" fill="url(#paint56_linear_28_728)"/>
<path d="M952.113 767.111L958.962 762.614L950.4 757.475L941.197 756.833L940.555 766.469L952.113 767.111Z" fill="url(#paint57_linear_28_728)"/>
<path opacity="0.5" d="M964.098 724.072L946.548 733.707L931.566 731.138L926.215 724.5L918.724 740.345L949.116 744.842L979.722 744.628L964.098 724.072Z" fill="#B17B9D"/>
<path opacity="0.5" d="M958.962 762.614L952.113 767.111L940.555 766.469L940.983 761.33L950.186 759.188L950.4 757.475L958.962 762.614Z" fill="#B17B9D"/>
<path opacity="0.5" d="M864.362 753.407L868.428 763.899L865.646 767.325L842.103 765.612L838.892 759.617L859.867 760.045L864.362 753.407Z" fill="#B17B9D"/>
<path opacity="0.5" d="M859.867 760.045L865.646 767.325L842.103 765.612L838.892 759.617L859.867 760.045Z" fill="#B17B9D"/>
<path opacity="0.5" d="M950.186 759.188L952.113 767.111L940.555 766.469L940.983 761.33L950.186 759.188Z" fill="#B17B9D"/>
<path opacity="0.5" d="M946.548 733.707L949.116 744.842L918.724 740.345L926.215 724.5L931.566 731.138L946.548 733.707Z" fill="#B17B9D"/>
<path opacity="0.79" fill-rule="evenodd" clip-rule="evenodd" d="M519.776 424.939H514.854C516.566 426.438 519.134 427.08 519.776 424.939Z" fill="url(#paint58_linear_28_728)"/>
<path fill-rule="evenodd" clip-rule="evenodd" d="M68.8193 730.496L51.055 669.042H45.7043L62.8266 727.926H57.2618L45.7043 697.949L35.0029 702.874L51.9111 738.418L49.7708 739.061L36.9292 710.368L35.431 711.01L43.564 749.553L68.8193 730.496Z" fill="url(#paint59_linear_28_728)"/>
<path fill-rule="evenodd" clip-rule="evenodd" d="M76.5244 724.714L67.1072 680.819L63.2547 682.746L72.0298 716.792L69.6755 718.291L58.9741 678.249L56.4058 676.108L69.6755 729.853L76.5244 724.714Z" fill="url(#paint60_linear_28_728)"/>
<path fill-rule="evenodd" clip-rule="evenodd" d="M57.2619 739.061L38.6415 691.739L28.3682 692.596L53.6235 742.058L57.2619 739.061Z" fill="url(#paint61_linear_28_728)"/>
<path fill-rule="evenodd" clip-rule="evenodd" d="M43.5641 749.553L37.1433 737.562L28.3682 739.061L35.003 755.977L43.5641 749.553Z" fill="url(#paint62_linear_28_728)"/>
<path fill-rule="evenodd" clip-rule="evenodd" d="M802.293 612.513L865.86 315.949L860.723 307.812L794.16 611.228C794.16 611.228 799.083 612.084 802.293 612.513Z" fill="url(#paint63_linear_28_728)"/>
<path opacity="0.5" d="M850.878 385.54L841.46 396.032L845.099 379.33L853.446 374.191L850.878 385.54Z" fill="#B17B9D"/>
<path fill-rule="evenodd" clip-rule="evenodd" d="M846.811 379.544L843.815 379.33L813.851 329.011L864.576 278.263L867.786 279.976L899.034 337.576L846.811 379.544Z" fill="url(#paint64_linear_28_728)"/>
<path fill-rule="evenodd" clip-rule="evenodd" d="M843.815 379.33L813.851 329.011L864.576 278.263L896.252 335.649L843.815 379.33Z" fill="url(#paint65_linear_28_728)"/>
<path d="M863.719 353.421L870.782 347.426L861.793 322.159L845.955 313.38L848.095 306.742L834.826 313.594L839.32 327.94L842.745 321.945L856.014 328.368L863.719 353.421Z" fill="#5E3E51"/>
<path d="M899.034 337.576L896.251 335.649L864.575 278.263L867.786 279.976L899.034 337.576Z" fill="#FFFF9D"/>
<path fill-rule="evenodd" clip-rule="evenodd" d="M1000.91 440.784L988.069 455.13H983.575L974.585 445.495L983.789 451.062L1000.91 440.784Z" fill="white"/>
<path fill-rule="evenodd" clip-rule="evenodd" d="M1099.36 448.921L1093.16 455.987H1090.37L1079.25 446.137L1094.01 453.203L1099.36 448.921Z" fill="white"/>
<path fill-rule="evenodd" clip-rule="evenodd" d="M1020.6 421.299L1009.69 426.866L1004.98 414.447L1012.9 424.296L1020.6 421.299Z" fill="white"/>
<path fill-rule="evenodd" clip-rule="evenodd" d="M983.575 455.13H974.8V452.561L985.287 453.846L983.575 455.13Z" fill="white"/>
<path fill-rule="evenodd" clip-rule="evenodd" d="M1102.79 495.6L1115.42 509.732H1119.91L1129.11 500.097L1119.05 505.236L1102.79 495.6Z" fill="white"/>
<path fill-rule="evenodd" clip-rule="evenodd" d="M1119.91 509.732H1128.69V507.377L1118.41 508.448L1119.91 509.732Z" fill="white"/>
<path fill-rule="evenodd" clip-rule="evenodd" d="M1011.4 426.224L1009.69 428.793L1007.55 427.508L1010.33 426.224H1011.4Z" fill="white"/>
<path fill-rule="evenodd" clip-rule="evenodd" d="M1137.89 455.559L1149.87 461.768L1155.22 447.85L1146.45 458.985L1137.89 455.559Z" fill="white"/>
<path fill-rule="evenodd" clip-rule="evenodd" d="M1148.16 460.912L1150.09 464.124L1152.44 462.625L1149.23 460.912H1148.16Z" fill="white"/>
<path fill-rule="evenodd" clip-rule="evenodd" d="M1092.94 455.13L1091.23 457.7H1089.3L1090.37 455.987L1092.94 455.13Z" fill="white"/>
<path fill-rule="evenodd" clip-rule="evenodd" d="M1066.83 442.711L1048 440.356L1051.42 442.711L1061.05 451.704L1062.98 444.424H1068.12L1066.83 442.711Z" fill="white"/>
</g>
<defs>
<linearGradient id="paint0_linear_28_728" x1="808" y1="576.004" x2="808" y2="-305" gradientUnits="userSpaceOnUse">
<stop stop-color="#FFFF61"/>
<stop offset="0.6732" stop-color="#FF5A54"/>
<stop offset="1" stop-color="#8939CF"/>
</linearGradient>
<linearGradient id="paint1_linear_28_728" x1="1576.43" y1="94.438" x2="462.232" y2="94.438" gradientUnits="userSpaceOnUse">
<stop stop-color="#FF4666"/>
<stop offset="1" stop-color="#FF5163"/>
</linearGradient>
<linearGradient id="paint2_linear_28_728" x1="1405.93" y1="280.213" x2="1405.93" y2="110.164" gradientUnits="userSpaceOnUse">
<stop stop-color="#FF3C5C"/>
<stop offset="1" stop-color="#8810B3"/>
</linearGradient>
<linearGradient id="paint3_linear_28_728" x1="979.88" y1="332.792" x2="979.88" y2="291.975" gradientUnits="userSpaceOnUse">
<stop stop-color="#FF6D82"/>
<stop offset="1" stop-color="#D73979"/>
</linearGradient>
<linearGradient id="paint4_linear_28_728" x1="1081.45" y1="402.882" x2="1081.45" y2="380.939" gradientUnits="userSpaceOnUse">
<stop stop-color="#FF6D82"/>
<stop offset="1" stop-color="#D73979"/>
</linearGradient>
<linearGradient id="paint5_linear_28_728" x1="821.984" y1="597.313" x2="821.984" y2="449.909" gradientUnits="userSpaceOnUse">
<stop offset="0.2737" stop-color="#FFCC43"/>
<stop offset="0.7067" stop-color="#FF4C42"/>
<stop offset="1" stop-color="#90196D"/>
</linearGradient>
<linearGradient id="paint6_linear_28_728" x1="824.124" y1="517.01" x2="824.124" y2="449.909" gradientUnits="userSpaceOnUse">
<stop stop-color="white"/>
<stop offset="1" stop-color="#F1D771"/>
</linearGradient>
<linearGradient id="paint7_linear_28_728" x1="956.57" y1="487.306" x2="-48.04" y2="487.306" gradientUnits="userSpaceOnUse">
<stop/>
<stop offset="1" stop-color="#F6F9FF"/>
</linearGradient>
<linearGradient id="paint8_linear_28_728" x1="1032.63" y1="544.373" x2="-32.8326" y2="544.373" gradientUnits="userSpaceOnUse">
<stop/>
<stop offset="1" stop-color="#F6F9FF"/>
</linearGradient>
<linearGradient id="paint9_linear_28_728" x1="1144.09" y1="508.451" x2="-48.04" y2="508.451" gradientUnits="userSpaceOnUse">
<stop/>
<stop offset="1" stop-color="#F6F9FF"/>
</linearGradient>
<linearGradient id="paint10_linear_28_728" x1="398.404" y1="510.195" x2="398.404" y2="501.724" gradientUnits="userSpaceOnUse">
<stop stop-color="#F6F9FF"/>
<stop offset="1"/>
</linearGradient>
<linearGradient id="paint11_linear_28_728" x1="799.453" y1="551.338" x2="799.453" y2="542.051" gradientUnits="userSpaceOnUse">
<stop stop-color="#F6F9FF"/>
<stop offset="1"/>
</linearGradient>
<linearGradient id="paint12_linear_28_728" x1="193.995" y1="493.451" x2="193.995" y2="482.189" gradientUnits="userSpaceOnUse">
<stop stop-color="#F6F9FF"/>
<stop offset="1"/>
</linearGradient>
<linearGradient id="paint13_linear_28_728" x1="1339.26" y1="590.833" x2="1361.27" y2="400.421" gradientUnits="userSpaceOnUse">
<stop offset="0.00558659" stop-color="#8B7584"/>
<stop offset="0.9888" stop-color="#C07A73"/>
</linearGradient>
<linearGradient id="paint14_linear_28_728" x1="1339.63" y1="590.876" x2="1361.65" y2="400.464" gradientUnits="userSpaceOnUse">
<stop stop-color="#7C3EEA"/>
<stop offset="0.0701081" stop-color="#6C36CB"/>
<stop offset="0.2048" stop-color="#4F2896"/>
<stop offset="0.3413" stop-color="#371C68"/>
<stop offset="0.4767" stop-color="#231242"/>
<stop offset="0.6108" stop-color="#140A25"/>
<stop offset="0.7435" stop-color="#090411"/>
<stop offset="0.8741" stop-color="#020104"/>
<stop offset="1"/>
</linearGradient>
<linearGradient id="paint15_linear_28_728" x1="1532.14" y1="578.822" x2="1532.14" y2="17.5072" gradientUnits="userSpaceOnUse">
<stop offset="0.00558659" stop-color="#8B7584"/>
<stop offset="0.9888" stop-color="#C07A73"/>
</linearGradient>
<linearGradient id="paint16_linear_28_728" x1="1532.14" y1="578.348" x2="1532.14" y2="17.0332" gradientUnits="userSpaceOnUse">
<stop stop-color="#7C3EEA"/>
<stop offset="0.0701081" stop-color="#6C36CB"/>
<stop offset="0.2048" stop-color="#4F2896"/>
<stop offset="0.3413" stop-color="#371C68"/>
<stop offset="0.4767" stop-color="#231242"/>
<stop offset="0.6108" stop-color="#140A25"/>
<stop offset="0.7435" stop-color="#090411"/>
<stop offset="0.8741" stop-color="#020104"/>
<stop offset="1"/>
</linearGradient>
<linearGradient id="paint17_linear_28_728" x1="1342.4" y1="584.927" x2="1342.4" y2="402.732" gradientUnits="userSpaceOnUse">
<stop stop-color="#9F397E"/>
<stop offset="1" stop-color="#FF9F6A"/>
</linearGradient>
<linearGradient id="paint18_linear_28_728" x1="1532.14" y1="578.821" x2="1532.14" y2="17.0332" gradientUnits="userSpaceOnUse">
<stop stop-color="#9F397E"/>
<stop offset="1" stop-color="#FF9F6A"/>
</linearGradient>
<linearGradient id="paint19_linear_28_728" x1="808.072" y1="820.003" x2="808.072" y2="545.405" gradientUnits="userSpaceOnUse">
<stop stop-color="#898C34"/>
<stop offset="0.7054" stop-color="#C1AC24"/>
<stop offset="0.9888" stop-color="#CFB07A"/>
</linearGradient>
<linearGradient id="paint20_linear_28_728" x1="857.224" y1="820.003" x2="857.224" y2="563.309" gradientUnits="userSpaceOnUse">
<stop stop-color="#340943"/>
<stop offset="1" stop-color="#7F3436"/>
</linearGradient>
<linearGradient id="paint21_linear_28_728" x1="619.192" y1="693.514" x2="-18.7895" y2="693.514" gradientUnits="userSpaceOnUse">
<stop stop-color="#D98C7C"/>
<stop offset="1" stop-color="#E66542"/>
</linearGradient>
<linearGradient id="paint22_linear_28_728" x1="617.17" y1="820.003" x2="617.17" y2="771.289" gradientUnits="userSpaceOnUse">
<stop stop-color="#9B4C68"/>
<stop offset="1" stop-color="#C4517D"/>
</linearGradient>
<linearGradient id="paint23_linear_28_728" x1="620.84" y1="773.067" x2="620.84" y2="565.215" gradientUnits="userSpaceOnUse">
<stop stop-color="#9B4C68"/>
<stop offset="0.9469" stop-color="#FFBF9F"/>
</linearGradient>
<linearGradient id="paint24_linear_28_728" x1="392.284" y1="820.003" x2="392.284" y2="567.569" gradientUnits="userSpaceOnUse">
<stop stop-color="#9B4C68"/>
<stop offset="0.9469" stop-color="#FFBF9F"/>
</linearGradient>
<linearGradient id="paint25_linear_28_728" x1="1130.85" y1="820.003" x2="1130.85" y2="613.372" gradientUnits="userSpaceOnUse">
<stop stop-color="#9B4C68"/>
<stop offset="0.9469" stop-color="#FFBF9F"/>
</linearGradient>
<linearGradient id="paint26_linear_28_728" x1="475.697" y1="692.542" x2="-48.04" y2="692.542" gradientUnits="userSpaceOnUse">
<stop stop-color="#FFF0FF"/>
<stop offset="1" stop-color="#B8A4D6"/>
</linearGradient>
<linearGradient id="paint27_linear_28_728" x1="5.92064" y1="820.003" x2="5.92064" y2="679.095" gradientUnits="userSpaceOnUse">
<stop stop-color="#FFCFBD"/>
<stop offset="1" stop-color="#F99398"/>
</linearGradient>
<linearGradient id="paint28_linear_28_728" x1="-6.91798" y1="820.003" x2="-6.91798" y2="687.917" gradientUnits="userSpaceOnUse">
<stop stop-color="#D37272"/>
<stop offset="1" stop-color="#DB4A5B"/>
</linearGradient>
<linearGradient id="paint29_linear_28_728" x1="112.763" y1="744.316" x2="112.763" y2="603.408" gradientUnits="userSpaceOnUse">
<stop stop-color="#FFCFBD"/>
<stop offset="1" stop-color="#F99398"/>
</linearGradient>
<linearGradient id="paint30_linear_28_728" x1="99.7778" y1="744.316" x2="99.7778" y2="612.23" gradientUnits="userSpaceOnUse">
<stop stop-color="#D37272"/>
<stop offset="1" stop-color="#DB4A5B"/>
</linearGradient>
<linearGradient id="paint31_linear_28_728" x1="239.245" y1="659.855" x2="239.245" y2="589.657" gradientUnits="userSpaceOnUse">
<stop stop-color="#FFCFBD"/>
<stop offset="1" stop-color="#F99398"/>
</linearGradient>
<linearGradient id="paint32_linear_28_728" x1="232.878" y1="659.855" x2="232.878" y2="594.052" gradientUnits="userSpaceOnUse">
<stop stop-color="#D37272"/>
<stop offset="1" stop-color="#DB4A5B"/>
</linearGradient>
<linearGradient id="paint33_linear_28_728" x1="332.857" y1="620.866" x2="332.857" y2="580.932" gradientUnits="userSpaceOnUse">
<stop stop-color="#FFCFBD"/>
<stop offset="1" stop-color="#F99398"/>
</linearGradient>
<linearGradient id="paint34_linear_28_728" x1="329.235" y1="620.866" x2="329.235" y2="583.432" gradientUnits="userSpaceOnUse">
<stop stop-color="#D37272"/>
<stop offset="1" stop-color="#DB4A5B"/>
</linearGradient>
<linearGradient id="paint35_linear_28_728" x1="397.332" y1="602.846" x2="397.332" y2="579.024" gradientUnits="userSpaceOnUse">
<stop stop-color="#FFCFBD"/>
<stop offset="1" stop-color="#F99398"/>
</linearGradient>
<linearGradient id="paint36_linear_28_728" x1="395.171" y1="602.846" x2="395.171" y2="580.515" gradientUnits="userSpaceOnUse">
<stop stop-color="#D37272"/>
<stop offset="1" stop-color="#DB4A5B"/>
</linearGradient>
<linearGradient id="paint37_linear_28_728" x1="441.338" y1="598.22" x2="441.338" y2="583.649" gradientUnits="userSpaceOnUse">
<stop stop-color="#FFCFBD"/>
<stop offset="1" stop-color="#F99398"/>
</linearGradient>
<linearGradient id="paint38_linear_28_728" x1="440.017" y1="598.22" x2="440.017" y2="584.562" gradientUnits="userSpaceOnUse">
<stop stop-color="#D37272"/>
<stop offset="1" stop-color="#DB4A5B"/>
</linearGradient>
<linearGradient id="paint39_linear_28_728" x1="475.939" y1="591.847" x2="475.939" y2="577.276" gradientUnits="userSpaceOnUse">
<stop stop-color="#FFCFBD"/>
<stop offset="1" stop-color="#F99398"/>
</linearGradient>
<linearGradient id="paint40_linear_28_728" x1="474.618" y1="591.847" x2="474.618" y2="578.188" gradientUnits="userSpaceOnUse">
<stop stop-color="#D37272"/>
<stop offset="1" stop-color="#DB4A5B"/>
</linearGradient>
<linearGradient id="paint41_linear_28_728" x1="509.67" y1="588.217" x2="509.67" y2="574.559" gradientUnits="userSpaceOnUse">
<stop stop-color="#FFCFBD"/>
<stop offset="1" stop-color="#F99398"/>
</linearGradient>
<linearGradient id="paint42_linear_28_728" x1="508.431" y1="588.217" x2="508.431" y2="575.414" gradientUnits="userSpaceOnUse">
<stop stop-color="#D37272"/>
<stop offset="1" stop-color="#DB4A5B"/>
</linearGradient>
<linearGradient id="paint43_linear_28_728" x1="571.928" y1="632.576" x2="-48.04" y2="632.576" gradientUnits="userSpaceOnUse">
<stop stop-color="#FFCFBD"/>
<stop offset="1" stop-color="#F99398"/>
</linearGradient>
<linearGradient id="paint44_linear_28_728" x1="571.928" y1="617.814" x2="-48.04" y2="617.814" gradientUnits="userSpaceOnUse">
<stop stop-color="white"/>
<stop offset="1" stop-color="#CDDAF1"/>
</linearGradient>
<linearGradient id="paint45_linear_28_728" x1="571.574" y1="603.449" x2="-48.04" y2="603.449" gradientUnits="userSpaceOnUse">
<stop stop-color="white"/>
<stop offset="1" stop-color="#F1CDD4"/>
</linearGradient>
<linearGradient id="paint46_linear_28_728" x1="1197.95" y1="820.003" x2="1197.95" y2="606.948" gradientUnits="userSpaceOnUse">
<stop stop-color="#A36F82"/>
<stop offset="1" stop-color="#94412B"/>
</linearGradient>
<linearGradient id="paint47_linear_28_728" x1="1197.95" y1="562.25" x2="1197.95" y2="776.464" gradientUnits="userSpaceOnUse">
<stop stop-color="#D9A562"/>
<stop offset="1" stop-color="#E66542"/>
</linearGradient>
<linearGradient id="paint48_linear_28_728" x1="822.384" y1="586.569" x2="822.384" y2="563.314" gradientUnits="userSpaceOnUse">
<stop stop-color="#A64C4C"/>
<stop offset="1" stop-color="#994F4F"/>
</linearGradient>
<linearGradient id="paint49_linear_28_728" x1="1664.18" y1="716.688" x2="731.723" y2="716.688" gradientUnits="userSpaceOnUse">
<stop stop-color="#D8C9CF"/>
<stop offset="1" stop-color="#CDDAF1"/>
</linearGradient>
<linearGradient id="paint50_linear_28_728" x1="875.691" y1="633.687" x2="875.691" y2="591.055" gradientUnits="userSpaceOnUse">
<stop stop-color="#4C6831"/>
<stop offset="0.5" stop-color="#958E1B"/>
<stop offset="1" stop-color="#DEA900"/>
</linearGradient>
<linearGradient id="paint51_linear_28_728" x1="1335.16" y1="686.343" x2="1335.16" y2="606.948" gradientUnits="userSpaceOnUse">
<stop offset="0.00558659" stop-color="#785E70"/>
<stop offset="0.9888" stop-color="#8A6261"/>
</linearGradient>
<linearGradient id="paint52_linear_28_728" x1="1158.95" y1="669.357" x2="1158.95" y2="626.935" gradientUnits="userSpaceOnUse">
<stop offset="0.00558659" stop-color="#785E70"/>
<stop offset="0.9888" stop-color="#8A6261"/>
</linearGradient>
<linearGradient id="paint53_linear_28_728" x1="1223.38" y1="646.645" x2="1446.95" y2="646.645" gradientUnits="userSpaceOnUse">
<stop stop-color="#9F397E"/>
<stop offset="1" stop-color="#FF9F6A"/>
</linearGradient>
<linearGradient id="paint54_linear_28_728" x1="1122.05" y1="648.146" x2="1195.85" y2="648.146" gradientUnits="userSpaceOnUse">
<stop stop-color="#9F397E"/>
<stop offset="1" stop-color="#FF9F6A"/>
</linearGradient>
<linearGradient id="paint55_linear_28_728" x1="949.143" y1="744.778" x2="950.643" y2="723.17" gradientUnits="userSpaceOnUse">
<stop offset="0.00558659" stop-color="#806879"/>
<stop offset="0.9888" stop-color="#946F6F"/>
</linearGradient>
<linearGradient id="paint56_linear_28_728" x1="853.365" y1="766.434" x2="854.324" y2="752.615" gradientUnits="userSpaceOnUse">
<stop offset="0.00558659" stop-color="#806879"/>
<stop offset="0.9888" stop-color="#946F6F"/>
</linearGradient>
<linearGradient id="paint57_linear_28_728" x1="949.573" y1="767.009" x2="950.243" y2="757.352" gradientUnits="userSpaceOnUse">
<stop offset="0.00558659" stop-color="#806879"/>
<stop offset="0.9888" stop-color="#946F6F"/>
</linearGradient>
<linearGradient id="paint58_linear_28_728" x1="517.347" y1="426.34" x2="517.347" y2="424.878" gradientUnits="userSpaceOnUse">
<stop stop-color="white"/>
<stop offset="1" stop-color="#CDDAF1"/>
</linearGradient>
<linearGradient id="paint59_linear_28_728" x1="51.8255" y1="749.549" x2="51.8255" y2="669.141" gradientUnits="userSpaceOnUse">
<stop stop-color="#4C6831"/>
<stop offset="1" stop-color="#958E1B"/>
</linearGradient>
<linearGradient id="paint60_linear_28_728" x1="66.4723" y1="729.803" x2="66.4723" y2="676.004" gradientUnits="userSpaceOnUse">
<stop stop-color="#B38E31"/>
<stop offset="1" stop-color="#D7C31B"/>
</linearGradient>
<linearGradient id="paint61_linear_28_728" x1="42.8649" y1="741.956" x2="42.8649" y2="691.659" gradientUnits="userSpaceOnUse">
<stop stop-color="#B38E31"/>
<stop offset="1" stop-color="#D7C31B"/>
</linearGradient>
<linearGradient id="paint62_linear_28_728" x1="35.9593" y1="756.019" x2="35.9593" y2="737.565" gradientUnits="userSpaceOnUse">
<stop stop-color="#B38E31"/>
<stop offset="1" stop-color="#D7C31B"/>
</linearGradient>
<linearGradient id="paint63_linear_28_728" x1="784.103" y1="607.998" x2="878.726" y2="313.652" gradientUnits="userSpaceOnUse">
<stop stop-color="#796F8D"/>
<stop offset="1" stop-color="#9F9AA2"/>
</linearGradient>
<linearGradient id="paint64_linear_28_728" x1="853.302" y1="379.903" x2="860.305" y2="277.95" gradientUnits="userSpaceOnUse">
<stop stop-color="#C47000"/>
<stop offset="0.9888" stop-color="#FF9A4A"/>
</linearGradient>
<linearGradient id="paint65_linear_28_728" x1="851.8" y1="379.8" x2="858.803" y2="277.847" gradientUnits="userSpaceOnUse">
<stop stop-color="#FFBA00"/>
<stop offset="0.9888" stop-color="#FFE856"/>
</linearGradient>
<clipPath id="clip0_28_728">
<rect width="2136" height="858" fill="white" transform="translate(-200 -38)"/>
</clipPath>
</defs>
</svg>
