<svg width="1440" height="779" viewBox="0 0 1440 779" fill="none" xmlns="http://www.w3.org/2000/svg">
<g clip-path="url(#clip0_56_2)">
<path d="M972.53 874.854C972.53 874.854 987.076 803.192 1030.71 802.154C1074.01 801.115 1099.98 848.197 1099.98 848.197C1099.98 848.197 1137.39 834.696 1150.2 826.387C1163.02 818.079 1199.38 756.457 1214.97 750.571C1238.52 741.57 1329.6 722.53 1384.67 761.996L1379.48 796.615C1379.48 796.615 1461.21 789.691 1528.75 793.153C1528.75 793.153 1582.08 800.769 1581.74 857.891L1655.16 856.506C1655.16 856.506 1565.81 864.122 1509.01 875.2C1509.01 875.2 1425.89 899.434 1242.33 916.051C1103.1 928.86 1035.56 908.089 968.028 916.397C890.102 924.013 843 919.513 843 919.513C843 919.513 907.765 916.397 919.194 911.55C919.194 911.55 932.009 891.471 938.936 888.702C946.209 885.932 972.53 874.854 972.53 874.854Z" fill="url(#paint0_linear_56_2)"/>
<path d="M1099.98 848.197C1099.98 848.197 1158.51 836.773 1166.83 832.273C1166.83 832.273 1213.24 831.926 1217.39 828.811C1221.55 826.041 1247.52 773.766 1250.99 760.957C1254.45 748.494 1210.12 752.995 1210.12 752.995C1210.12 752.995 1182.41 783.113 1154.01 822.233C1154.01 822.925 1111.07 845.082 1099.98 848.197Z" fill="url(#paint1_linear_56_2)"/>
<path d="M1868.95 596.071C1868.95 596.071 1783.4 568.376 1747.38 585.685C1747.38 585.685 1755.69 536.526 1705.48 541.373C1705.48 541.373 1640.02 562.49 1616.12 590.532C1616.12 590.532 1606.77 579.108 1599.84 579.454C1592.92 579.8 1590.49 586.031 1590.49 586.031C1590.49 586.031 1477.58 568.722 1385.46 598.494L1908.78 596.071C1908.43 595.725 1892.84 589.147 1868.95 596.071Z" fill="url(#paint2_linear_56_2)"/>
<path d="M-349 44.5877C-349 44.5877 -249.255 6.85278 -177.563 27.6243C-105.871 48.3958 -102.061 161.254 -102.061 161.254C-102.061 161.254 -50.4569 119.711 -6.12563 130.097C23.6594 137.021 17.7717 165.409 12.5766 184.103C22.9667 194.489 124.79 225.992 145.57 232.916C166.351 239.84 168.429 251.957 178.126 262.342C187.823 272.728 243.238 285.537 280.296 284.845C317.354 284.152 367.573 293.846 415.367 294.884C463.162 295.923 527.581 298 527.581 298C527.581 298 380.041 303.539 323.242 298C266.442 292.461 216.916 293.846 143.146 287.96C69.376 282.075 -74.3542 286.576 -113.144 274.805C-113.144 274.805 -184.49 292.115 -256.181 287.96C-328.22 284.152 -349 279.998 -349 279.998V44.5877Z" fill="url(#paint3_linear_56_2)"/>
<path d="M-102.061 160.908L-119.032 175.794L-150.895 184.103C-150.895 184.103 -100.676 192.411 -68.8127 184.103C-36.9497 175.794 -18.5938 144.291 -18.5938 144.291C-18.5938 144.291 -6.12559 129.058 9.11327 138.059C9.11327 137.713 -36.9497 110.71 -102.061 160.908Z" fill="url(#paint4_linear_56_2)"/>
<path d="M12.5766 183.757L-5.08667 192.758L-17.2085 198.297C-17.2085 198.297 19.8496 199.335 50.6737 208.682C81.4978 217.683 83.2295 225.646 106.78 233.262C130.331 240.532 156.999 238.109 156.999 238.109C156.999 238.109 126.522 224.261 76.9954 210.413C27.4691 196.566 12.5766 183.757 12.5766 183.757Z" fill="url(#paint5_linear_56_2)"/>
<path d="M9.11315 275.151C9.11315 275.151 32.6641 264.765 57.2541 263.727C86.3465 262.342 108.512 279.305 108.512 279.305C108.512 279.305 96.7366 260.957 43.7469 256.803C-9.58908 252.649 -29.3303 275.151 -29.3303 275.151C-29.3303 275.151 -12.0134 282.767 9.11315 275.151Z" fill="url(#paint6_linear_56_2)"/>
<path d="M1910.85 61.5509C1910.85 61.5509 1803.14 -8.72604 1715.87 12.0455C1628.59 32.4708 1631.01 123.173 1631.01 123.173C1631.01 123.173 1582.18 116.249 1561.75 123.173C1541.31 130.097 1520.18 178.564 1521.92 183.757C1521.92 183.757 1440.87 216.299 1420.09 216.299C1398.97 216.299 1348.05 213.183 1325.2 224.261C1302.34 235.339 1268.74 246.763 1234.11 248.841C1199.48 250.918 1130.55 273.766 1078.95 275.151C1078.95 275.151 1255.58 263.034 1274.98 262.342C1294.37 261.304 1322.77 282.075 1372.99 284.845C1423.21 287.614 1476.55 287.268 1521.92 288.306C1566.94 289.345 1662.18 278.267 1762.27 275.151C1862.37 272.035 1910.85 250.572 1910.85 250.572V61.5509Z" fill="url(#paint7_linear_56_2)"/>
<path d="M1291.26 237.762C1291.26 237.762 1353.94 237.07 1363.99 237.762C1374.03 238.455 1386.15 229.454 1425.29 224.261C1464.42 219.068 1549.97 224.261 1549.97 224.261C1549.97 224.261 1470.31 217.683 1456.8 216.299C1443.64 214.914 1424.94 215.952 1424.94 215.952C1424.94 215.952 1384.77 212.49 1351.17 216.299C1317.58 220.107 1291.26 237.762 1291.26 237.762Z" fill="url(#paint8_linear_56_2)"/>
<path d="M530.698 157.1C530.698 157.1 545.244 85.4381 588.882 84.3995C632.175 83.361 658.15 130.443 658.15 130.443C658.15 130.443 695.554 116.942 708.369 108.633C721.183 100.324 757.549 38.7022 773.134 32.817C796.685 23.816 887.772 4.77542 942.84 44.2413L937.645 78.8605C937.645 78.8605 1019.38 71.9366 1086.92 75.3985C1086.92 75.3985 1140.25 83.0148 1139.91 140.136L1213.33 138.752C1213.33 138.752 1123.97 146.368 1067.17 157.446C1067.17 157.446 984.054 181.679 800.495 198.297C661.267 211.106 593.731 190.334 526.195 198.643C448.269 206.259 401.167 201.759 401.167 201.759C401.167 201.759 465.933 198.643 477.362 193.796C477.362 193.796 490.176 173.717 497.103 170.947C504.376 168.178 530.698 157.1 530.698 157.1Z" fill="url(#paint9_linear_56_2)"/>
<path d="M937.991 78.8605C937.991 78.8605 928.64 98.2472 917.903 104.132C917.903 104.132 984.747 95.1315 998.6 92.3619C1012.45 89.5924 1011.41 83.7072 1018.69 79.2067C1025.96 74.7062 1069.6 75.0524 1069.6 75.0524C1069.6 75.0524 981.976 71.5904 937.991 78.8605Z" fill="url(#paint10_linear_56_2)"/>
<path d="M658.15 130.443C658.15 130.443 716.681 119.019 724.993 114.518C724.993 114.518 771.403 114.172 775.559 111.056C779.715 108.287 805.69 56.0118 809.153 43.2027C812.617 30.7398 768.286 35.2403 768.286 35.2403C768.286 35.2403 740.579 65.359 712.179 104.479C712.179 105.171 669.233 127.327 658.15 130.443Z" fill="url(#paint11_linear_56_2)"/>
<path d="M493.64 173.371C493.64 173.371 535.2 175.448 582.302 167.832C582.302 167.832 547.322 161.947 530.698 157.1C530.698 157.1 498.488 168.524 493.64 173.371Z" fill="url(#paint12_linear_56_2)"/>
<path d="M532.43 150.522C532.43 150.522 563.946 146.368 581.61 133.559C581.61 133.559 593.385 99.9782 602.39 94.4391C611.741 88.5538 626.98 96.8624 626.98 96.8624C626.98 96.8624 602.736 75.7447 572.605 88.5538C542.82 101.363 532.43 150.522 532.43 150.522Z" fill="url(#paint13_linear_56_2)"/>
<path d="M755.817 172.678C755.817 172.678 772.095 147.753 799.456 140.829C808.807 138.405 884.655 140.829 884.655 140.829C884.655 140.829 843.441 144.291 837.899 144.637C832.358 144.983 814.348 173.371 814.348 173.371C814.348 173.371 781.446 186.526 755.817 172.678Z" fill="url(#paint14_linear_56_2)"/>
<path d="M1240 134.597L1286.41 120.057C1286.41 120.057 1301.3 103.44 1314.46 96.8625C1327.97 90.2848 1353.94 87.8615 1364.33 89.2463C1374.72 90.2848 1393.43 103.786 1393.43 103.786C1393.43 103.786 1414.9 94.0929 1423.56 93.4006C1432.21 92.7082 1457.84 105.171 1457.84 105.171L1502.87 104.132C1502.87 103.44 1386.15 119.019 1240 134.597Z" fill="url(#paint15_linear_56_2)"/>
<path d="M1286.41 120.057C1286.41 120.057 1316.88 118.326 1325.54 116.249C1325.54 116.249 1327.97 103.786 1331.43 99.2858C1335.24 95.1315 1352.9 88.9001 1352.9 88.9001H1364.68C1364.68 88.9001 1333.51 87.1691 1316.54 96.1701C1298.87 104.825 1286.41 120.057 1286.41 120.057Z" fill="url(#paint16_linear_56_2)"/>
<path d="M1393.08 103.44L1383.04 111.403C1383.04 111.403 1410.74 111.057 1417.32 107.595C1423.9 104.133 1423.21 93.0547 1423.21 93.0547C1423.21 93.0547 1406.93 94.4395 1393.08 103.44Z" fill="url(#paint17_linear_56_2)"/>
<path d="M167.419 116.055C167.419 116.055 277.554 110.516 330.544 102.554C383.534 94.9375 481.894 80.7436 481.894 80.7436L435.484 81.7822C435.484 81.7822 409.855 71.0502 387.343 71.7426C364.485 72.7812 354.441 84.8979 354.441 84.8979C354.441 84.8979 330.198 52.3559 309.071 48.2016C287.944 44.0473 246.038 63.0878 241.189 72.435C236.34 81.436 230.106 95.2837 230.106 95.2837C230.106 95.2837 213.482 88.0136 199.628 87.3212C186.121 86.2827 160.838 94.5913 160.146 97.3608C159.453 100.477 159.799 105.669 159.799 105.669L103 116.748C103 116.401 142.483 118.479 167.419 116.055Z" fill="url(#paint18_linear_56_2)"/>
<path d="M229.76 95.2836C229.76 95.2836 262.662 97.7069 276.515 95.2836C276.515 95.2836 276.861 68.973 282.403 63.4339C287.944 57.8949 305.954 49.2401 315.305 50.2787C315.305 50.2787 309.417 45.432 290.715 47.5091C272.013 49.9325 245.691 63.4339 241.535 68.6268C237.379 73.8197 229.76 95.2836 229.76 95.2836Z" fill="url(#paint19_linear_56_2)"/>
<path d="M160.146 97.3607C160.146 97.3607 165.341 99.4379 174.346 100.13C183.697 101.169 211.75 92.1679 211.75 92.1679L213.828 89.7445C213.828 89.7445 203.438 85.244 190.97 87.6674C178.502 89.7445 160.492 93.8988 160.146 97.3607Z" fill="url(#paint20_linear_56_2)"/>
<path d="M354.095 84.8979L338.51 95.976C338.51 95.976 375.222 88.706 377.3 88.0136C379.378 87.3212 391.499 77.6278 394.616 76.5893C397.734 75.5507 420.245 76.5893 420.245 76.5893C420.245 76.5893 398.426 68.6268 379.378 71.3964C360.329 74.1659 354.095 84.8979 354.095 84.8979Z" fill="url(#paint21_linear_56_2)"/>
</g>
<defs>
<linearGradient id="paint0_linear_56_2" x1="1242.27" y1="958.583" x2="1264.33" y2="733.796" gradientUnits="userSpaceOnUse">
<stop stop-color="#BED6FF"/>
<stop offset="0.4836" stop-color="#C5E1FF"/>
<stop offset="1" stop-color="#C7E5FF"/>
</linearGradient>
<linearGradient id="paint1_linear_56_2" x1="1170.45" y1="855.074" x2="1181.01" y2="747.484" gradientUnits="userSpaceOnUse">
<stop stop-color="#D6E5FF"/>
<stop offset="0.4226" stop-color="#DDEDFF"/>
<stop offset="1" stop-color="#E0F1FF"/>
</linearGradient>
<linearGradient id="paint2_linear_56_2" x1="1646.61" y1="598.223" x2="1646.61" y2="541.092" gradientUnits="userSpaceOnUse">
<stop stop-color="#BED6FF"/>
<stop offset="0.4836" stop-color="#C5E1FF"/>
<stop offset="1" stop-color="#C7E5FF"/>
</linearGradient>
<linearGradient id="paint3_linear_56_2" x1="89.3448" y1="300.447" x2="89.3448" y2="21.1678" gradientUnits="userSpaceOnUse">
<stop stop-color="#BED6FF"/>
<stop offset="0.4836" stop-color="#C5E1FF"/>
<stop offset="1" stop-color="#C7E5FF"/>
</linearGradient>
<linearGradient id="paint4_linear_56_2" x1="-71.1183" y1="187.523" x2="-71.1183" y2="130.376" gradientUnits="userSpaceOnUse">
<stop stop-color="#D6E5FF"/>
<stop offset="0.4226" stop-color="#DDEDFF"/>
<stop offset="1" stop-color="#E0F1FF"/>
</linearGradient>
<linearGradient id="paint5_linear_56_2" x1="69.9963" y1="238.571" x2="69.9963" y2="183.877" gradientUnits="userSpaceOnUse">
<stop stop-color="#D6E5FF"/>
<stop offset="0.4226" stop-color="#DDEDFF"/>
<stop offset="1" stop-color="#E0F1FF"/>
</linearGradient>
<linearGradient id="paint6_linear_56_2" x1="39.6016" y1="279.196" x2="39.6016" y2="256.171" gradientUnits="userSpaceOnUse">
<stop stop-color="#D6E5FF"/>
<stop offset="0.4226" stop-color="#DDEDFF"/>
<stop offset="1" stop-color="#E0F1FF"/>
</linearGradient>
<linearGradient id="paint7_linear_56_2" x1="1494.88" y1="288.255" x2="1494.88" y2="8.1245" gradientUnits="userSpaceOnUse">
<stop stop-color="#BED6FF"/>
<stop offset="0.4836" stop-color="#C5E1FF"/>
<stop offset="1" stop-color="#C7E5FF"/>
</linearGradient>
<linearGradient id="paint8_linear_56_2" x1="1420.68" y1="237.726" x2="1420.68" y2="214.463" gradientUnits="userSpaceOnUse">
<stop stop-color="#D6E5FF"/>
<stop offset="0.4226" stop-color="#DDEDFF"/>
<stop offset="1" stop-color="#E0F1FF"/>
</linearGradient>
<linearGradient id="paint9_linear_56_2" x1="800.435" y1="240.829" x2="822.493" y2="16.042" gradientUnits="userSpaceOnUse">
<stop stop-color="#BED6FF"/>
<stop offset="0.4836" stop-color="#C5E1FF"/>
<stop offset="1" stop-color="#C7E5FF"/>
</linearGradient>
<linearGradient id="paint10_linear_56_2" x1="991.337" y1="111.085" x2="995.621" y2="67.4282" gradientUnits="userSpaceOnUse">
<stop stop-color="#D6E5FF"/>
<stop offset="0.4226" stop-color="#DDEDFF"/>
<stop offset="1" stop-color="#E0F1FF"/>
</linearGradient>
<linearGradient id="paint11_linear_56_2" x1="728.622" y1="137.319" x2="739.18" y2="29.7295" gradientUnits="userSpaceOnUse">
<stop stop-color="#D6E5FF"/>
<stop offset="0.4226" stop-color="#DDEDFF"/>
<stop offset="1" stop-color="#E0F1FF"/>
</linearGradient>
<linearGradient id="paint12_linear_56_2" x1="537.397" y1="177.738" x2="539.348" y2="157.858" gradientUnits="userSpaceOnUse">
<stop stop-color="#D6E5FF"/>
<stop offset="0.4226" stop-color="#DDEDFF"/>
<stop offset="1" stop-color="#E0F1FF"/>
</linearGradient>
<linearGradient id="paint13_linear_56_2" x1="576.655" y1="154.917" x2="583.697" y2="83.1594" gradientUnits="userSpaceOnUse">
<stop stop-color="#D6E5FF"/>
<stop offset="0.4226" stop-color="#DDEDFF"/>
<stop offset="1" stop-color="#E0F1FF"/>
</linearGradient>
<linearGradient id="paint14_linear_56_2" x1="817.675" y1="182.674" x2="822.401" y2="134.518" gradientUnits="userSpaceOnUse">
<stop stop-color="#D6E5FF"/>
<stop offset="0.4226" stop-color="#DDEDFF"/>
<stop offset="1" stop-color="#E0F1FF"/>
</linearGradient>
<linearGradient id="paint15_linear_56_2" x1="1371.48" y1="134.571" x2="1371.48" y2="88.6685" gradientUnits="userSpaceOnUse">
<stop stop-color="#BED6FF"/>
<stop offset="0.4836" stop-color="#C5E1FF"/>
<stop offset="1" stop-color="#C7E5FF"/>
</linearGradient>
<linearGradient id="paint16_linear_56_2" x1="1325.32" y1="119.96" x2="1325.32" y2="88.81" gradientUnits="userSpaceOnUse">
<stop stop-color="#D6E5FF"/>
<stop offset="0.4226" stop-color="#DDEDFF"/>
<stop offset="1" stop-color="#E0F1FF"/>
</linearGradient>
<linearGradient id="paint17_linear_56_2" x1="1403.41" y1="111.324" x2="1403.41" y2="92.9124" gradientUnits="userSpaceOnUse">
<stop stop-color="#D6E5FF"/>
<stop offset="0.4226" stop-color="#DDEDFF"/>
<stop offset="1" stop-color="#E0F1FF"/>
</linearGradient>
<linearGradient id="paint18_linear_56_2" x1="290.145" y1="130.366" x2="296.357" y2="47.066" gradientUnits="userSpaceOnUse">
<stop stop-color="#BED6FF"/>
<stop offset="0.4836" stop-color="#C5E1FF"/>
<stop offset="1" stop-color="#C7E5FF"/>
</linearGradient>
<linearGradient id="paint19_linear_56_2" x1="272.534" y1="96.2038" x2="272.534" y2="47.0137" gradientUnits="userSpaceOnUse">
<stop stop-color="#D6E5FF"/>
<stop offset="0.4226" stop-color="#DDEDFF"/>
<stop offset="1" stop-color="#E0F1FF"/>
</linearGradient>
<linearGradient id="paint20_linear_56_2" x1="186.788" y1="100.175" x2="186.788" y2="86.8275" gradientUnits="userSpaceOnUse">
<stop stop-color="#D6E5FF"/>
<stop offset="0.4226" stop-color="#DDEDFF"/>
<stop offset="1" stop-color="#E0F1FF"/>
</linearGradient>
<linearGradient id="paint21_linear_56_2" x1="379.558" y1="96.2038" x2="379.558" y2="70.9744" gradientUnits="userSpaceOnUse">
<stop stop-color="#D6E5FF"/>
<stop offset="0.4226" stop-color="#DDEDFF"/>
<stop offset="1" stop-color="#E0F1FF"/>
</linearGradient>
<clipPath id="clip0_56_2">
<rect width="1440" height="783" fill="white" transform="translate(0 -4)"/>
</clipPath>
</defs>
</svg>
