<svg width="1440" height="722" viewBox="0 0 1440 722" fill="none" xmlns="http://www.w3.org/2000/svg">
<g clip-path="url(#clip0_68_50)">
<rect width="1440" height="722" fill="white"/>
<path d="M1472.23 -71H-104.356V620H1472.23V-71Z" fill="url(#paint0_linear_68_50)"/>
<g opacity="0.4">
<path opacity="0.4" d="M1496.84 857.848C970.243 857.848 443.437 857.848 -83.79 857.848C-83.79 530.719 -83.79 212.27 -83.79 -114.86C-69.4952 -118.373 -55.4106 -122.506 -40.6954 -122.919C2.18912 -124.366 35.4036 -106.387 60.6297 -72.7027C75.7654 -52.4509 87.9581 -30.3392 101.412 -9.0541C110.031 4.99819 122.013 15.3307 138.621 19.2571C156.489 23.5968 175.199 23.5968 193.067 20.9103C235.741 14.7108 270.217 26.6966 296.705 60.5874C311.42 79.3927 328.237 94.2716 354.514 95.3048C368.179 95.9248 381.843 96.1314 395.507 96.5448C440.704 97.3714 480.435 109.357 510.706 145.521C532.779 171.766 558.426 195.117 584.493 217.642C609.719 239.547 637.888 250.087 671.313 237.068C678.671 234.175 686.028 230.455 692.965 226.528C723.027 208.963 754.349 199.457 790.086 205.657C810.057 209.17 829.607 203.59 847.686 194.497C872.492 181.892 892.462 163.706 910.331 143.248C931.983 118.656 947.75 90.1386 964.567 62.2406C984.328 29.3831 1010.18 2.31171 1043.4 -17.7335C1062.95 -29.5126 1083.76 -31.7858 1105.83 -28.4793C1143.67 -22.6931 1180.88 -23.1064 1217.46 -35.9188C1238.27 -43.3582 1256.56 -55.7573 1275.9 -66.0899C1309.11 -83.6553 1343.17 -99.5674 1381.64 -103.7C1420.11 -107.833 1453.53 -93.5745 1485.7 -74.9759C1494.11 -70.2229 1497.26 -64.23 1497.26 -54.3108C1496.84 252.567 1496.84 550.971 1496.84 857.848Z" fill="url(#paint1_linear_68_50)"/>
<path opacity="0.4" d="M840.539 62.8605C843.482 98.8179 814.892 144.281 760.446 145.521C713.777 146.554 678.04 111.01 678.25 65.7537C678.461 18.2239 719.663 -15.2537 760.866 -14.4271C746.781 -2.23464 737.111 11.611 736.481 29.7963C735.85 48.1883 742.998 63.4805 757.292 75.053C777.473 91.3784 815.943 93.6516 840.539 62.8605Z" fill="url(#paint2_linear_68_50)"/>
</g>
<g opacity="0.4">
<path opacity="0.4" d="M-83.79 15.9506C-76.6426 23.39 -69.0748 30.6228 -62.3478 38.2689C-44.6895 58.1075 -21.5655 64.927 4.29131 65.3403C23.0007 65.7536 41.0795 68.2334 56.8458 79.8059C69.8793 89.3118 76.6063 102.538 82.4924 116.796C87.3274 128.576 92.3727 140.148 102.884 148.621C123.695 165.153 145.558 167.219 169.312 155.854C185.289 148.414 199.584 137.048 217.032 132.295C260.967 120.31 300.699 130.022 336.436 156.887C358.088 173.006 377.428 192.018 392.143 214.129C415.267 248.847 446.59 273.852 482.537 294.31C530.677 321.795 581.129 344.526 632.843 364.572C674.887 380.69 711.465 371.804 744.679 343.7C756.031 333.987 767.803 324.894 779.365 315.182C807.114 291.83 840.538 285.837 874.173 292.244C930.091 302.783 977.391 286.251 1022.8 256.906C1050.13 239.134 1074.93 218.676 1097.21 194.704C1109.83 181.272 1123.49 168.873 1139.05 158.54C1172.47 136.635 1207.58 134.775 1245.21 146.761C1287.04 160.193 1323.62 150.687 1354.1 119.07C1381.85 90.5518 1416.33 75.2595 1456.27 71.9531C1468.67 70.9199 1480.44 74.2263 1492 78.7726C1495.16 80.0125 1497.26 81.8724 1496.84 85.5921C1496.63 88.0719 1496.84 90.3451 1496.84 92.8249C1496.84 213.923 1496.84 335.02 1496.84 456.118C1496.84 459.838 1496.84 463.558 1496.84 468.93C969.612 468.93 442.806 468.93 -83.79 468.93C-83.79 318.282 -83.79 167.013 -83.79 15.9506Z" fill="url(#paint3_linear_68_50)"/>
</g>
<path d="M1013.13 352.173L1101.84 218.882L994.208 286.251L1089.23 177.965L1063.79 161.847L1077.03 142.421C1072.62 142.835 1068.2 144.695 1063.58 148.208C1014.39 184.785 965.829 221.982 917.899 260.213C884.054 287.077 846.425 308.776 812.58 335.64C800.387 345.353 786.092 347.626 770.956 343.7C768.644 343.08 766.121 342.667 764.229 344.113C761.497 350.519 771.377 349.073 768.644 354.859C763.389 366.225 771.167 372.424 779.365 377.384C827.505 406.728 876.486 434.42 929.461 454.878C948.591 462.318 967.72 468.93 987.271 474.923L1180.25 258.973L1013.13 352.173Z" fill="#FF9344"/>
<path d="M1491.58 338.12C1436.72 301.956 1382.69 264.346 1325.72 231.488C1318.15 227.148 1309.96 223.429 1300.92 224.875C1290.62 226.528 1280.31 228.388 1270.22 230.662C1262.66 232.521 1256.14 231.695 1249.2 228.802C1229.23 220.329 1210.73 209.376 1191.81 199.044C1158.39 181.065 1126.65 160.193 1091.75 144.695C1086.7 142.421 1081.87 141.388 1077.03 142.008L1063.79 161.433L1089.23 177.552L994.208 285.837L1101.84 218.469L1013.13 351.759L1180.46 258.353L987.481 474.303C1032.26 488.356 1078.08 499.515 1123.91 509.847C1174.36 521.213 1225.24 529.686 1276.53 535.266C1303.44 538.159 1330.14 540.639 1357.04 542.085C1403.29 544.565 1449.54 545.805 1496 540.639C1496.21 538.985 1496.84 537.745 1496.84 536.299C1496.84 473.27 1496.84 410.035 1497.05 347.006C1497.05 342.873 1495.16 340.6 1491.58 338.12Z" fill="#FF8831"/>
<path opacity="0.4" d="M1491.58 338.12C1436.72 301.956 1382.69 264.346 1325.72 231.488C1318.15 227.148 1309.96 223.429 1300.92 224.875C1290.62 226.528 1280.31 228.388 1270.22 230.662C1262.66 232.521 1256.14 231.695 1249.2 228.802C1229.23 220.329 1210.73 209.376 1191.81 199.044C1158.39 181.065 1126.65 160.193 1091.75 144.695C1086.7 142.421 1081.87 141.388 1077.03 142.008C1072.62 142.421 1068.2 144.281 1063.58 147.794C1014.39 184.372 965.829 221.569 917.899 259.799C884.054 286.664 846.425 308.362 812.58 335.227C800.387 344.94 786.092 347.213 770.956 343.287C768.644 342.667 766.121 342.253 764.229 343.7C761.497 350.106 771.377 348.659 768.644 354.446C763.389 365.812 771.167 372.011 779.365 376.971C827.505 406.315 876.486 434.006 929.461 454.465C948.591 461.904 967.72 468.517 987.271 474.51C1032.05 488.562 1077.87 499.722 1123.7 510.054C1174.15 521.42 1225.03 529.893 1276.32 535.472C1303.23 538.365 1329.93 540.845 1356.83 542.292C1403.08 544.772 1449.33 546.012 1495.79 540.845C1496 539.192 1496.63 537.952 1496.63 536.506C1496.63 473.477 1496.63 410.242 1496.84 347.213C1497.05 342.873 1495.16 340.6 1491.58 338.12Z" fill="url(#paint4_linear_68_50)"/>
<path d="M1496.84 507.368C1455.85 501.168 1415.91 494.762 1375.54 491.662C1351.16 489.802 1326.77 487.529 1302.39 485.256C1296.71 484.636 1291.67 482.57 1286.62 479.883C1240.37 454.052 1194.55 427.6 1147.67 403.009C1112.77 384.823 1077.24 367.671 1044.87 344.94C1031.63 335.64 1017.96 333.574 1001.57 338.327C953.005 352.379 902.973 360.025 853.782 371.391C835.073 375.731 821.619 364.365 808.375 354.859C741.946 307.742 674.046 262.692 608.248 214.543C600.47 208.756 591.851 204.003 583.652 198.631C575.874 193.671 567.045 194.498 559.267 196.357C552.12 198.011 548.125 195.737 543.29 191.811C499.355 156.06 456.05 119.69 409.802 86.8321L375.537 135.395H416.319L213.669 327.168L384.786 223.842L201.056 431.94L304.903 394.743L212.407 521.627L522.899 385.857L166.58 666.076V885.126C610.35 885.126 1053.49 885.126 1496.84 885.126C1496.84 759.276 1496.84 633.425 1496.84 507.368Z" fill="#FF8C39"/>
<path d="M522.689 385.857L212.197 521.627L304.693 394.743L200.845 431.94L384.576 223.842L213.458 327.168L416.109 135.395H375.536L409.802 86.8322C408.541 86.0056 407.49 85.179 406.228 84.1457C395.297 76.2929 391.723 76.0863 383.104 85.7989C362.923 108.737 345.896 133.949 327.186 158.127C317.096 171.146 306.795 184.578 298.176 198.631C289.557 212.476 275.052 218.469 262.229 226.529C221.657 252.153 180.244 276.331 137.99 299.476C133.996 301.75 129.792 304.023 125.377 301.13C97.8385 282.738 77.4474 291.004 54.1132 312.495C12.2798 351.139 -35.4396 382.964 -84 413.341C-84 570.603 -84 728.071 -84 885.333C-0.543465 885.333 82.9131 885.333 166.37 885.333V666.283L522.689 385.857Z" fill="#FF9C54"/>
<path d="M1375.54 491.662C1351.16 489.802 1326.77 487.529 1302.39 485.256C1296.71 484.636 1291.67 482.57 1286.62 479.883C1240.37 454.052 1194.55 427.6 1147.67 403.009C1112.77 384.823 1077.24 367.671 1044.87 344.94C1031.63 335.64 1017.96 333.574 1001.57 338.327C953.005 352.379 902.974 360.025 853.783 371.391C835.073 375.731 821.619 364.365 808.375 354.859C741.947 307.742 674.046 262.692 608.248 214.543C600.47 208.756 591.851 204.004 583.652 198.631C575.874 193.671 567.045 194.498 559.267 196.357C552.12 198.011 548.125 195.737 543.291 191.811C499.355 156.06 456.05 119.69 409.802 86.8322C408.541 86.0056 407.49 85.179 406.228 84.1457C395.297 76.2929 391.723 76.0863 383.104 85.7989C362.923 108.737 345.896 133.949 327.186 158.127C317.096 171.146 306.795 184.578 298.176 198.631C289.557 212.476 275.052 218.469 262.229 226.529C221.657 252.153 180.244 276.331 137.99 299.476C133.996 301.75 129.792 304.023 125.377 301.13C97.8386 282.738 77.4474 291.004 54.1132 312.495C12.2798 351.139 -35.4396 382.964 -84 413.341C-84 570.603 -84 728.071 -84 885.333C-0.543449 885.333 82.9131 885.333 166.37 885.333C610.14 885.333 1053.28 885.333 1496.63 885.333C1496.63 759.482 1496.63 633.632 1496.63 507.574C1455.85 501.168 1415.91 494.762 1375.54 491.662Z" fill="url(#paint5_linear_68_50)"/>
<path d="M1379.12 217.023C1378.91 217.023 1378.7 217.023 1378.49 217.023L1377.44 216.609C1376.38 216.196 1375.75 214.956 1375.96 213.923C1376.38 212.89 1377.65 212.27 1378.7 212.476L1379.75 212.89C1380.8 213.303 1381.64 214.543 1381.22 215.576C1381.01 216.403 1380.17 217.023 1379.12 217.023ZM717.982 235.828C717.771 235.828 717.561 235.828 717.351 235.828L716.3 235.415C715.249 235.001 714.408 233.761 714.828 232.728C715.249 231.488 716.51 230.868 717.561 231.282L718.612 231.695C719.874 232.108 720.504 233.348 720.084 234.381C719.663 235.208 718.823 235.828 717.982 235.828ZM957.21 235.415C956.369 235.415 955.528 234.795 955.107 233.968C954.687 232.935 955.318 231.695 956.369 231.075L957.42 230.662C958.471 230.248 959.732 230.868 960.363 231.901C960.783 232.935 960.153 234.175 959.102 234.795L958.051 235.208C957.63 235.415 957.42 235.415 957.21 235.415ZM1337.7 242.854C1336.86 242.854 1336.02 242.234 1335.6 241.407C1335.18 240.374 1335.81 239.134 1336.86 238.721L1337.91 238.308C1338.97 237.894 1340.23 238.514 1340.86 239.548C1341.28 240.581 1340.65 241.821 1339.6 242.441L1338.55 242.854C1338.33 242.854 1338.12 242.854 1337.7 242.854ZM214.72 223.842C213.879 223.842 213.038 223.222 212.618 222.396C212.197 221.362 212.828 220.122 213.879 219.709L214.93 219.296C215.981 218.882 217.242 219.502 217.663 220.536C218.083 221.569 217.453 222.809 216.402 223.429L215.35 223.842C215.14 223.842 214.93 223.842 214.72 223.842ZM1404.97 238.308C1404.76 238.308 1404.55 238.308 1404.34 238.101L1403.29 237.688C1402.03 237.274 1401.4 236.034 1401.82 235.001C1402.24 233.968 1403.5 233.141 1404.55 233.555L1405.6 233.968C1406.66 234.381 1407.29 235.621 1407.08 236.654C1406.66 237.688 1405.81 238.308 1404.97 238.308ZM-4.95799 271.579C-6.2193 271.579 -7.06017 270.545 -7.06017 269.512V268.892C-7.06017 267.652 -6.00908 266.619 -4.95799 266.619C-3.9069 266.619 -2.85581 267.446 -2.85581 268.479V269.512C-2.85581 270.752 -3.69669 271.579 -4.95799 271.579ZM1077.24 121.136C1076.4 121.136 1075.56 120.516 1075.14 119.69C1074.72 118.657 1075.35 117.417 1076.4 117.003L1077.45 116.59C1078.51 116.177 1079.77 116.797 1080.19 117.83C1080.61 118.863 1079.98 120.103 1078.93 120.516L1077.87 120.93C1077.66 120.93 1077.45 121.136 1077.24 121.136ZM1321.52 85.7989C1321.1 85.7989 1320.68 85.5923 1320.26 85.3856L1319.42 84.7657C1318.36 84.1457 1318.15 82.6992 1318.99 81.6659C1319.63 80.6326 1321.1 80.426 1322.15 81.046L1322.99 81.6659C1324.04 82.2859 1324.25 83.7324 1323.41 84.7657C1322.99 85.5923 1322.36 85.7989 1321.52 85.7989ZM1242.69 -43.1515C1242.27 -43.1515 1241.84 -43.3582 1241.42 -43.5648L1240.58 -44.1848C1239.53 -44.8047 1239.32 -46.2513 1240.16 -47.2846C1240.79 -48.3178 1242.27 -48.5245 1243.32 -47.9045L1244.16 -47.2846C1245.21 -46.6646 1245.42 -45.218 1244.58 -44.1848C1243.95 -43.3582 1243.32 -43.1515 1242.69 -43.1515ZM543.08 79.3927C542.66 79.3927 542.45 79.3927 542.029 79.1861L540.978 78.7728C539.927 78.3595 539.296 76.9129 539.927 75.8797C540.347 74.8464 541.819 74.2265 542.87 74.8464L543.921 75.2597C544.972 75.8797 545.393 77.1196 544.972 78.1528C544.762 78.7728 543.921 79.3927 543.08 79.3927ZM552.33 43.4354C551.279 43.4354 550.438 42.8155 550.228 41.7822L550.017 40.7489C549.807 39.509 550.648 38.4758 551.699 38.2691C552.961 38.0625 554.012 38.8891 554.222 39.9223L554.432 40.9556C554.642 42.1955 553.801 43.2287 552.75 43.4354C552.54 43.4354 552.54 43.4354 552.33 43.4354ZM-27.4513 59.1409C-28.2922 59.1409 -29.1331 58.7276 -29.5535 57.901L-29.9739 56.8677C-30.3944 55.8345 -29.9739 54.5946 -28.7126 53.9746C-27.6615 53.5613 -26.4002 53.9746 -25.7696 55.2145L-25.3491 56.2478C-24.9287 57.2811 -25.3491 58.521 -26.4002 59.1409C-27.0309 59.1409 -27.2411 59.1409 -27.4513 59.1409ZM25.3134 238.101H25.1032C23.8419 237.894 23.001 236.861 23.2112 235.621L23.4214 234.588C23.6317 233.348 24.6827 232.521 25.7338 232.728C26.9951 232.935 27.836 233.968 27.6258 235.001L27.4156 236.034C27.2054 237.481 26.3645 238.101 25.3134 238.101ZM353.674 38.2691C353.043 38.2691 352.202 37.8558 351.782 37.2359C351.151 36.2026 351.361 34.9627 352.413 34.3428L353.043 33.9294C354.094 33.3095 355.566 33.5161 356.196 34.5494C356.827 35.5827 356.827 36.8226 355.776 37.4425L354.935 38.0625C354.515 38.0625 354.094 38.2691 353.674 38.2691ZM1004.51 -73.5293C1003.46 -73.5293 1002.41 -74.3559 1002.41 -75.3891L1002.2 -76.4224C1001.99 -77.6623 1002.83 -78.6956 1004.09 -78.9022C1005.35 -79.1089 1006.4 -78.2823 1006.61 -77.0423L1006.82 -76.0091C1007.03 -74.7692 1006.19 -73.7359 1004.93 -73.5293C1004.72 -73.5293 1004.72 -73.5293 1004.51 -73.5293ZM894.985 24.8368C893.724 24.8368 892.883 23.8035 892.883 22.7703V21.737C892.883 20.4971 893.934 19.6705 894.985 19.6705C896.247 19.6705 897.087 20.7038 897.087 21.9437V22.9769C897.298 23.8035 896.247 24.8368 894.985 24.8368ZM1103.1 -27.0327C1102.26 -27.0327 1101.21 -27.6527 1101 -28.4793L1100.58 -29.5125C1100.37 -30.7524 1101 -31.7857 1102.05 -32.199C1103.31 -32.6123 1104.36 -31.7857 1104.78 -30.7524L1104.99 -29.7192C1105.41 -28.4793 1104.78 -27.446 1103.52 -27.0327C1103.52 -27.0327 1103.31 -27.0327 1103.1 -27.0327ZM57.687 -75.8024C56.6359 -75.8024 55.795 -76.4224 55.5848 -77.4557C55.1644 -78.6956 56.0052 -79.7288 57.0563 -80.1421L58.1074 -80.3488C59.3687 -80.7621 60.4198 -79.9355 60.8402 -78.9022C61.2607 -77.6623 60.4198 -76.629 59.3687 -76.2157L58.3176 -76.0091C58.1074 -76.0091 57.8972 -75.8024 57.687 -75.8024ZM299.438 -91.3013C299.227 -91.3013 299.227 -91.3013 299.017 -91.3013L297.966 -91.5079C296.705 -91.7146 295.864 -92.7479 296.074 -93.9878C296.284 -95.2277 297.335 -96.0543 298.597 -95.8476L299.648 -95.641C300.909 -95.4343 301.75 -94.4011 301.54 -93.1612C301.33 -92.1279 300.489 -91.3013 299.438 -91.3013Z" fill="#F9F2ED"/>
<rect opacity="0.4" x="-41" y="-4" width="1520" height="100" fill="url(#paint6_linear_68_50)"/>
</g>
<defs>
<linearGradient id="paint0_linear_68_50" x1="683.938" y1="-71" x2="683.938" y2="620" gradientUnits="userSpaceOnUse">
<stop stop-color="#FFD8B1"/>
<stop offset="1" stop-color="#FFB66E"/>
</linearGradient>
<linearGradient id="paint1_linear_68_50" x1="706.672" y1="-122.958" x2="706.672" y2="857.888" gradientUnits="userSpaceOnUse">
<stop stop-color="white" stop-opacity="0"/>
<stop offset="1" stop-color="white"/>
</linearGradient>
<linearGradient id="paint2_linear_68_50" x1="759.561" y1="145.389" x2="759.561" y2="-14.5943" gradientUnits="userSpaceOnUse">
<stop stop-color="white" stop-opacity="0"/>
<stop offset="1" stop-color="white"/>
</linearGradient>
<linearGradient id="paint3_linear_68_50" x1="706.584" y1="15.9432" x2="706.584" y2="469.345" gradientUnits="userSpaceOnUse">
<stop stop-color="white"/>
<stop offset="0.0990956" stop-color="white" stop-opacity="0.8679"/>
<stop offset="0.75" stop-color="white" stop-opacity="0"/>
</linearGradient>
<linearGradient id="paint4_linear_68_50" x1="1130.4" y1="544.424" x2="1130.4" y2="141.948" gradientUnits="userSpaceOnUse">
<stop stop-color="white"/>
<stop offset="0.75" stop-color="white" stop-opacity="0"/>
</linearGradient>
<linearGradient id="paint5_linear_68_50" x1="706.551" y1="885.119" x2="706.551" y2="78.3917" gradientUnits="userSpaceOnUse">
<stop stop-color="white"/>
<stop offset="0.6883" stop-color="white" stop-opacity="0"/>
</linearGradient>
<linearGradient id="paint6_linear_68_50" x1="719" y1="-4" x2="719" y2="96" gradientUnits="userSpaceOnUse">
<stop stop-color="white" stop-opacity="0.63"/>
<stop offset="1" stop-color="white" stop-opacity="0"/>
</linearGradient>
<clipPath id="clip0_68_50">
<rect width="1440" height="722" fill="white"/>
</clipPath>
</defs>
</svg>
