<svg width="1440" height="282" viewBox="0 0 1440 282" fill="none" xmlns="http://www.w3.org/2000/svg">
<path d="M-84 25.2491C-84 25.2491 15.7453 -12.4858 87.4372 8.28573C159.129 29.0572 162.939 141.916 162.939 141.916C162.939 141.916 214.543 100.373 258.874 110.758C288.659 117.682 282.772 146.07 277.577 164.764C287.967 175.15 389.79 206.654 410.57 213.577C431.351 220.501 433.429 232.618 443.126 243.004C452.823 253.389 508.238 266.199 545.296 265.506C582.354 264.814 632.573 274.507 680.367 275.546C728.162 276.584 792.581 278.661 792.581 278.661C792.581 278.661 645.041 284.201 588.242 278.661C531.442 273.122 481.916 274.507 408.146 268.622C334.376 262.737 190.646 267.237 151.856 255.467C151.856 255.467 80.5104 272.776 8.81851 268.622C-63.2197 264.814 -84 260.66 -84 260.66V25.2491Z" fill="url(#paint0_linear_48_8)"/>
<path d="M-84 115.951C-84 115.951 -31.3567 108.335 23.711 78.5624C78.4324 48.7899 94.3639 28.3646 94.3639 28.3646C94.3639 28.3646 102.33 33.9037 119.647 40.8275C136.963 47.7514 139.388 52.2519 139.388 52.2519C139.388 52.2519 125.188 12.786 69.774 1.70786C69.774 1.70786 4.66247 -9.37028 -84 24.9027V115.951Z" fill="url(#paint1_linear_48_8)"/>
<path d="M162.939 141.569L145.968 156.456L114.105 164.764C114.105 164.764 164.324 173.073 196.187 164.764C228.05 156.456 246.406 124.952 246.406 124.952C246.406 124.952 258.874 109.72 274.113 118.721C274.113 118.374 228.05 91.3715 162.939 141.569Z" fill="url(#paint2_linear_48_8)"/>
<path d="M277.577 164.418L259.913 173.419L247.792 178.958C247.792 178.958 284.85 179.997 315.674 189.344C346.498 198.345 348.229 206.307 371.78 213.923C395.331 221.193 421.999 218.77 421.999 218.77C421.999 218.77 391.522 204.922 341.995 191.075C292.469 177.227 277.577 164.418 277.577 164.418Z" fill="url(#paint3_linear_48_8)"/>
<path d="M9.85754 229.502C9.85754 229.502 33.4085 207.346 58.3448 202.499C83.2811 197.306 130.383 209.769 143.198 229.502L151.856 244.388C151.856 244.388 126.227 245.081 95.403 240.926C64.5789 236.772 60.0765 227.079 47.6084 219.462C34.7939 211.846 9.85754 229.502 9.85754 229.502Z" fill="url(#paint4_linear_48_8)"/>
<path d="M274.113 255.813C274.113 255.813 297.664 245.427 322.254 244.388C351.346 243.003 373.512 259.967 373.512 259.967C373.512 259.967 361.737 241.619 308.747 237.464C255.411 233.31 235.67 255.813 235.67 255.813C235.67 255.813 252.987 263.429 274.113 255.813Z" fill="url(#paint5_linear_48_8)"/>
<path d="M885.53 208.854C885.53 208.854 900.076 137.192 943.715 136.154C987.007 135.115 1012.98 182.197 1012.98 182.197C1012.98 182.197 1050.39 168.696 1063.2 160.387C1076.02 152.079 1112.38 90.4565 1127.97 84.5713C1151.52 75.5703 1242.6 56.5297 1297.67 95.9956L1292.48 130.615C1292.48 130.615 1374.21 123.691 1441.75 127.153C1441.75 127.153 1495.08 134.769 1494.74 191.891L1568.16 190.506C1568.16 190.506 1478.81 198.122 1422.01 209.2C1422.01 209.2 1338.89 233.434 1155.33 250.051C1016.1 262.86 948.564 242.089 881.028 250.397C803.102 258.013 756 253.513 756 253.513C756 253.513 820.765 250.397 832.194 245.55C832.194 245.55 845.009 225.471 851.936 222.702C859.209 219.932 885.53 208.854 885.53 208.854Z" fill="url(#paint6_linear_48_8)"/>
<path d="M1292.82 130.615C1292.82 130.615 1283.47 150.002 1272.74 155.887C1272.74 155.887 1339.58 146.886 1353.43 144.116C1367.29 141.347 1366.25 135.461 1373.52 130.961C1380.79 126.46 1424.43 126.807 1424.43 126.807C1424.43 126.807 1336.81 123.345 1292.82 130.615Z" fill="url(#paint7_linear_48_8)"/>
<path d="M1012.98 182.197C1012.98 182.197 1071.51 170.773 1079.83 166.272C1079.83 166.272 1126.24 165.926 1130.39 162.811C1134.55 160.041 1160.52 107.766 1163.99 94.957C1167.45 82.4941 1123.12 86.9946 1123.12 86.9946C1123.12 86.9946 1095.41 117.113 1067.01 156.233C1067.01 156.925 1024.07 179.082 1012.98 182.197Z" fill="url(#paint8_linear_48_8)"/>
<path d="M848.472 225.125C848.472 225.125 890.033 227.202 937.135 219.586C937.135 219.586 902.155 213.701 885.53 208.854C885.53 208.854 853.321 220.278 848.472 225.125Z" fill="url(#paint9_linear_48_8)"/>
<path d="M887.262 202.276C887.262 202.276 918.779 198.122 936.442 185.313C936.442 185.313 948.218 151.732 957.222 146.193C966.573 140.308 981.812 148.617 981.812 148.617C981.812 148.617 957.569 127.499 927.437 140.308C897.652 153.117 887.262 202.276 887.262 202.276Z" fill="url(#paint10_linear_48_8)"/>
<path d="M1110.65 224.433C1110.65 224.433 1126.93 199.507 1154.29 192.583C1163.64 190.16 1239.49 192.583 1239.49 192.583C1239.49 192.583 1198.27 196.045 1192.73 196.391C1187.19 196.737 1169.18 225.125 1169.18 225.125C1169.18 225.125 1136.28 238.28 1110.65 224.433Z" fill="url(#paint11_linear_48_8)"/>
<defs>
<linearGradient id="paint0_linear_48_8" x1="354.345" y1="281.108" x2="354.345" y2="1.82925" gradientUnits="userSpaceOnUse">
<stop stop-color="#BED6FF"/>
<stop offset="0.4836" stop-color="#C5E1FF"/>
<stop offset="1" stop-color="#C7E5FF"/>
</linearGradient>
<linearGradient id="paint1_linear_48_8" x1="27.6957" y1="116.031" x2="27.6957" y2="0.149648" gradientUnits="userSpaceOnUse">
<stop stop-color="#D6E5FF"/>
<stop offset="0.4226" stop-color="#DDEDFF"/>
<stop offset="1" stop-color="#E0F1FF"/>
</linearGradient>
<linearGradient id="paint2_linear_48_8" x1="193.882" y1="168.184" x2="193.882" y2="111.038" gradientUnits="userSpaceOnUse">
<stop stop-color="#D6E5FF"/>
<stop offset="0.4226" stop-color="#DDEDFF"/>
<stop offset="1" stop-color="#E0F1FF"/>
</linearGradient>
<linearGradient id="paint3_linear_48_8" x1="334.996" y1="219.233" x2="334.996" y2="164.538" gradientUnits="userSpaceOnUse">
<stop stop-color="#D6E5FF"/>
<stop offset="0.4226" stop-color="#DDEDFF"/>
<stop offset="1" stop-color="#E0F1FF"/>
</linearGradient>
<linearGradient id="paint4_linear_48_8" x1="80.8266" y1="244.288" x2="80.8266" y2="201.107" gradientUnits="userSpaceOnUse">
<stop stop-color="#D6E5FF"/>
<stop offset="0.4226" stop-color="#DDEDFF"/>
<stop offset="1" stop-color="#E0F1FF"/>
</linearGradient>
<linearGradient id="paint5_linear_48_8" x1="304.602" y1="259.858" x2="304.602" y2="236.832" gradientUnits="userSpaceOnUse">
<stop stop-color="#D6E5FF"/>
<stop offset="0.4226" stop-color="#DDEDFF"/>
<stop offset="1" stop-color="#E0F1FF"/>
</linearGradient>
<linearGradient id="paint6_linear_48_8" x1="1155.27" y1="292.583" x2="1177.33" y2="67.7963" gradientUnits="userSpaceOnUse">
<stop stop-color="#BED6FF"/>
<stop offset="0.4836" stop-color="#C5E1FF"/>
<stop offset="1" stop-color="#C7E5FF"/>
</linearGradient>
<linearGradient id="paint7_linear_48_8" x1="1346.17" y1="162.839" x2="1350.45" y2="119.182" gradientUnits="userSpaceOnUse">
<stop stop-color="#D6E5FF"/>
<stop offset="0.4226" stop-color="#DDEDFF"/>
<stop offset="1" stop-color="#E0F1FF"/>
</linearGradient>
<linearGradient id="paint8_linear_48_8" x1="1083.45" y1="189.073" x2="1094.01" y2="81.4837" gradientUnits="userSpaceOnUse">
<stop stop-color="#D6E5FF"/>
<stop offset="0.4226" stop-color="#DDEDFF"/>
<stop offset="1" stop-color="#E0F1FF"/>
</linearGradient>
<linearGradient id="paint9_linear_48_8" x1="892.23" y1="229.492" x2="894.181" y2="209.612" gradientUnits="userSpaceOnUse">
<stop stop-color="#D6E5FF"/>
<stop offset="0.4226" stop-color="#DDEDFF"/>
<stop offset="1" stop-color="#E0F1FF"/>
</linearGradient>
<linearGradient id="paint10_linear_48_8" x1="931.488" y1="206.672" x2="938.529" y2="134.914" gradientUnits="userSpaceOnUse">
<stop stop-color="#D6E5FF"/>
<stop offset="0.4226" stop-color="#DDEDFF"/>
<stop offset="1" stop-color="#E0F1FF"/>
</linearGradient>
<linearGradient id="paint11_linear_48_8" x1="1172.51" y1="234.429" x2="1177.23" y2="186.272" gradientUnits="userSpaceOnUse">
<stop stop-color="#D6E5FF"/>
<stop offset="0.4226" stop-color="#DDEDFF"/>
<stop offset="1" stop-color="#E0F1FF"/>
</linearGradient>
</defs>
</svg>
