<svg width="1440" height="645" viewBox="0 0 1440 645" fill="none" xmlns="http://www.w3.org/2000/svg">
<g clip-path="url(#clip0_72_3)">
<path d="M1865.95 646.071C1865.95 646.071 1780.4 618.376 1744.38 635.685C1744.38 635.685 1752.69 586.526 1702.48 591.373C1702.48 591.373 1637.02 612.49 1613.12 640.532C1613.12 640.532 1603.77 629.108 1596.84 629.454C1589.92 629.8 1587.49 636.031 1587.49 636.031C1587.49 636.031 1474.59 618.722 1382.46 648.494L1905.78 646.071C1905.43 645.725 1889.84 639.147 1865.95 646.071Z" fill="url(#paint0_linear_72_3)"/>
<path d="M-352 94.5877C-352 94.5877 -252.255 56.8528 -180.563 77.6243C-108.871 98.3958 -105.061 211.254 -105.061 211.254C-105.061 211.254 -53.4569 169.711 -9.12563 180.097C20.6594 187.021 14.7717 215.409 9.57661 234.103C19.9667 244.489 121.79 275.992 142.57 282.916C163.351 289.84 165.429 301.957 175.126 312.342C184.823 322.728 240.238 335.537 277.296 334.845C314.354 334.152 364.573 343.846 412.367 344.884C460.162 345.923 524.581 348 524.581 348C524.581 348 377.041 353.539 320.242 348C263.442 342.461 213.916 343.846 140.146 337.96C66.376 332.075 -77.3542 336.576 -116.144 324.805C-116.144 324.805 -187.49 342.115 -259.181 337.96C-331.22 334.152 -352 329.998 -352 329.998V94.5877Z" fill="url(#paint1_linear_72_3)"/>
<path d="M-105.061 210.908L-122.032 225.794L-153.895 234.103C-153.895 234.103 -103.676 242.411 -71.8127 234.103C-39.9497 225.794 -21.5938 194.291 -21.5938 194.291C-21.5938 194.291 -9.12559 179.058 6.11327 188.059C6.11327 187.713 -39.9497 160.71 -105.061 210.908Z" fill="url(#paint2_linear_72_3)"/>
<path d="M9.57655 233.757L-8.08667 242.758L-20.2085 248.297C-20.2085 248.297 16.8496 249.335 47.6737 258.682C78.4978 267.683 80.2295 275.646 103.78 283.262C127.331 290.532 153.999 288.109 153.999 288.109C153.999 288.109 123.522 274.261 73.9954 260.413C24.4691 246.566 9.57655 233.757 9.57655 233.757Z" fill="url(#paint3_linear_72_3)"/>
<path d="M6.11315 325.151C6.11315 325.151 29.6641 314.765 54.2541 313.727C83.3465 312.342 105.512 329.305 105.512 329.305C105.512 329.305 93.7366 310.957 40.7469 306.803C-12.5891 302.649 -32.3303 325.151 -32.3303 325.151C-32.3303 325.151 -15.0134 332.767 6.11315 325.151Z" fill="url(#paint4_linear_72_3)"/>
<path d="M1907.85 111.551C1907.85 111.551 1800.14 41.274 1712.87 62.0455C1625.59 82.4708 1628.01 173.173 1628.01 173.173C1628.01 173.173 1579.18 166.249 1558.75 173.173C1538.31 180.097 1517.18 228.564 1518.92 233.757C1518.92 233.757 1437.87 266.299 1417.09 266.299C1395.97 266.299 1345.05 263.183 1322.2 274.261C1299.34 285.339 1265.74 296.763 1231.11 298.841C1196.48 300.918 1127.55 323.766 1075.95 325.151C1075.95 325.151 1252.58 313.034 1271.98 312.342C1291.37 311.304 1319.77 332.075 1369.99 334.845C1420.21 337.614 1473.55 337.268 1518.92 338.306C1563.94 339.345 1659.18 328.267 1759.27 325.151C1859.37 322.035 1907.85 300.572 1907.85 300.572V111.551Z" fill="url(#paint5_linear_72_3)"/>
<path d="M1288.26 287.763C1288.26 287.763 1350.94 287.07 1360.99 287.763C1371.03 288.455 1383.15 279.454 1422.29 274.261C1461.42 269.068 1546.97 274.261 1546.97 274.261C1546.97 274.261 1467.31 267.683 1453.8 266.299C1440.64 264.914 1421.94 265.952 1421.94 265.952C1421.94 265.952 1381.77 262.491 1348.17 266.299C1314.58 270.107 1288.26 287.763 1288.26 287.763Z" fill="url(#paint6_linear_72_3)"/>
<path d="M527.698 207.1C527.698 207.1 542.244 135.438 585.882 134.4C629.175 133.361 655.15 180.443 655.15 180.443C655.15 180.443 692.554 166.942 705.369 158.633C718.183 150.324 754.549 88.7023 770.134 82.817C793.685 73.816 884.772 54.7755 939.84 94.2413L934.645 128.86C934.645 128.86 1016.38 121.937 1083.92 125.399C1083.92 125.399 1137.25 133.015 1136.91 190.136L1210.33 188.752C1210.33 188.752 1120.97 196.368 1064.17 207.446C1064.17 207.446 981.054 231.679 797.495 248.297C658.267 261.106 590.731 240.334 523.195 248.643C445.269 256.259 398.167 251.759 398.167 251.759C398.167 251.759 462.933 248.643 474.362 243.796C474.362 243.796 487.176 223.717 494.103 220.948C501.376 218.178 527.698 207.1 527.698 207.1Z" fill="url(#paint7_linear_72_3)"/>
<path d="M934.991 128.861C934.991 128.861 925.64 148.247 914.903 154.133C914.903 154.133 981.747 145.132 995.6 142.362C1009.45 139.592 1008.41 133.707 1015.69 129.207C1022.96 124.706 1066.6 125.052 1066.6 125.052C1066.6 125.052 978.976 121.59 934.991 128.861Z" fill="url(#paint8_linear_72_3)"/>
<path d="M655.15 180.443C655.15 180.443 713.681 169.019 721.993 164.518C721.993 164.518 768.403 164.172 772.559 161.056C776.715 158.287 802.69 106.012 806.153 93.2028C809.617 80.7399 765.285 85.2404 765.285 85.2404C765.285 85.2404 737.578 115.359 709.179 154.479C709.179 155.171 666.233 177.327 655.15 180.443Z" fill="url(#paint9_linear_72_3)"/>
<path d="M490.64 223.371C490.64 223.371 532.2 225.448 579.302 217.832C579.302 217.832 544.322 211.947 527.698 207.1C527.698 207.1 495.488 218.524 490.64 223.371Z" fill="url(#paint10_linear_72_3)"/>
<path d="M529.43 200.522C529.43 200.522 560.946 196.368 578.61 183.559C578.61 183.559 590.385 149.978 599.39 144.439C608.741 138.554 623.98 146.862 623.98 146.862C623.98 146.862 599.736 125.745 569.605 138.554C539.82 151.363 529.43 200.522 529.43 200.522Z" fill="url(#paint11_linear_72_3)"/>
<path d="M752.817 222.678C752.817 222.678 769.095 197.753 796.456 190.829C805.807 188.405 881.655 190.829 881.655 190.829C881.655 190.829 840.441 194.291 834.899 194.637C829.358 194.983 811.348 223.371 811.348 223.371C811.348 223.371 778.446 236.526 752.817 222.678Z" fill="url(#paint12_linear_72_3)"/>
<path d="M1237 184.597L1283.41 170.057C1283.41 170.057 1298.3 153.44 1311.46 146.862C1324.97 140.285 1350.94 137.861 1361.33 139.246C1371.72 140.285 1390.43 153.786 1390.43 153.786C1390.43 153.786 1411.9 144.093 1420.56 143.401C1429.21 142.708 1454.84 155.171 1454.84 155.171L1499.87 154.132C1499.87 153.44 1383.15 169.019 1237 184.597Z" fill="url(#paint13_linear_72_3)"/>
<path d="M1283.41 170.057C1283.41 170.057 1313.88 168.326 1322.54 166.249C1322.54 166.249 1324.97 153.786 1328.43 149.286C1332.24 145.131 1349.9 138.9 1349.9 138.9H1361.68C1361.68 138.9 1330.51 137.169 1313.54 146.17C1295.87 154.825 1283.41 170.057 1283.41 170.057Z" fill="url(#paint14_linear_72_3)"/>
<path d="M1390.08 153.44L1380.03 161.403C1380.03 161.403 1407.74 161.057 1414.32 157.595C1420.9 154.133 1420.21 143.055 1420.21 143.055C1420.21 143.055 1403.93 144.439 1390.08 153.44Z" fill="url(#paint15_linear_72_3)"/>
<path d="M164.419 166.055C164.419 166.055 274.554 160.516 327.544 152.554C380.534 144.937 478.894 130.744 478.894 130.744L432.484 131.782C432.484 131.782 406.855 121.05 384.343 121.743C361.485 122.781 351.441 134.898 351.441 134.898C351.441 134.898 327.198 102.356 306.071 98.2016C284.944 94.0473 243.038 113.088 238.189 122.435C233.34 131.436 227.106 145.284 227.106 145.284C227.106 145.284 210.482 138.014 196.628 137.321C183.121 136.283 157.838 144.591 157.146 147.361C156.453 150.477 156.799 155.669 156.799 155.669L100 166.748C100 166.401 139.483 168.478 164.419 166.055Z" fill="url(#paint16_linear_72_3)"/>
<path d="M226.76 145.284C226.76 145.284 259.662 147.707 273.515 145.284C273.515 145.284 273.861 118.973 279.403 113.434C284.944 107.895 302.954 99.2401 312.305 100.279C312.305 100.279 306.417 95.432 287.715 97.5091C269.013 99.9325 242.691 113.434 238.535 118.627C234.379 123.82 226.76 145.284 226.76 145.284Z" fill="url(#paint17_linear_72_3)"/>
<path d="M157.146 147.361C157.146 147.361 162.341 149.438 171.346 150.13C180.697 151.169 208.75 142.168 208.75 142.168L210.828 139.745C210.828 139.745 200.438 135.244 187.97 137.667C175.502 139.744 157.492 143.899 157.146 147.361Z" fill="url(#paint18_linear_72_3)"/>
<path d="M351.095 134.898L335.51 145.976C335.51 145.976 372.221 138.706 374.299 138.014C376.378 137.321 388.499 127.628 391.616 126.589C394.733 125.551 417.245 126.589 417.245 126.589C417.245 126.589 395.426 118.627 376.377 121.396C357.329 124.166 351.095 134.898 351.095 134.898Z" fill="url(#paint19_linear_72_3)"/>
</g>
<defs>
<linearGradient id="paint0_linear_72_3" x1="1643.61" y1="648.223" x2="1643.61" y2="591.092" gradientUnits="userSpaceOnUse">
<stop stop-color="#BED6FF"/>
<stop offset="0.4836" stop-color="#C5E1FF"/>
<stop offset="1" stop-color="#C7E5FF"/>
</linearGradient>
<linearGradient id="paint1_linear_72_3" x1="86.3448" y1="350.447" x2="86.3448" y2="71.1678" gradientUnits="userSpaceOnUse">
<stop stop-color="#BED6FF"/>
<stop offset="0.4836" stop-color="#C5E1FF"/>
<stop offset="1" stop-color="#C7E5FF"/>
</linearGradient>
<linearGradient id="paint2_linear_72_3" x1="-74.1183" y1="237.523" x2="-74.1183" y2="180.376" gradientUnits="userSpaceOnUse">
<stop stop-color="#D6E5FF"/>
<stop offset="0.4226" stop-color="#DDEDFF"/>
<stop offset="1" stop-color="#E0F1FF"/>
</linearGradient>
<linearGradient id="paint3_linear_72_3" x1="66.9963" y1="288.571" x2="66.9963" y2="233.877" gradientUnits="userSpaceOnUse">
<stop stop-color="#D6E5FF"/>
<stop offset="0.4226" stop-color="#DDEDFF"/>
<stop offset="1" stop-color="#E0F1FF"/>
</linearGradient>
<linearGradient id="paint4_linear_72_3" x1="36.6016" y1="329.196" x2="36.6016" y2="306.171" gradientUnits="userSpaceOnUse">
<stop stop-color="#D6E5FF"/>
<stop offset="0.4226" stop-color="#DDEDFF"/>
<stop offset="1" stop-color="#E0F1FF"/>
</linearGradient>
<linearGradient id="paint5_linear_72_3" x1="1491.88" y1="338.255" x2="1491.88" y2="58.1245" gradientUnits="userSpaceOnUse">
<stop stop-color="#BED6FF"/>
<stop offset="0.4836" stop-color="#C5E1FF"/>
<stop offset="1" stop-color="#C7E5FF"/>
</linearGradient>
<linearGradient id="paint6_linear_72_3" x1="1417.68" y1="287.727" x2="1417.68" y2="264.463" gradientUnits="userSpaceOnUse">
<stop stop-color="#D6E5FF"/>
<stop offset="0.4226" stop-color="#DDEDFF"/>
<stop offset="1" stop-color="#E0F1FF"/>
</linearGradient>
<linearGradient id="paint7_linear_72_3" x1="797.435" y1="290.829" x2="819.493" y2="66.042" gradientUnits="userSpaceOnUse">
<stop stop-color="#BED6FF"/>
<stop offset="0.4836" stop-color="#C5E1FF"/>
<stop offset="1" stop-color="#C7E5FF"/>
</linearGradient>
<linearGradient id="paint8_linear_72_3" x1="988.337" y1="161.085" x2="992.621" y2="117.428" gradientUnits="userSpaceOnUse">
<stop stop-color="#D6E5FF"/>
<stop offset="0.4226" stop-color="#DDEDFF"/>
<stop offset="1" stop-color="#E0F1FF"/>
</linearGradient>
<linearGradient id="paint9_linear_72_3" x1="725.622" y1="187.319" x2="736.18" y2="79.7295" gradientUnits="userSpaceOnUse">
<stop stop-color="#D6E5FF"/>
<stop offset="0.4226" stop-color="#DDEDFF"/>
<stop offset="1" stop-color="#E0F1FF"/>
</linearGradient>
<linearGradient id="paint10_linear_72_3" x1="534.398" y1="227.738" x2="536.348" y2="207.858" gradientUnits="userSpaceOnUse">
<stop stop-color="#D6E5FF"/>
<stop offset="0.4226" stop-color="#DDEDFF"/>
<stop offset="1" stop-color="#E0F1FF"/>
</linearGradient>
<linearGradient id="paint11_linear_72_3" x1="573.655" y1="204.917" x2="580.697" y2="133.159" gradientUnits="userSpaceOnUse">
<stop stop-color="#D6E5FF"/>
<stop offset="0.4226" stop-color="#DDEDFF"/>
<stop offset="1" stop-color="#E0F1FF"/>
</linearGradient>
<linearGradient id="paint12_linear_72_3" x1="814.675" y1="232.674" x2="819.401" y2="184.518" gradientUnits="userSpaceOnUse">
<stop stop-color="#D6E5FF"/>
<stop offset="0.4226" stop-color="#DDEDFF"/>
<stop offset="1" stop-color="#E0F1FF"/>
</linearGradient>
<linearGradient id="paint13_linear_72_3" x1="1368.48" y1="184.571" x2="1368.48" y2="138.668" gradientUnits="userSpaceOnUse">
<stop stop-color="#BED6FF"/>
<stop offset="0.4836" stop-color="#C5E1FF"/>
<stop offset="1" stop-color="#C7E5FF"/>
</linearGradient>
<linearGradient id="paint14_linear_72_3" x1="1322.32" y1="169.96" x2="1322.32" y2="138.81" gradientUnits="userSpaceOnUse">
<stop stop-color="#D6E5FF"/>
<stop offset="0.4226" stop-color="#DDEDFF"/>
<stop offset="1" stop-color="#E0F1FF"/>
</linearGradient>
<linearGradient id="paint15_linear_72_3" x1="1400.41" y1="161.324" x2="1400.41" y2="142.912" gradientUnits="userSpaceOnUse">
<stop stop-color="#D6E5FF"/>
<stop offset="0.4226" stop-color="#DDEDFF"/>
<stop offset="1" stop-color="#E0F1FF"/>
</linearGradient>
<linearGradient id="paint16_linear_72_3" x1="287.145" y1="180.366" x2="293.357" y2="97.0659" gradientUnits="userSpaceOnUse">
<stop stop-color="#BED6FF"/>
<stop offset="0.4836" stop-color="#C5E1FF"/>
<stop offset="1" stop-color="#C7E5FF"/>
</linearGradient>
<linearGradient id="paint17_linear_72_3" x1="269.534" y1="146.204" x2="269.534" y2="97.0137" gradientUnits="userSpaceOnUse">
<stop stop-color="#D6E5FF"/>
<stop offset="0.4226" stop-color="#DDEDFF"/>
<stop offset="1" stop-color="#E0F1FF"/>
</linearGradient>
<linearGradient id="paint18_linear_72_3" x1="183.788" y1="150.175" x2="183.788" y2="136.827" gradientUnits="userSpaceOnUse">
<stop stop-color="#D6E5FF"/>
<stop offset="0.4226" stop-color="#DDEDFF"/>
<stop offset="1" stop-color="#E0F1FF"/>
</linearGradient>
<linearGradient id="paint19_linear_72_3" x1="376.558" y1="146.204" x2="376.558" y2="120.974" gradientUnits="userSpaceOnUse">
<stop stop-color="#D6E5FF"/>
<stop offset="0.4226" stop-color="#DDEDFF"/>
<stop offset="1" stop-color="#E0F1FF"/>
</linearGradient>
<clipPath id="clip0_72_3">
<rect width="1440" height="645" fill="white"/>
</clipPath>
</defs>
</svg>
